<svg aria-hidden="true" xmlns="http://www.w3.org/2000/svg" xmlns:xlink="http://www.w3.org/1999/xlink"><symbol viewBox="0 0 500 500" fill="none" id="arrow-down" xmlns="http://www.w3.org/2000/svg">
<path d="M479.297 104.219C478.323 102.252 476.82 100.596 474.957 99.4369C473.094 98.2776 470.945 97.6609 468.75 97.6562H31.2501C29.0557 97.6609 26.9062 98.2776 25.043 99.4369C23.1798 100.596 21.6769 102.252 20.7033 104.219C19.7373 106.192 19.3494 108.398 19.5844 110.582C19.8194 112.767 20.6678 114.84 22.0314 116.563L240.781 397.813C241.869 399.223 243.265 400.365 244.864 401.151C246.462 401.937 248.219 402.345 250 402.345C251.781 402.345 253.538 401.937 255.137 401.151C256.735 400.365 258.131 399.223 259.219 397.813L477.969 116.563C479.333 114.84 480.181 112.767 480.416 110.582C480.651 108.398 480.263 106.192 479.297 104.219Z" fill="currentColor"/>
</symbol><symbol viewBox="0 0 500 500" fill="none" id="arrow_down" xmlns="http://www.w3.org/2000/svg">
<path d="M479.297 104.219C478.323 102.252 476.82 100.596 474.957 99.4369C473.094 98.2776 470.945 97.6609 468.75 97.6562H31.2501C29.0557 97.6609 26.9062 98.2776 25.043 99.4369C23.1798 100.596 21.6769 102.252 20.7033 104.219C19.7373 106.192 19.3494 108.398 19.5844 110.582C19.8194 112.767 20.6678 114.84 22.0314 116.563L240.781 397.812C241.869 399.223 243.265 400.365 244.864 401.151C246.462 401.937 248.219 402.345 250 402.345C251.781 402.345 253.538 401.937 255.137 401.151C256.735 400.365 258.131 399.223 259.219 397.812L477.969 116.563C479.333 114.84 480.181 112.767 480.416 110.582C480.651 108.398 480.263 106.192 479.297 104.219Z" fill="currentColor"/>
</symbol><symbol viewBox="0 0 500 500" fill="none" id="clock" xmlns="http://www.w3.org/2000/svg">
<g clip-path="url(#cclip0_392_45)">
<path fill-rule="evenodd" clip-rule="evenodd" d="M-0.00195312 250.001C-0.00195312 387.849 112.15 500.002 249.998 500.002C387.846 500.002 500 387.849 500 250.001C500 112.153 387.847 0 249.999 0C112.151 0 -0.00195312 112.153 -0.00195312 250.001ZM317.397 342.667L237.362 262.628C234.045 259.279 232.149 254.74 232.149 250.002V88.2744C232.149 78.4121 240.153 70.4189 249.999 70.4189C259.846 70.4189 267.849 78.4121 267.849 88.2744V242.608L342.67 317.414C349.62 324.392 349.62 335.695 342.67 342.667C339.194 346.163 334.614 347.906 330.033 347.906C325.452 347.905 320.924 346.163 317.397 342.667Z" fill="currentColor"/>
</g>
<defs>
<clipPath id="cclip0_392_45">
<rect width="500" height="500" fill="currentColor"/>
</clipPath>
</defs>
</symbol><symbol viewBox="0 0 512 512" fill="none" id="globe" xmlns="http://www.w3.org/2000/svg">
<g clip-path="url(#dclip0_1329_98)">
<path d="M210.687 3.529C191.297 42.025 176.482 82.576 166.437 124.38C190.819 129.834 215.759 133.071 240.974 133.99V0C230.752 0.587 220.643 1.764 210.687 3.529Z" fill="currentColor"/>
<path d="M351.802 153.812C325.35 159.705 298.347 163.129 271.027 164.048V240.975H360.926C360.143 211.627 357.089 182.483 351.802 153.812Z" fill="currentColor"/>
<path d="M301.305 3.528C291.352 1.764 281.245 0.587 271.026 0V133.982C296.236 133.073 321.147 129.87 345.551 124.416C335.502 82.593 320.678 42.007 301.305 3.528Z" fill="currentColor"/>
<path d="M271.026 378.02V512.002C281.25 511.415 291.361 510.237 301.318 508.472C320.169 471.076 335.307 430.633 345.634 387.604C321.204 382.139 296.265 378.93 271.026 378.02Z" fill="currentColor"/>
<path d="M390.991 271.027C390.191 302.91 386.853 334.6 381.015 365.749C410.896 374.616 439.641 386.615 467.098 401.708C493.762 363.251 509.284 318.352 512 271.027H390.991Z" fill="currentColor"/>
<path d="M166.366 387.604C176.077 428.063 190.632 468.697 210.682 508.471C220.639 510.237 230.751 511.414 240.974 512.001V378.02C215.736 378.93 190.796 382.139 166.366 387.604Z" fill="currentColor"/>
<path d="M160.202 153.781C154.921 182.438 151.856 211.582 151.076 240.974H240.974V164.062C213.651 163.135 186.623 159.669 160.202 153.781Z" fill="currentColor"/>
<path d="M44.904 110.289C18.239 148.746 2.717 193.647 0 240.973H121.014C121.819 209.022 125.183 177.342 131.035 146.217C101.198 137.373 72.327 125.354 44.904 110.289Z" fill="currentColor"/>
<path d="M137.291 395.246C112.271 402.828 87.7848 412.82 63.7158 425.672C92.8308 458.579 129.906 484.015 172.712 498.666C157.717 465.359 145.858 430.769 137.291 395.246Z" fill="currentColor"/>
<path d="M63.7246 86.3174C87.2716 98.8814 111.934 109.054 137.361 116.747C145.927 81.2624 157.77 46.6414 172.761 13.3164C131.79 27.3304 94.1666 51.9144 63.7246 86.3174Z" fill="currentColor"/>
<path d="M121.009 271.027H0C2.717 318.352 18.238 363.251 44.902 401.708C72.33 386.632 101.072 374.626 130.986 365.749C125.147 334.6 121.809 302.91 121.009 271.027Z" fill="currentColor"/>
<path d="M339.232 13.3164C354.211 46.6384 366.051 81.2854 374.62 116.782C400.204 109.036 424.675 98.9354 448.284 86.3294C419.092 53.3354 381.97 27.9334 339.232 13.3164Z" fill="currentColor"/>
<path d="M374.71 395.246C366.146 430.755 354.289 465.345 339.289 498.666C382.103 484.012 419.176 458.572 448.285 425.672C425.216 413.354 400.823 403.159 374.71 395.246Z" fill="currentColor"/>
<path d="M151.069 271.027C151.843 300.364 154.885 329.522 160.153 358.2C186.62 352.301 213.637 348.873 240.974 347.954V271.027H151.069Z" fill="currentColor"/>
<path d="M467.098 110.293C440.211 125.072 411.499 137.21 380.952 146.27C386.81 177.406 390.179 209.077 390.986 240.974H512C509.283 193.649 493.762 148.75 467.098 110.293Z" fill="currentColor"/>
<path d="M271.026 271.027V347.954C298.362 348.873 325.38 352.301 351.847 358.2C357.115 329.522 360.157 300.364 360.931 271.027H271.026Z" fill="currentColor"/>
</g>
<defs>
<clipPath id="dclip0_1329_98">
<rect width="512" height="512" fill="currentColor"/>
</clipPath>
</defs>
</symbol><symbol viewBox="0 0 500 500" fill="none" id="location" xmlns="http://www.w3.org/2000/svg">
<path d="M250 0C152.5 0 75 77.5 75 175C75 325 250 500 250 500C250 500 425 325 425 175C425 77.5 347.5 0 250 0ZM250 300C180 300 125 245 125 175C125 105 180 50 250 50C320 50 375 105 375 175C375 245 320 300 250 300Z" fill="currentColor"/>
<path d="M250 175C277.614 175 300 152.614 300 125C300 97.3858 277.614 75 250 75C222.386 75 200 97.3858 200 125C200 152.614 222.386 175 250 175Z" fill="currentColor"/>
<path d="M250 175C212.5 175 180 195 162.5 225C180 255 212.5 275 250 275C287.5 275 320 255 337.5 225C320 195 287.5 175 250 175Z" fill="currentColor"/>
</symbol><symbol viewBox="0 0 500 500" fill="none" id="mail" xmlns="http://www.w3.org/2000/svg">
<path fill-rule="evenodd" clip-rule="evenodd" d="M480.469 401.779V98.2344L311.221 250.002L480.469 401.779Z" fill="currentColor"/>
<path fill-rule="evenodd" clip-rule="evenodd" d="M464.717 413.877L296.592 263.125L256.523 299.062C254.668 300.723 252.334 301.553 250.01 301.553C247.676 301.553 245.342 300.723 243.486 299.062L203.418 263.125L35.2832 413.877H464.717Z" fill="currentColor"/>
<path fill-rule="evenodd" clip-rule="evenodd" d="M250 278.674L464.717 86.125H35.2832L250 278.674Z" fill="currentColor"/>
<path fill-rule="evenodd" clip-rule="evenodd" d="M188.779 250.002L19.5312 98.2344V401.779L188.779 250.002Z" fill="currentColor"/>
</symbol><symbol viewBox="0 0 500 500" fill="none" id="phone" xmlns="http://www.w3.org/2000/svg">
<g clip-path="url(#gclip0_392_88)">
<path d="M465.943 332.513C440.545 312.102 417.246 302.179 394.716 302.179C362.123 302.179 338.656 322.912 317.41 344.151C314.967 346.596 312.008 347.736 308.102 347.736C290.198 347.738 258.702 325.317 214.488 281.098C162.473 229.079 142.807 195.994 156.031 182.765C191.879 146.929 203.071 111.003 148.184 42.7434C128.535 18.288 109.311 6.40234 89.4134 6.40234C62.5792 6.40234 42.1803 27.8523 24.183 46.7789C21.0715 50.0505 18.1322 53.1412 15.2504 56.023C-5.09102 76.3627 -5.08057 120.728 15.28 174.706C37.6192 233.931 81.7268 298.357 139.479 356.119C184.142 400.778 232.738 436.87 280.016 461.103C321.292 482.26 361.33 493.596 392.753 493.596C392.756 493.596 392.76 493.596 392.765 493.596C412.43 493.596 428.403 489.306 438.952 480.583C460.381 462.865 500.267 430.048 500.001 391.068C499.855 370.16 488.399 350.567 465.943 332.513Z" fill="currentColor"/>
</g>
<defs>
<clipPath id="gclip0_392_88">
<rect width="500" height="500" fill="currentColor"/>
</clipPath>
</defs>
</symbol><symbol viewBox="0 0 500 500" fill="none" id="telegram" xmlns="http://www.w3.org/2000/svg">
<g clip-path="url(#hclip0_392_96)">
<path d="M490.21 40.9645C482.166 33.5943 470.734 31.1383 460.371 34.5533L20.7337 179.476C8.75219 183.426 0.627176 194.121 0.0344018 206.722C-0.557396 219.323 6.52758 230.734 18.0842 235.792L106.371 274.419L366.303 130.158C372.651 126.635 380.619 128.281 385.053 134.026C389.487 139.773 389.057 147.897 384.04 153.143L221.992 322.582L188.757 442.656L268.524 382.927L362.85 460.114C368.344 464.612 375.059 466.957 381.905 466.957C385.165 466.957 388.456 466.425 391.657 465.339C401.585 461.973 408.944 453.871 411.344 443.666L499.2 70.1276C501.698 59.5094 498.254 48.3346 490.21 40.9645Z" fill="currentColor"/>
<path d="M129.371 295.238L159.899 436.832L194.677 311.187C195.323 308.849 196.539 306.707 198.215 304.955L295.9 202.816L129.371 295.238Z" fill="currentColor"/>
</g>
<defs>
<clipPath id="hclip0_392_96">
<rect width="500" height="500" fill="currentColor"/>
</clipPath>
</defs>
</symbol></svg>