<?xml version="1.0" standalone="no"?>
<!DOCTYPE svg PUBLIC "-//W3C//DTD SVG 20010904//EN"
 "http://www.w3.org/TR/2001/REC-SVG-20010904/DTD/svg10.dtd">
<svg version="1.0" xmlns="http://www.w3.org/2000/svg"
 width="700.000000pt" height="700.000000pt" viewBox="0 0 700.000000 700.000000"
 preserveAspectRatio="xMidYMid meet">
<metadata>
Created by potrace 1.14, written by Peter Selinger 2001-2017
</metadata>
<g transform="translate(0.000000,700.000000) scale(0.100000,-0.100000)"
fill="#000000" stroke="none">
<path d="M2495 4645 c-77 -27 -145 -124 -145 -206 0 -121 127 -233 244 -214
134 23 216 140 186 267 -17 69 -85 139 -152 156 -59 15 -83 15 -133 -3z"/>
<path d="M3921 4645 c-24 -8 -61 -31 -83 -52 -137 -134 -41 -366 152 -366 122
0 213 91 213 213 0 98 -66 186 -159 209 -53 14 -68 13 -123 -4z"/>
<path d="M2017 4272 c-15 -16 -39 -72 -172 -399 -113 -276 -145 -406 -145
-582 0 -276 77 -524 237 -766 48 -72 109 -142 217 -251 169 -169 279 -249 457
-333 98 -46 290 -111 329 -111 12 0 26 27 53 107 69 206 97 350 97 494 0 167
-21 246 -116 447 -101 214 -184 312 -265 314 -69 2 -84 -64 -54 -232 21 -114
22 -248 2 -286 -34 -65 -99 -73 -182 -23 -110 66 -231 220 -331 418 -91 183
-108 246 -108 386 0 118 1 122 56 290 87 265 92 311 47 430 -20 54 -69 115
-92 115 -8 0 -21 -8 -30 -18z"/>
<path d="M4471 4252 c-52 -54 -76 -126 -74 -222 1 -62 11 -106 56 -245 86
-264 94 -354 46 -511 -27 -90 -124 -289 -187 -385 -99 -152 -238 -271 -315
-271 -44 0 -81 24 -97 63 -17 39 -14 174 5 279 18 99 19 173 4 201 -32 61
-120 35 -194 -58 -26 -32 -79 -125 -120 -208 -104 -215 -125 -290 -125 -458 0
-151 27 -291 98 -500 l36 -109 37 6 c63 10 220 65 318 112 204 96 412 265 590
480 210 253 311 536 311 869 0 205 -31 314 -203 724 -71 170 -109 249 -125
259 -21 14 -25 13 -61 -26z"/>
<path d="M2509 4127 c-44 -13 -94 -42 -118 -70 -9 -12 -4 -15 28 -20 84 -11
139 -87 162 -221 l12 -69 22 54 c31 76 73 157 107 207 29 41 29 44 13 62 -46
50 -152 77 -226 57z"/>
<path d="M3928 4126 c-40 -11 -118 -58 -118 -71 0 -3 17 -31 37 -62 20 -32 56
-100 79 -152 l42 -93 7 48 c20 152 89 244 181 244 l27 0 -23 25 c-53 56 -153
83 -232 61z"/>
<path d="M2372 3913 c-30 -27 -177 -217 -206 -265 -73 -127 -71 -257 7 -438
l15 -35 30 65 c16 36 71 130 122 209 51 79 101 167 111 197 32 91 21 216 -23
264 -23 24 -30 25 -56 3z"/>
<path d="M4132 3910 c-44 -48 -55 -170 -23 -263 11 -31 41 -89 67 -129 85
-132 150 -242 170 -290 10 -27 22 -48 25 -48 4 0 16 22 28 50 61 142 66 270
14 381 -27 58 -177 259 -225 302 -26 22 -33 22 -56 -3z"/>
<path d="M2432 3384 c-51 -79 -109 -182 -128 -229 l-36 -85 27 -47 c41 -71
118 -173 165 -218 l41 -40 -8 90 c-14 156 -7 438 15 560 11 61 19 111 18 111
0 1 -43 -63 -94 -142z"/>
<path d="M4033 3515 c35 -116 52 -456 34 -660 l-8 -90 36 35 c47 45 111 128
159 207 l38 62 -35 84 c-19 46 -77 149 -128 228 -103 160 -104 162 -96 134z"/>
</g>
</svg>
