<svg width="260" height="260" viewBox="0 0 260 260" fill="none" xmlns="http://www.w3.org/2000/svg">
<rect width="260" height="260" fill="white"/>
<path opacity="0.58" d="M158.471 134.459C158.471 104.52 181.461 83.0898 212.392 83.0898C229.562 83.0898 243.893 89.3343 253.26 100.685L238.503 114.308C231.834 106.646 223.463 102.674 213.529 102.674C194.942 102.674 181.744 115.729 181.744 134.459C181.744 153.188 194.942 166.244 213.529 166.244C223.463 166.244 231.834 162.271 238.503 154.468L253.26 168.091C243.893 179.583 229.562 185.828 212.25 185.828C181.457 185.828 158.471 164.401 158.471 134.459Z" fill="url(#paint0_linear_1295_313)"/>
<path opacity="0.58" d="M38.7698 104.698H6V85.3867H95.2416V104.698H62.4718V187.795H38.7698V104.698Z" fill="url(#paint1_linear_1295_313)"/>
<path d="M148.969 114.021C150.551 110.362 153.333 109.968 154.455 109.968C154.838 109.968 155.279 110.006 155.754 110.125C153.566 107.723 150.961 106.328 148.165 106.328C145.69 106.328 143.368 107.42 141.346 109.343C142.077 110.37 142.778 111.458 143.453 112.607C144.694 114.737 145.805 117.028 146.77 119.453C147.096 120.257 147.399 121.077 147.69 121.912C147.586 120.92 147.582 119.936 147.674 118.959C147.828 117.3 148.257 115.656 148.965 114.021H148.969Z" fill="url(#paint2_linear_1295_313)"/>
<path d="M150.617 157.333C151.318 156.816 151.961 156.249 152.528 155.655C155.133 152.92 157.39 149.737 159.436 145.886L159.213 145.385L158.531 143.852C158.259 143.243 158.022 142.657 157.792 142.094C157.351 141.021 156.972 140.094 156.52 139.336C155.532 137.681 154.474 136.079 153.356 134.382C152.582 133.214 151.785 132.003 151.011 130.777C150.421 129.839 149.908 128.912 149.475 127.992C150.804 133.52 151.502 139.477 151.502 145.595C151.502 148.453 151.348 151.28 151.05 154.039C150.931 155.146 150.789 156.249 150.624 157.337L150.617 157.333Z" fill="url(#paint3_linear_1295_313)"/>
<path d="M148.165 103.162C152.64 103.162 156.267 99.5344 156.267 95.0595C156.267 90.5845 152.64 86.957 148.165 86.957C143.69 86.957 140.062 90.5845 140.062 95.0595C140.062 99.5344 143.69 103.162 148.165 103.162Z" fill="url(#paint4_linear_1295_313)"/>
<path d="M97.5507 117.813C98.3475 115.99 99.2287 114.247 100.186 112.603C100.857 111.454 101.558 110.366 102.293 109.339C100.274 107.42 97.9491 106.324 95.4743 106.324C92.6816 106.324 90.0765 107.719 87.8853 110.121C88.3603 110.002 88.8008 109.96 89.1839 109.96C90.3064 109.96 93.0877 110.354 94.6698 114.013C95.0912 114.994 95.4169 115.971 95.6391 116.959C96.0145 118.591 96.1179 120.234 95.9455 121.905C96.4321 120.499 96.9684 119.131 97.5469 117.806L97.5507 117.813Z" fill="url(#paint5_linear_1295_313)"/>
<path d="M92.6357 130.773C91.8618 131.999 91.065 133.21 90.295 134.378C89.1763 136.072 88.1151 137.677 87.1268 139.332C86.6709 140.09 86.2955 141.017 85.8549 142.09C85.625 142.653 85.3875 143.239 85.1155 143.848L84.4336 145.381L84.2114 145.883C86.2571 149.733 88.5174 152.92 91.1186 155.655C91.6856 156.249 92.3292 156.816 93.0302 157.333C92.8617 156.245 92.7199 155.146 92.605 154.035C92.3062 151.277 92.153 148.449 92.153 145.591C92.153 139.47 92.8502 133.516 94.1795 127.988C93.7466 128.908 93.2333 129.835 92.6433 130.773H92.6357Z" fill="url(#paint6_linear_1295_313)"/>
<path opacity="0.58" d="M128.638 152.915C130.224 149.46 131.868 145.885 134.358 142.591C134.722 142.108 135.116 141.614 135.545 141.131C136.128 140.476 136.775 139.836 137.518 139.262C138.442 138.545 139.514 137.932 140.775 137.515C141.56 137.254 142.357 137.124 143.142 137.124C144.594 137.124 145.916 137.565 146.992 138.342C146.429 132.561 145.199 127.164 143.449 122.39C142.123 118.774 140.495 115.514 138.626 112.713C134.136 105.982 128.255 101.906 121.823 101.906C115.391 101.906 109.507 105.986 105.017 112.713C103.458 115.05 102.067 117.705 100.879 120.624C98.7608 125.819 97.2859 131.837 96.6538 138.342C97.7303 137.565 99.0558 137.124 100.504 137.124C101.289 137.124 102.086 137.254 102.871 137.515C104.622 138.089 105.997 139.043 107.135 140.124C107.48 140.449 107.802 140.786 108.101 141.127C108.53 141.614 108.924 142.108 109.288 142.587C111.782 145.882 113.422 149.456 115.008 152.911C115.276 153.497 115.548 154.084 115.82 154.67C117.981 159.29 119.03 164.121 119.03 169.434C119.03 173.706 118.333 178.36 116.889 183.658C116.498 185.087 116.065 186.528 115.59 187.976C117.586 188.83 119.674 189.286 121.823 189.286C123.972 189.286 126.06 188.83 128.056 187.976C127.577 186.524 127.144 185.087 126.757 183.658C125.313 178.356 124.612 173.706 124.616 169.434C124.616 164.121 125.669 159.286 127.83 154.67C128.102 154.084 128.37 153.497 128.642 152.911L128.638 152.915Z" fill="url(#paint7_linear_1295_313)"/>
<path opacity="0.58" d="M121.823 96.3679C129.933 96.3679 136.507 89.7941 136.507 81.684C136.507 73.5739 129.933 67 121.823 67C113.713 67 107.139 73.5739 107.139 81.684C107.139 89.7941 113.713 96.3679 121.823 96.3679Z" fill="url(#paint8_linear_1295_313)"/>
<path d="M155.972 115.014C155.945 114.983 155.922 114.956 155.895 114.929C155.869 114.899 155.838 114.868 155.811 114.837C155.781 114.807 155.754 114.78 155.727 114.753C155.708 114.734 155.689 114.715 155.669 114.7C155.643 114.673 155.62 114.65 155.593 114.631C155.417 114.474 155.237 114.355 155.064 114.274C155.041 114.263 155.014 114.251 154.991 114.24C154.965 114.228 154.942 114.221 154.919 114.209C154.876 114.194 154.834 114.179 154.792 114.171C154.75 114.159 154.712 114.152 154.67 114.144C154.654 114.14 154.643 114.136 154.631 114.136C154.631 114.136 154.627 114.136 154.624 114.136C154.601 114.136 154.578 114.133 154.558 114.129C154.528 114.125 154.493 114.121 154.463 114.121C154.421 114.121 154.382 114.121 154.34 114.129C154.26 114.136 154.179 114.152 154.103 114.179C154.099 114.179 154.091 114.182 154.087 114.182C154.053 114.194 154.022 114.209 153.988 114.221C153.949 114.236 153.911 114.255 153.877 114.274C153.842 114.293 153.811 114.313 153.777 114.332C153.739 114.359 153.697 114.389 153.654 114.42C153.62 114.451 153.582 114.477 153.547 114.512C153.513 114.542 153.474 114.577 153.444 114.615C153.409 114.654 153.375 114.692 153.34 114.73C153.275 114.811 153.206 114.899 153.145 114.995C153.114 115.044 153.084 115.094 153.053 115.144C153.034 115.178 153.015 115.213 152.995 115.247C152.976 115.278 152.961 115.313 152.942 115.347C152.888 115.447 152.838 115.554 152.792 115.665C152.44 116.481 152.187 117.285 152.022 118.075C151.961 118.358 151.915 118.645 151.877 118.925C151.877 118.937 151.873 118.952 151.873 118.963C151.846 119.147 151.831 119.324 151.816 119.504C151.808 119.58 151.804 119.657 151.8 119.737C151.796 119.799 151.793 119.864 151.793 119.929C151.789 119.994 151.785 120.063 151.785 120.128C151.781 120.277 151.785 120.431 151.785 120.58C151.785 120.653 151.789 120.726 151.793 120.798C151.796 120.906 151.804 121.013 151.808 121.124C151.819 121.339 151.842 121.557 151.869 121.771L151.911 122.093C151.927 122.201 151.946 122.308 151.965 122.411C151.984 122.519 152.003 122.626 152.026 122.733C152.057 122.875 152.088 123.013 152.122 123.154C152.137 123.223 152.157 123.296 152.176 123.365C152.195 123.438 152.214 123.507 152.233 123.576C152.321 123.905 152.425 124.231 152.54 124.557C152.601 124.729 152.666 124.898 152.731 125.066C152.766 125.15 152.796 125.235 152.835 125.319C152.923 125.53 153.011 125.74 153.11 125.951C153.206 126.162 153.306 126.369 153.413 126.579C153.455 126.664 153.497 126.748 153.539 126.828C153.624 126.997 153.716 127.162 153.804 127.33C154.034 127.744 154.279 128.158 154.536 128.568C156.359 131.464 158.336 134.268 160.094 137.206C160.129 137.268 160.167 137.329 160.201 137.39C160.236 137.448 160.27 137.509 160.301 137.566C160.366 137.689 160.431 137.812 160.496 137.934C160.558 138.053 160.619 138.172 160.677 138.294C160.707 138.352 160.734 138.409 160.761 138.467C160.857 138.666 160.949 138.869 161.04 139.076C161.09 139.191 161.14 139.306 161.19 139.421C161.205 139.451 161.217 139.482 161.228 139.509C161.297 139.673 161.366 139.834 161.431 139.995C161.504 140.179 161.581 140.359 161.653 140.543C161.707 140.669 161.757 140.8 161.81 140.93C161.979 141.34 162.151 141.754 162.339 142.171C162.634 141.585 162.91 141.007 163.159 140.44C163.243 140.252 163.324 140.064 163.404 139.876C163.458 139.754 163.508 139.631 163.557 139.505C163.607 139.378 163.657 139.26 163.707 139.133C163.737 139.057 163.768 138.984 163.795 138.907C163.852 138.762 163.906 138.616 163.96 138.471C164.013 138.325 164.063 138.183 164.113 138.038C164.143 137.957 164.17 137.873 164.197 137.792C164.224 137.716 164.247 137.643 164.27 137.57C164.312 137.444 164.35 137.317 164.389 137.195C164.438 137.042 164.484 136.885 164.53 136.731C164.576 136.574 164.619 136.421 164.657 136.268C164.676 136.195 164.695 136.126 164.714 136.053C164.802 135.697 164.883 135.344 164.952 134.996C164.952 134.996 164.952 134.995 164.952 134.992C164.971 134.896 164.99 134.8 165.005 134.709C165.04 134.532 165.067 134.352 165.094 134.176C165.136 133.904 165.17 133.636 165.197 133.368C165.239 132.95 165.27 132.536 165.277 132.13C165.277 132.015 165.281 131.9 165.281 131.786C165.281 131.586 165.277 131.387 165.27 131.188C165.266 131.088 165.262 130.993 165.254 130.897C165.247 130.797 165.243 130.701 165.235 130.606C165.231 130.54 165.224 130.475 165.216 130.41C165.208 130.326 165.201 130.238 165.189 130.15C165.182 130.065 165.17 129.977 165.159 129.893C165.136 129.721 165.109 129.548 165.078 129.38C165.071 129.334 165.063 129.288 165.051 129.242C165.044 129.184 165.032 129.131 165.021 129.073C165.005 129 164.99 128.924 164.975 128.851C164.963 128.801 164.956 128.748 164.94 128.698C164.921 128.606 164.898 128.514 164.875 128.418C164.848 128.319 164.825 128.219 164.799 128.119C164.745 127.92 164.687 127.721 164.622 127.522C164.584 127.399 164.542 127.273 164.496 127.15C164.446 127.001 164.389 126.851 164.331 126.706C164.301 126.633 164.274 126.56 164.243 126.484C164.193 126.361 164.14 126.235 164.086 126.112C164.052 126.031 164.013 125.947 163.979 125.867C163.94 125.782 163.902 125.694 163.86 125.61C163.814 125.51 163.764 125.415 163.714 125.315C163.688 125.261 163.661 125.208 163.634 125.154C163.573 125.032 163.508 124.913 163.439 124.79C163.312 124.553 163.174 124.319 163.029 124.082C162.987 124.009 162.944 123.936 162.898 123.867C162.837 123.767 162.776 123.672 162.711 123.576C162.577 123.369 162.439 123.162 162.293 122.955C162.232 122.867 162.171 122.779 162.105 122.691C161.994 122.53 161.876 122.377 161.757 122.22C161.596 122.009 161.435 121.802 161.274 121.595C161.259 121.576 161.243 121.553 161.228 121.534C161.098 121.365 160.968 121.197 160.834 121.028C160.546 120.657 160.255 120.289 159.96 119.921C159.753 119.664 159.55 119.404 159.343 119.147C159.125 118.879 158.907 118.607 158.692 118.339C157.822 117.262 156.941 116.19 156.06 115.117C156.033 115.086 156.01 115.056 155.984 115.029L155.972 115.014Z" fill="url(#paint9_linear_1295_313)"/>
<path d="M80.0966 125.001C80.0315 125.124 79.9702 125.246 79.9089 125.369C79.8476 125.491 79.7863 125.614 79.7327 125.737C79.6867 125.836 79.6407 125.932 79.5986 126.032C79.4837 126.292 79.3764 126.549 79.2806 126.813C79.2577 126.874 79.2347 126.936 79.2155 126.997C79.1504 127.169 79.0929 127.346 79.0393 127.518C79.0048 127.618 78.978 127.717 78.9473 127.817C78.7788 128.38 78.6485 128.951 78.5566 129.525C78.5451 129.594 78.5336 129.663 78.5259 129.732C78.5106 129.828 78.4991 129.924 78.4876 130.023C78.4723 130.131 78.4608 130.238 78.4532 130.345C78.4417 130.433 78.434 130.518 78.4263 130.606C78.4187 130.705 78.411 130.801 78.4072 130.897C78.3995 130.997 78.3957 131.092 78.3919 131.192C78.388 131.288 78.3842 131.38 78.3842 131.472C78.3842 131.575 78.3804 131.678 78.3804 131.782C78.3804 131.92 78.3804 132.05 78.388 132.184C78.3957 132.552 78.4187 132.92 78.457 133.287C78.4761 133.487 78.4991 133.69 78.5259 133.889C78.5413 133.996 78.5566 134.1 78.5719 134.207C78.6485 134.72 78.7558 135.241 78.8784 135.774C78.9052 135.877 78.932 135.984 78.9588 136.092C78.9857 136.195 79.0125 136.302 79.0431 136.413C79.0814 136.555 79.1197 136.693 79.1619 136.835C79.181 136.904 79.2002 136.965 79.2193 137.03C79.2538 137.149 79.2921 137.264 79.3266 137.383C79.3649 137.498 79.4032 137.616 79.4415 137.731C79.5526 138.061 79.6714 138.394 79.7978 138.727C79.8361 138.831 79.8783 138.938 79.9204 139.041C80.0315 139.325 80.1503 139.612 80.2728 139.9C80.2997 139.965 80.3303 140.034 80.3571 140.099C80.6483 140.773 80.9739 141.463 81.3264 142.168C81.5141 141.75 81.6826 141.336 81.855 140.926C82.0504 140.447 82.242 139.972 82.4373 139.513C82.4488 139.482 82.4603 139.459 82.4718 139.432C82.5369 139.279 82.6059 139.126 82.671 138.973C82.7668 138.758 82.8664 138.54 82.9698 138.329C83.0541 138.16 83.1384 137.992 83.2265 137.823C83.3376 137.613 83.4564 137.406 83.5751 137.203C85.3297 134.264 87.3064 131.46 89.1338 128.564C89.287 128.319 89.4403 128.07 89.582 127.824C89.6778 127.66 89.7736 127.495 89.8655 127.33C90.3252 126.499 90.7198 125.664 91.0339 124.813C91.1297 124.557 91.2178 124.304 91.2983 124.047C91.3366 123.928 91.3711 123.806 91.4055 123.687C91.4247 123.607 91.4477 123.526 91.4707 123.45C91.4937 123.358 91.5166 123.266 91.5396 123.174C91.6048 122.898 91.666 122.622 91.712 122.342C91.7771 121.971 91.8231 121.599 91.8499 121.22C91.8767 120.868 91.8882 120.511 91.8806 120.151C91.8806 120.075 91.8806 120.002 91.8729 119.929C91.8691 119.856 91.8653 119.78 91.8614 119.707C91.8538 119.596 91.8461 119.485 91.8346 119.373C91.8231 119.262 91.8155 119.151 91.8001 119.036C91.7925 118.964 91.781 118.887 91.7695 118.814C91.758 118.741 91.7503 118.665 91.735 118.588C91.6967 118.343 91.6469 118.094 91.5894 117.845C91.5779 117.791 91.5626 117.738 91.5511 117.68C91.5128 117.527 91.4745 117.374 91.4285 117.217C91.4055 117.14 91.3864 117.067 91.3596 116.987C91.3366 116.91 91.3098 116.834 91.2868 116.757C91.2561 116.669 91.2255 116.577 91.1948 116.489C91.1642 116.401 91.1297 116.309 91.0952 116.221C91.0263 116.037 90.9535 115.86 90.873 115.677C90.8232 115.566 90.7734 115.458 90.7236 115.362C90.7083 115.328 90.6892 115.297 90.67 115.263C90.5014 114.953 90.3137 114.704 90.1145 114.523C90.08 114.489 90.0417 114.462 90.0073 114.432C89.9766 114.405 89.946 114.382 89.9115 114.359C89.9038 114.355 89.8962 114.347 89.8885 114.343C89.8617 114.328 89.8349 114.309 89.808 114.294C89.7927 114.282 89.7774 114.278 89.7621 114.267C89.7353 114.255 89.7084 114.24 89.6816 114.229C89.6472 114.213 89.6088 114.198 89.5705 114.186C89.5552 114.179 89.5437 114.175 89.5284 114.175C89.5284 114.175 89.5246 114.175 89.5207 114.175C89.4939 114.167 89.4633 114.16 89.4364 114.156C89.3981 114.148 89.356 114.14 89.3177 114.137C89.2794 114.129 89.2372 114.129 89.1951 114.129C89.1874 114.129 89.1759 114.129 89.1683 114.129C89.1453 114.129 89.1261 114.129 89.1032 114.133C89.0725 114.133 89.0419 114.137 89.0074 114.144C88.7814 114.179 88.5477 114.274 88.314 114.435C88.2795 114.458 88.2489 114.485 88.2144 114.508C88.1799 114.535 88.1454 114.562 88.1109 114.589C88.065 114.627 88.0152 114.669 87.9692 114.715C87.95 114.734 87.9271 114.753 87.9079 114.776C87.8045 114.876 87.701 114.987 87.6014 115.11C86.2836 116.719 84.9619 118.328 83.6671 119.956C83.464 120.212 83.261 120.469 83.0618 120.726C83.0273 120.764 83.0005 120.802 82.9698 120.845C82.7745 121.094 82.5791 121.343 82.3875 121.592C82.2266 121.798 82.0696 122.005 81.9087 122.212C81.7899 122.369 81.6711 122.522 81.56 122.68C81.4796 122.791 81.3991 122.902 81.3225 123.013C80.9241 123.584 80.564 124.158 80.2499 124.729C80.2001 124.817 80.1503 124.905 80.1043 124.997L80.0966 125.001Z" fill="url(#paint10_linear_1295_313)"/>
<path d="M166.365 172.965C165.572 173.827 164.523 174.918 163.435 176.033C155.669 183.986 145.786 189.599 134.929 191.966C134.618 192.035 134.304 192.1 133.994 192.162C133.841 191.778 133.691 191.395 133.542 191.012C133.404 190.656 133.274 190.3 133.14 189.943C132.914 189.342 132.699 188.733 132.488 188.124C132.439 187.986 132.393 187.848 132.347 187.71C132.259 187.453 132.174 187.2 132.09 186.944C131.971 186.587 131.852 186.227 131.741 185.867C131.657 185.591 131.569 185.319 131.485 185.047C131.45 184.94 131.42 184.833 131.385 184.726C131.171 184.009 130.964 183.289 130.764 182.565C128.37 173.777 127.558 165.046 131.588 156.423C131.929 155.691 132.266 154.959 132.599 154.224C132.749 153.902 132.894 153.584 133.044 153.266C133.209 152.917 133.369 152.569 133.534 152.216C133.634 152.006 133.733 151.795 133.837 151.584C134.117 151.002 134.408 150.427 134.706 149.856C134.802 149.673 134.902 149.489 134.998 149.305C135.124 149.071 135.254 148.837 135.385 148.608C135.515 148.374 135.649 148.144 135.783 147.914C135.848 147.799 135.917 147.684 135.99 147.569C136.047 147.47 136.109 147.374 136.17 147.278C136.258 147.133 136.346 146.991 136.438 146.849C136.465 146.807 136.492 146.769 136.519 146.727C136.641 146.539 136.76 146.355 136.89 146.171C136.99 146.026 137.089 145.884 137.189 145.738C137.208 145.711 137.227 145.685 137.246 145.658C137.304 145.574 137.365 145.493 137.423 145.413C137.457 145.363 137.488 145.321 137.526 145.275C137.572 145.21 137.618 145.148 137.664 145.087C138.836 143.535 140.135 142.087 142.066 141.451C142.25 141.39 142.433 141.344 142.614 141.317C142.671 141.31 142.725 141.302 142.778 141.294C142.817 141.291 142.855 141.287 142.897 141.283C143.066 141.268 143.23 141.268 143.387 141.283C143.529 141.294 143.667 141.317 143.801 141.352C143.832 141.359 143.862 141.367 143.889 141.379C143.935 141.39 143.981 141.405 144.023 141.421C144.073 141.44 144.123 141.459 144.173 141.482C144.196 141.494 144.223 141.501 144.246 141.517C144.368 141.574 144.483 141.647 144.59 141.727C144.632 141.762 144.675 141.792 144.713 141.827C144.755 141.861 144.793 141.9 144.832 141.938C144.87 141.976 144.908 142.015 144.943 142.057C144.962 142.076 144.977 142.099 144.996 142.118C145.023 142.152 145.05 142.183 145.077 142.221C145.104 142.256 145.127 142.294 145.15 142.329C145.18 142.371 145.207 142.417 145.234 142.467C145.268 142.536 145.307 142.605 145.337 142.677C145.349 142.704 145.36 142.735 145.372 142.762C145.383 142.792 145.395 142.819 145.406 142.846C145.425 142.903 145.445 142.961 145.464 143.018C145.491 143.099 145.51 143.183 145.529 143.267C145.548 143.352 145.563 143.44 145.575 143.528C145.736 144.681 145.674 145.895 145.525 147.056C145.506 147.205 145.487 147.359 145.464 147.512C145.445 147.665 145.422 147.815 145.399 147.968C145.276 148.776 145.134 149.581 144.996 150.385C144.947 150.661 144.901 150.937 144.855 151.216C144.812 151.473 144.77 151.726 144.728 151.979C144.709 152.098 144.69 152.213 144.675 152.327C144.625 152.649 144.579 152.971 144.54 153.293C144.525 153.4 144.51 153.504 144.502 153.611C144.495 153.645 144.491 153.676 144.491 153.71C144.464 153.91 144.445 154.109 144.426 154.308C144.261 156.017 144.226 157.806 144.567 159.472C144.579 159.522 144.586 159.572 144.602 159.618C144.609 159.652 144.617 159.683 144.629 159.717C144.629 159.729 144.632 159.736 144.636 159.748C144.655 159.828 144.678 159.909 144.705 159.985C144.717 160.02 144.724 160.054 144.74 160.089C144.751 160.127 144.767 160.166 144.778 160.2C144.789 160.238 144.805 160.273 144.82 160.307C144.855 160.395 144.889 160.48 144.927 160.564C144.962 160.637 145 160.71 145.035 160.778C145.061 160.832 145.088 160.882 145.119 160.932C145.146 160.982 145.176 161.027 145.203 161.073C145.234 161.119 145.265 161.165 145.295 161.208C145.356 161.296 145.422 161.384 145.491 161.468C145.521 161.503 145.552 161.541 145.586 161.575C145.59 161.583 145.598 161.591 145.605 161.598C145.644 161.64 145.682 161.683 145.72 161.725C145.801 161.805 145.881 161.882 145.966 161.955C146.241 162.192 146.544 162.387 146.87 162.529C146.912 162.548 146.954 162.568 147 162.587C147.126 162.64 147.257 162.686 147.391 162.721C147.418 162.728 147.44 162.736 147.467 162.74C147.494 162.748 147.517 162.751 147.544 162.759C147.594 162.771 147.64 162.782 147.686 162.79C147.735 162.801 147.781 162.809 147.831 162.817C147.866 162.824 147.896 162.828 147.935 162.832C147.984 162.84 148.034 162.843 148.084 162.847C148.142 162.851 148.195 162.855 148.253 162.859C148.31 162.859 148.368 162.863 148.425 162.863C148.49 162.863 148.555 162.863 148.62 162.855C148.674 162.855 148.724 162.851 148.774 162.843C148.85 162.84 148.931 162.828 149.011 162.817C149.069 162.809 149.13 162.797 149.191 162.786C149.325 162.759 149.459 162.728 149.593 162.686C149.674 162.663 149.758 162.636 149.839 162.606C149.923 162.575 150.011 162.541 150.099 162.502C150.164 162.476 150.229 162.445 150.295 162.414C150.36 162.384 150.425 162.349 150.49 162.315C152.333 161.33 154.102 160.024 155.543 158.514C156.278 157.741 156.983 156.944 157.65 156.124C157.719 156.04 157.784 155.959 157.853 155.875C157.891 155.829 157.93 155.779 157.964 155.733C158.113 155.549 158.259 155.362 158.405 155.178C158.527 155.017 158.65 154.86 158.772 154.699C158.895 154.534 159.018 154.369 159.14 154.201C159.194 154.132 159.244 154.063 159.293 153.99C159.343 153.921 159.393 153.852 159.443 153.779C159.554 153.622 159.669 153.465 159.78 153.304C159.891 153.143 159.998 152.99 160.106 152.825C160.604 152.094 161.079 151.351 161.538 150.596C161.841 150.094 162.136 149.588 162.419 149.079C162.515 148.91 162.611 148.738 162.703 148.565C162.78 148.428 162.856 148.286 162.933 148.148C163.193 147.665 163.446 147.182 163.691 146.692C163.764 146.55 163.837 146.409 163.906 146.267C164.009 146.056 164.117 145.845 164.216 145.631C164.297 145.466 164.377 145.302 164.454 145.137C164.557 144.918 164.661 144.7 164.76 144.482C164.898 144.183 165.036 143.884 165.17 143.585C165.308 143.275 165.446 142.965 165.58 142.65V142.631C165.637 142.505 165.691 142.386 165.745 142.26C165.764 142.218 165.783 142.175 165.798 142.133C165.917 141.854 166.036 141.574 166.151 141.291C166.254 141.034 166.361 140.773 166.465 140.513C168.649 135.046 168.936 129.587 166.959 124.002C166.58 122.929 166.208 121.849 165.848 120.768C165.507 119.745 165.174 118.722 164.852 117.696C164.722 117.286 164.595 116.88 164.473 116.47C164.209 115.608 163.956 114.742 163.707 113.876C162.488 109.609 163.098 105.598 165.844 102.004C165.921 101.901 165.998 101.809 166.078 101.717C166.155 101.629 166.231 101.545 166.312 101.468C166.392 101.391 166.465 101.322 166.545 101.257C166.584 101.223 166.622 101.196 166.664 101.165C166.722 101.123 166.779 101.085 166.837 101.047C166.886 101.016 166.932 100.989 166.978 100.966C167.005 100.955 167.028 100.939 167.051 100.932C167.101 100.909 167.151 100.889 167.197 100.87C167.216 100.863 167.239 100.851 167.262 100.851C167.266 100.851 167.269 100.847 167.273 100.847C167.323 100.832 167.369 100.817 167.415 100.809C167.461 100.798 167.507 100.794 167.553 100.79C167.637 100.778 167.725 100.778 167.81 100.79C167.844 100.79 167.879 100.798 167.913 100.805C167.944 100.813 167.974 100.821 168.009 100.828C168.02 100.828 168.036 100.836 168.047 100.84C168.066 100.844 168.085 100.851 168.105 100.859C168.112 100.859 168.116 100.859 168.124 100.866C168.158 100.878 168.189 100.893 168.223 100.909C168.258 100.924 168.288 100.943 168.323 100.962C168.357 100.981 168.388 101.001 168.423 101.02C168.461 101.047 168.495 101.07 168.53 101.096C168.591 101.146 168.656 101.2 168.718 101.261C168.744 101.284 168.767 101.311 168.79 101.334C168.829 101.372 168.867 101.414 168.901 101.456C168.932 101.495 168.963 101.533 168.993 101.575C169.024 101.614 169.055 101.656 169.081 101.698C169.097 101.721 169.116 101.748 169.131 101.771C169.162 101.817 169.193 101.866 169.219 101.912C169.254 101.97 169.292 102.031 169.323 102.096C169.361 102.161 169.396 102.234 169.43 102.307C169.449 102.341 169.465 102.38 169.484 102.414C171.935 108.318 174.502 114.175 176.797 120.136C178.578 124.768 180.199 129.514 180.49 134.525C181.348 149.358 176.368 162.123 166.388 172.965H166.365Z" fill="url(#paint11_linear_1295_313)"/>
<path d="M112.882 182.568C112.809 182.833 112.736 183.093 112.663 183.358C112.61 183.541 112.56 183.725 112.506 183.905C112.433 184.151 112.364 184.392 112.288 184.637C112.25 184.775 112.207 184.913 112.161 185.051C112.077 185.327 111.993 185.599 111.905 185.871C111.817 186.146 111.729 186.418 111.64 186.694C111.56 186.943 111.48 187.188 111.388 187.449C111.319 187.644 111.257 187.84 111.192 188.035C111.177 188.077 111.162 188.119 111.146 188.161C111.039 188.472 110.928 188.782 110.817 189.092C110.713 189.38 110.61 189.663 110.506 189.947C110.441 190.127 110.372 190.303 110.307 190.483C110.234 190.682 110.158 190.881 110.081 191.081C109.962 191.387 109.844 191.694 109.721 192C109.702 192.058 109.679 192.111 109.656 192.169C109.342 192.104 109.032 192.038 108.717 191.973C97.7456 189.579 87.7928 183.848 79.9624 175.799C79.0545 174.868 78.1619 173.926 77.2808 172.972C67.2973 162.134 62.321 149.366 63.1753 134.532C63.4664 129.518 65.0831 124.775 66.8683 120.143C69.163 114.182 71.7297 108.325 74.1815 102.421L74.2237 102.333C74.2582 102.268 74.285 102.203 74.3233 102.146C74.3463 102.103 74.3693 102.061 74.3922 102.019C74.4918 101.847 74.5914 101.69 74.6987 101.556C74.7217 101.525 74.7485 101.494 74.7715 101.467C74.8213 101.406 74.8749 101.345 74.9324 101.291C74.9707 101.253 75.0128 101.215 75.0512 101.18C75.1967 101.054 75.35 100.958 75.507 100.897C75.5147 100.893 75.5224 100.889 75.5339 100.885C75.5645 100.874 75.5951 100.862 75.6296 100.854C75.6603 100.847 75.6871 100.839 75.7177 100.832C75.7254 100.832 75.7292 100.832 75.7369 100.832C75.7369 100.832 75.7484 100.832 75.7522 100.828H75.7675C75.7675 100.828 75.779 100.824 75.7829 100.824H75.7905C75.8135 100.82 75.8365 100.816 75.8595 100.812C75.894 100.809 75.9323 100.805 75.9668 100.805H76.028C76.0702 100.805 76.1162 100.809 76.1583 100.816C76.1621 100.816 76.166 100.816 76.1698 100.816C76.2732 100.832 76.3767 100.858 76.4801 100.9C76.5222 100.916 76.5644 100.935 76.6065 100.954C76.6563 100.977 76.7061 101.004 76.7559 101.031C76.7559 101.031 76.7559 101.031 76.7598 101.031C76.7598 101.031 76.7636 101.035 76.7674 101.035C76.8019 101.054 76.8325 101.073 76.867 101.096C76.89 101.111 76.913 101.126 76.936 101.146C76.9666 101.165 76.9934 101.188 77.0241 101.207C77.0547 101.226 77.0815 101.249 77.1122 101.276C77.1888 101.337 77.2654 101.406 77.3459 101.487C77.3842 101.525 77.4225 101.563 77.4646 101.605C77.5413 101.69 77.6179 101.778 77.6983 101.874C77.7366 101.923 77.775 101.973 77.8171 102.023C80.5639 105.616 81.173 109.631 79.9548 113.895C79.7096 114.761 79.4529 115.627 79.1886 116.489C79.0621 116.898 78.9357 117.308 78.8093 117.718C78.5526 118.542 78.2845 119.362 78.0163 120.182C77.9512 120.381 77.8822 120.584 77.8171 120.783C77.5757 121.515 77.3267 122.243 77.0739 122.967C76.9513 123.319 76.8287 123.672 76.7061 124.02C74.7294 129.606 75.0167 135.065 77.1965 140.531C77.3037 140.803 77.4148 141.075 77.5259 141.347C77.7979 142.01 78.0776 142.669 78.3687 143.324C78.476 143.573 78.5871 143.822 78.702 144.067C78.7901 144.263 78.8783 144.454 78.9664 144.646C79.0545 144.837 79.1426 145.033 79.2345 145.221C79.246 145.247 79.2537 145.267 79.269 145.29C79.3801 145.527 79.495 145.761 79.61 145.998C79.7096 146.197 79.8053 146.393 79.905 146.592C80.0505 146.883 80.1999 147.174 80.3532 147.465C80.4375 147.63 80.5256 147.795 80.6137 147.956C81.0083 148.695 81.4143 149.419 81.8434 150.139C81.92 150.27 81.9966 150.404 82.0771 150.534C82.0924 150.561 82.1077 150.588 82.1269 150.614C82.2457 150.81 82.3606 151.001 82.4832 151.193C82.5598 151.319 82.6402 151.442 82.7207 151.568C82.9927 152.001 83.2723 152.427 83.5635 152.848C83.6554 152.99 83.7512 153.124 83.847 153.262C84.0883 153.606 84.3335 153.951 84.5787 154.288C84.686 154.434 84.7932 154.576 84.9005 154.717C85.2108 155.131 85.5288 155.537 85.8544 155.943C86.0191 156.143 86.18 156.342 86.3486 156.541C86.7049 156.966 87.0726 157.388 87.4481 157.801C87.5515 157.92 87.6588 158.035 87.7699 158.154C87.8886 158.28 88.0074 158.41 88.1261 158.533C89.5627 160.042 91.3365 161.349 93.1791 162.333C93.2443 162.368 93.3094 162.398 93.3745 162.433C93.4396 162.464 93.5048 162.494 93.5699 162.521C93.6542 162.556 93.7423 162.594 93.8304 162.624C93.9108 162.655 93.9951 162.678 94.0756 162.705C94.2518 162.759 94.4319 162.797 94.6081 162.828C94.6924 162.839 94.7805 162.851 94.8648 162.858C95.9259 162.962 96.9258 162.636 97.7035 161.969C97.7878 161.897 97.872 161.82 97.9487 161.74C97.987 161.697 98.0253 161.659 98.0636 161.613L98.0827 161.594C98.3509 161.287 98.5846 160.931 98.7646 160.533C98.7915 160.479 98.8144 160.426 98.8336 160.372C98.8604 160.311 98.8834 160.249 98.9064 160.188C98.9179 160.161 98.9255 160.131 98.937 160.104C98.9562 160.046 98.9753 159.993 98.9907 159.931C98.9945 159.928 98.9945 159.92 98.9945 159.916C99.0213 159.839 99.0405 159.763 99.0596 159.682C99.075 159.617 99.0903 159.552 99.1018 159.487C99.4389 157.824 99.4044 156.031 99.2397 154.323C99.2205 154.124 99.2014 153.924 99.1746 153.725C99.1746 153.695 99.1669 153.66 99.1631 153.626C99.1516 153.518 99.1362 153.415 99.1248 153.308C99.1248 153.292 99.1248 153.273 99.1171 153.258C99.1056 153.158 99.0903 153.059 99.0788 152.959C99.052 152.752 99.0213 152.549 98.9907 152.342C98.9753 152.223 98.9562 152.109 98.937 151.994C98.8987 151.737 98.8566 151.484 98.8106 151.231C98.7646 150.952 98.7148 150.676 98.6689 150.4C98.5654 149.814 98.462 149.228 98.3662 148.642C98.3509 148.538 98.3317 148.431 98.3164 148.324C98.2934 148.186 98.2743 148.048 98.2513 147.906C98.2321 147.768 98.2092 147.63 98.19 147.488C98.1708 147.351 98.1517 147.209 98.1325 147.071C97.9831 145.91 97.9218 144.696 98.0827 143.543C98.0904 143.485 98.0981 143.431 98.1096 143.378C98.121 143.324 98.1287 143.271 98.144 143.217C98.1594 143.163 98.1709 143.114 98.1862 143.064C98.1977 143.014 98.2168 142.964 98.2321 142.914C98.2475 142.865 98.2666 142.819 98.2858 142.773C98.3088 142.715 98.3356 142.658 98.3624 142.604C98.4428 142.439 98.5348 142.29 98.6459 142.156C98.6765 142.121 98.7033 142.083 98.734 142.052C98.7646 142.018 98.7953 141.987 98.8298 141.953C98.8604 141.922 98.8911 141.891 98.9255 141.861C98.96 141.83 98.9945 141.803 99.029 141.777C99.0635 141.75 99.1018 141.723 99.1362 141.696C99.1746 141.669 99.2129 141.646 99.2512 141.623C99.301 141.593 99.3508 141.57 99.4006 141.543C99.4044 141.543 99.4082 141.539 99.4121 141.535C99.4351 141.524 99.458 141.516 99.481 141.505C99.4849 141.505 99.4887 141.501 99.4925 141.497C99.5078 141.489 99.5232 141.485 99.5347 141.478C99.5423 141.478 99.5462 141.474 99.5538 141.47C99.6956 141.413 99.845 141.367 100.002 141.336C100.048 141.328 100.094 141.321 100.14 141.313C100.209 141.301 100.282 141.294 100.354 141.294C100.408 141.29 100.462 141.286 100.515 141.286C100.688 141.286 100.864 141.298 101.044 141.328C101.224 141.359 101.404 141.405 101.592 141.462C103.523 142.098 104.818 143.546 105.994 145.098C106.135 145.29 106.277 145.477 106.415 145.673C106.488 145.772 106.561 145.876 106.63 145.975C106.679 146.052 106.733 146.125 106.783 146.201C106.852 146.301 106.917 146.4 106.982 146.504C107.262 146.925 107.53 147.351 107.786 147.783C107.852 147.891 107.917 148.002 107.982 148.109C108.756 149.431 109.441 150.798 110.1 152.181C110.196 152.381 110.288 152.576 110.38 152.775C110.522 153.078 110.664 153.384 110.805 153.691C111.231 154.606 111.648 155.522 112.073 156.438C116.107 165.061 115.291 173.792 112.901 182.58L112.882 182.568Z" fill="url(#paint12_linear_1295_313)"/>
<path d="M95.4779 103.162C99.9528 103.162 103.58 99.5344 103.58 95.0595C103.58 90.5845 99.9528 86.957 95.4779 86.957C91.003 86.957 87.3755 90.5845 87.3755 95.0595C87.3755 99.5344 91.003 103.162 95.4779 103.162Z" fill="url(#paint13_linear_1295_313)"/>
<defs>
<linearGradient id="paint0_linear_1295_313" x1="205.868" y1="81.0288" x2="205.868" y2="191.444" gradientUnits="userSpaceOnUse">
<stop offset="0.9999" stop-color="#63B6F9"/>
<stop offset="1" stop-color="#008AD6"/>
</linearGradient>
<linearGradient id="paint1_linear_1295_313" x1="50.6189" y1="81.0922" x2="50.6189" y2="191.507" gradientUnits="userSpaceOnUse">
<stop offset="0.986459" stop-color="#63B6F9"/>
<stop offset="1" stop-color="#005787"/>
</linearGradient>
<linearGradient id="paint2_linear_1295_313" x1="148.552" y1="86.4877" x2="148.552" y2="154.475" gradientUnits="userSpaceOnUse">
<stop stop-color="#0096D8"/>
<stop offset="1" stop-color="#2264A7"/>
</linearGradient>
<linearGradient id="paint3_linear_1295_313" x1="154.451" y1="86.4878" x2="154.451" y2="154.475" gradientUnits="userSpaceOnUse">
<stop stop-color="#0096D8"/>
<stop offset="1" stop-color="#2264A7"/>
</linearGradient>
<linearGradient id="paint4_linear_1295_313" x1="148.165" y1="86.4897" x2="148.165" y2="154.477" gradientUnits="userSpaceOnUse">
<stop stop-color="#0096D8"/>
<stop offset="1" stop-color="#2264A7"/>
</linearGradient>
<linearGradient id="paint5_linear_1295_313" x1="95.0912" y1="86.4876" x2="95.0912" y2="154.475" gradientUnits="userSpaceOnUse">
<stop stop-color="#0096D8"/>
<stop offset="1" stop-color="#2264A7"/>
</linearGradient>
<linearGradient id="paint6_linear_1295_313" x1="89.1916" y1="86.4878" x2="89.1916" y2="154.475" gradientUnits="userSpaceOnUse">
<stop stop-color="#0096D8"/>
<stop offset="1" stop-color="#2264A7"/>
</linearGradient>
<linearGradient id="paint7_linear_1295_313" x1="121.819" y1="81.6521" x2="121.819" y2="193.213" gradientUnits="userSpaceOnUse">
<stop offset="1" stop-color="#63B6F9"/>
<stop offset="1" stop-color="#008AD6"/>
</linearGradient>
<linearGradient id="paint8_linear_1295_313" x1="121.819" y1="81.6457" x2="121.819" y2="193.206" gradientUnits="userSpaceOnUse">
<stop offset="1" stop-color="#63B6F9"/>
<stop offset="1" stop-color="#008AD6"/>
</linearGradient>
<linearGradient id="paint9_linear_1295_313" x1="158.524" y1="94.9932" x2="158.524" y2="194.46" gradientUnits="userSpaceOnUse">
<stop stop-color="#0096D8"/>
<stop offset="1" stop-color="#2264A7"/>
</linearGradient>
<linearGradient id="paint10_linear_1295_313" x1="85.119" y1="94.9972" x2="85.119" y2="194.464" gradientUnits="userSpaceOnUse">
<stop stop-color="#0096D8"/>
<stop offset="1" stop-color="#2264A7"/>
</linearGradient>
<linearGradient id="paint11_linear_1295_313" x1="154.662" y1="94.9937" x2="154.662" y2="194.46" gradientUnits="userSpaceOnUse">
<stop stop-color="#0096D8"/>
<stop offset="1" stop-color="#2264A7"/>
</linearGradient>
<linearGradient id="paint12_linear_1295_313" x1="88.9804" y1="94.9932" x2="88.9804" y2="194.46" gradientUnits="userSpaceOnUse">
<stop stop-color="#0096D8"/>
<stop offset="1" stop-color="#2264A7"/>
</linearGradient>
<linearGradient id="paint13_linear_1295_313" x1="95.4779" y1="86.4897" x2="95.4779" y2="154.477" gradientUnits="userSpaceOnUse">
<stop stop-color="#0096D8"/>
<stop offset="1" stop-color="#2264A7"/>
</linearGradient>
</defs>
</svg>
