<svg width="283" height="283" viewBox="0 0 283 283" fill="none" xmlns="http://www.w3.org/2000/svg">
<path d="M280.175 234.708C187.731 178.775 95.2748 290.627 2.83008 234.708C2.83008 172.573 2.83008 110.432 2.83008 48.2964C95.2748 104.223 187.732 -7.62868 280.175 48.2964V234.708Z" fill="#CCCBCA"/>
<path d="M277.936 231.106C186.995 178.744 96.0738 286.068 5.14062 233.799C5.14062 173.183 5.14062 112.555 5.14062 51.9379C96.0738 104.214 186.995 -3.11065 277.936 49.2512V231.106Z" fill="#B02A3D"/>
<path d="M277.936 77.2105C186.995 24.8486 96.0738 132.173 5.14062 79.8971C5.14062 75.2377 5.14062 70.5773 5.14062 65.9178C96.0738 118.194 186.995 10.8693 277.936 63.2322V77.2105Z" fill="white"/>
<path d="M277.936 105.169C186.995 52.807 96.0738 160.136 5.14062 107.855C5.14062 103.195 5.14062 98.5357 5.14062 93.8753C96.0738 146.147 186.995 38.8268 277.936 91.1896V105.169Z" fill="white"/>
<path d="M277.936 133.13C186.995 80.7685 96.0738 188.096 5.14062 135.816C5.14062 131.157 5.14062 126.497 5.14062 121.837C96.0738 174.109 186.995 66.7882 277.936 119.15V133.13Z" fill="white"/>
<path d="M277.936 161.092C186.995 108.726 96.0738 216.054 5.14062 163.77C5.14062 159.119 5.14062 154.451 5.14062 149.799C96.0738 202.067 186.995 94.7467 277.936 147.106V161.092Z" fill="white"/>
<path d="M277.936 189.049C186.995 136.683 96.0738 244.011 5.14062 191.727C5.14062 187.076 5.14062 182.408 5.14062 177.756C96.0738 230.025 186.995 122.704 277.936 175.063V189.049Z" fill="white"/>
<path d="M277.936 217.007C186.995 164.645 96.0738 271.97 5.14062 219.687C5.14062 215.034 5.14062 210.367 5.14062 205.715C96.0738 257.983 186.995 150.659 277.936 203.021V217.007Z" fill="white"/>
<path d="M141.541 50.5664C96.0738 64.3101 50.6037 78.0777 5.14062 51.9362V149.796C50.6027 175.939 96.0738 162.17 141.541 148.417C141.541 115.803 141.541 83.1844 141.541 50.5664Z" fill="#434177"/>
<path d="M14.0537 68.4276C13.6464 69.5009 13.239 70.5662 12.8317 71.6235C12.8237 71.6235 12.8317 71.6544 12.8477 71.6704C12.8636 71.6863 12.8786 71.6933 12.8946 71.6933C13.9599 71.4268 15.0251 71.1452 16.0904 70.8397C17.1637 72.0847 18.2279 73.3067 19.3012 74.5048C19.3012 74.5048 19.3092 74.5207 19.3172 74.5207C19.3401 74.5367 19.3561 74.5207 19.3561 74.4978V74.4818C18.9488 73.0651 18.5334 71.6474 18.1271 70.2217C19.1993 69.8923 20.2656 69.5488 21.3379 69.1804C21.3459 69.1644 21.3538 69.1575 21.3459 69.1335C21.3379 69.1095 21.3299 69.1026 21.3069 69.0866C19.9911 68.5934 18.6752 68.0602 17.3593 67.5041C16.952 66.0785 16.5367 64.6458 16.1303 63.2131C16.1223 63.1812 16.0674 63.1582 16.0515 63.1812C15.6441 64.2544 15.2448 65.3267 14.8374 66.392C13.5216 65.7969 12.1977 65.1629 10.8829 64.505C10.8669 64.497 10.8439 64.489 10.8359 64.513C10.8359 64.513 10.8439 64.544 10.8519 64.5679C11.9162 65.8748 12.9884 67.1677 14.0537 68.4276Z" fill="white"/>
<path d="M36.4922 75.9949C36.0849 77.162 35.6785 78.3281 35.2702 79.4883C35.2702 79.4962 35.2782 79.5192 35.2862 79.5272C35.3021 79.5432 35.3261 79.5432 35.3331 79.5432C36.3984 79.01 37.4706 78.4699 38.5359 77.9058C39.6002 78.8922 40.6654 79.8557 41.7307 80.8111C41.7387 80.8191 41.7467 80.8191 41.7616 80.8191C41.7776 80.8191 41.7926 80.8111 41.7926 80.7881V80.7722C41.3853 79.4483 40.9789 78.1255 40.5706 76.8016C41.6358 76.2216 42.7011 75.6185 43.7664 75.0085C43.7893 74.9926 43.7973 74.9776 43.7893 74.9616C43.7734 74.9386 43.7664 74.9307 43.7504 74.9227C42.4345 74.727 41.1107 74.5073 39.7958 74.2647C39.3885 72.9339 38.9732 71.6021 38.5668 70.2712C38.5588 70.2393 38.5039 70.2243 38.4959 70.2553C38.0886 71.4303 37.6733 72.5975 37.2669 73.7636C35.9511 73.49 34.6272 73.1845 33.3124 72.855C33.3044 72.855 33.2894 72.855 33.2734 72.878C33.2734 72.894 33.2734 72.9099 33.2964 72.9249C34.3627 73.9662 35.4269 74.9926 36.4922 75.9949Z" fill="white"/>
<path d="M58.9375 78.5622C58.5301 79.8152 58.1148 81.0602 57.7085 82.2982C57.7085 82.3062 57.7085 82.3371 57.7244 82.3451C57.7404 82.3531 57.7644 82.3531 57.7714 82.3451C58.8356 81.6013 59.9099 80.8415 60.9742 80.0738C62.0394 80.8495 63.1047 81.6163 64.17 82.3681C64.178 82.376 64.1929 82.376 64.2009 82.376C64.2169 82.376 64.2409 82.3601 64.2409 82.3371C64.2409 82.3291 64.2409 82.3211 64.2409 82.3211C63.8335 81.0762 63.4182 79.8302 63.0109 78.5772C64.0761 77.7935 65.1494 76.9958 66.2136 76.1881C66.2296 76.1721 66.2366 76.1482 66.2296 76.1332C66.2216 76.1102 66.2136 76.1102 66.1907 76.1102C64.8748 76.1492 63.551 76.1811 62.2361 76.1891C61.8288 74.9361 61.4214 73.6832 61.0141 72.4302C60.9981 72.3983 60.9442 72.3983 60.9362 72.4302C60.5289 73.6832 60.1136 74.9361 59.7072 76.1811C58.3914 76.1651 57.0675 76.1262 55.7527 76.0633C55.7367 76.0633 55.7287 76.0713 55.7207 76.0943C55.7207 76.1102 55.7207 76.1252 55.7367 76.1412C56.8 76.9648 57.8722 77.7715 58.9375 78.5622Z" fill="white"/>
<path d="M81.3751 77.218C80.9677 78.5259 80.5524 79.8338 80.1461 81.1417C80.1461 81.1496 80.154 81.1646 80.169 81.1726C80.177 81.1806 80.192 81.1806 80.2159 81.1726C81.2812 80.2641 82.3465 79.3476 83.4118 78.4241C84.477 79.0431 85.5503 79.6541 86.6145 80.2561C86.6225 80.2641 86.6305 80.2561 86.6375 80.2561C86.6605 80.2561 86.6764 80.2331 86.6764 80.2092C86.6764 80.2092 86.6764 80.1932 86.6685 80.1932C86.2611 79.0031 85.8538 77.8201 85.4464 76.63C86.5117 75.6905 87.585 74.751 88.6492 73.7956C88.6652 73.7726 88.6722 73.7557 88.6652 73.7407C88.6572 73.7177 88.6492 73.7177 88.6253 73.7177C87.3104 73.9453 85.9936 74.156 84.6787 74.3527C84.2714 73.1626 83.856 71.9716 83.4487 70.7735C83.4407 70.7426 83.3858 70.7505 83.3708 70.7815C82.9635 72.0974 82.5561 73.4052 82.1488 74.7131C80.8339 74.8938 79.5091 75.0575 78.1942 75.2063C78.1713 75.2143 78.1623 75.2223 78.1543 75.2462C78.1543 75.2622 78.1543 75.2772 78.1703 75.2932C79.2375 75.9411 80.3098 76.5831 81.3751 77.218Z" fill="white"/>
<path d="M103.812 73.0021C103.404 74.3569 102.997 75.7047 102.59 77.0515C102.59 77.0595 102.59 77.0825 102.606 77.0905C102.614 77.0985 102.637 77.0905 102.653 77.0825C103.718 76.0571 104.783 75.0388 105.848 74.0045C106.914 74.5137 107.987 75.0228 109.051 75.532H109.083C109.099 75.532 109.114 75.501 109.114 75.4851C109.114 75.4771 109.114 75.4691 109.106 75.4621C108.699 74.311 108.299 73.1678 107.892 72.0157C108.957 70.9744 110.022 69.9331 111.088 68.8828C111.111 68.8598 111.111 68.8439 111.111 68.8279C111.095 68.8119 111.088 68.8039 111.071 68.8119C109.747 69.1484 108.431 69.4858 107.108 69.8143C106.701 68.6552 106.295 67.504 105.886 66.3529C105.878 66.322 105.823 66.3369 105.816 66.3689C105.409 67.7237 104.994 69.0715 104.586 70.4253C103.271 70.7388 101.947 71.0443 100.632 71.3338C100.616 71.3418 100.609 71.3498 100.593 71.3738C100.585 71.3967 100.593 71.4047 100.616 71.4207C101.682 71.9538 102.747 72.478 103.812 73.0021Z" fill="white"/>
<path d="M126.258 67.0047C125.85 68.3755 125.435 69.7532 125.029 71.124C125.029 71.124 125.029 71.1559 125.045 71.1639C125.061 71.1639 125.076 71.1559 125.092 71.148C126.157 70.0667 127.23 68.9785 128.295 67.8903C129.36 68.3525 130.424 68.8058 131.489 69.268C131.497 69.268 131.513 69.268 131.521 69.26C131.537 69.26 131.56 69.2371 131.56 69.2131C131.56 69.2131 131.56 69.1971 131.552 69.1891C131.145 68.062 130.738 66.9338 130.33 65.8056C131.394 64.7174 132.469 63.6212 133.533 62.532C133.549 62.509 133.549 62.493 133.549 62.4771C133.541 62.4531 133.533 62.4531 133.51 62.4611C132.194 62.8534 130.87 63.2448 129.555 63.6362C129.148 62.501 128.741 61.3728 128.333 60.2377C128.317 60.2147 128.263 60.2297 128.255 60.2607C127.847 61.6314 127.433 63.0092 127.026 64.38C125.71 64.7643 124.386 65.1477 123.071 65.5241C123.055 65.5321 123.048 65.5401 123.04 65.563C123.024 65.586 123.04 65.594 123.048 65.61C124.12 66.0802 125.186 66.5424 126.258 67.0047Z" fill="white"/>
<path d="M24.0544 85.8696C24.0464 85.8776 24.0544 85.8936 24.0624 85.9245C24.0853 85.9405 24.1013 85.9405 24.1093 85.9405C25.1736 85.5332 26.2468 85.1029 27.3121 84.6636C28.3774 85.7758 29.4426 86.865 30.5079 87.9373C30.5079 87.9373 30.5309 87.9453 30.5389 87.9453C30.5698 87.9612 30.5778 87.9373 30.5778 87.9213V87.9053C30.1705 86.5346 29.7551 85.1648 29.3488 83.794C30.4141 83.3318 31.4873 82.8545 32.5516 82.3533C32.5676 82.3374 32.5676 82.3224 32.5676 82.3224C32.5596 82.2915 32.5516 82.2755 32.5286 82.2755C31.2128 81.93 29.8889 81.5626 28.573 81.1713C28.1657 79.7935 27.7594 78.4148 27.351 77.029C27.3351 77.006 27.2811 76.9821 27.2732 77.006C26.8658 78.1332 26.4665 79.2614 26.0591 80.3895C24.7353 79.9513 23.4124 79.496 22.0876 79.0028C22.0796 79.0028 22.0646 79.0028 22.0566 79.0188C22.0566 79.0188 22.0566 79.0417 22.0726 79.0737C23.1379 80.2398 24.2111 81.3919 25.2754 82.5201C24.8691 83.6373 24.4617 84.7574 24.0544 85.8696Z" fill="white"/>
<path d="M46.4859 91.0805C46.4859 91.0805 46.4939 91.1034 46.5089 91.1274C46.5169 91.1354 46.5398 91.1434 46.5558 91.1354C47.6211 90.4854 48.6863 89.8275 49.7516 89.1456C50.8169 90.0232 51.8901 90.8928 52.9544 91.7384C52.9624 91.7384 52.9704 91.7384 52.9774 91.7464C53.0003 91.7464 53.0163 91.7234 53.0163 91.7074C53.0163 91.6994 53.0163 91.6915 53.0083 91.6915C52.601 90.4065 52.1936 89.1306 51.7863 87.8457C52.8516 87.1488 53.9248 86.444 54.9891 85.7311C55.0051 85.7082 55.021 85.6922 55.0051 85.6842C54.9971 85.6613 54.9891 85.6533 54.9661 85.6533C53.6503 85.5824 52.3344 85.4965 51.0195 85.3867C50.6122 84.0948 50.1969 82.8029 49.7895 81.51C49.7815 81.487 49.7266 81.4791 49.7107 81.502C49.3033 82.716 48.904 83.9301 48.4966 85.1431C47.1738 85.0023 45.8569 84.8456 44.5341 84.6579C44.5101 84.6499 44.5021 84.6579 44.4941 84.6819C44.4941 84.6819 44.4941 84.7048 44.5101 84.7288C45.5754 85.6533 46.6486 86.5608 47.7129 87.4533C47.3076 88.6684 46.8922 89.8744 46.4859 91.0805Z" fill="white"/>
<path d="M68.9303 91.7691C68.9303 91.7691 68.9303 91.7931 68.9463 91.816C68.9543 91.824 68.9782 91.824 68.9932 91.816C70.0585 90.9784 71.1237 90.1318 72.189 89.2712C73.2533 89.968 74.3275 90.6569 75.3918 91.3308H75.4228C75.4387 91.3228 75.4547 91.2989 75.4547 91.2839C75.4547 91.2839 75.4547 91.2679 75.4467 91.2679C75.0394 90.0539 74.64 88.8399 74.2327 87.6268C75.298 86.7573 76.3632 85.8807 77.4285 84.9871C77.4525 84.9642 77.4604 84.9482 77.4524 84.9402C77.4365 84.9172 77.4285 84.9083 77.4125 84.9083C76.0967 85.057 74.7728 85.1828 73.4579 85.2916C73.0506 84.0696 72.6353 82.8486 72.2289 81.6266C72.221 81.6036 72.166 81.6036 72.1581 81.6266C71.7507 82.9185 71.3354 84.2034 70.9291 85.4873C69.6132 85.5732 68.2893 85.6441 66.9745 85.699C66.9585 85.699 66.9515 85.707 66.9355 85.7299C66.9355 85.7299 66.9355 85.7529 66.9585 85.7768C68.0238 86.5057 69.089 87.2265 70.1543 87.9303C69.745 89.2163 69.3376 90.4932 68.9303 91.7691Z" fill="white"/>
<path d="M91.3686 89.0113C91.3686 89.0113 91.3766 89.0342 91.3846 89.0582C91.4006 89.0662 91.4156 89.0582 91.4315 89.0502C92.4968 88.0718 93.5701 87.0924 94.6343 86.097C95.6996 86.6691 96.7649 87.2252 97.8301 87.7733H97.8531H97.8611C97.877 87.7653 97.901 87.7343 97.901 87.7184C97.901 87.7184 97.901 87.7024 97.893 87.7104C97.4857 86.5433 97.0783 85.3762 96.671 84.2021C97.7353 83.2067 98.8085 82.2123 99.8738 81.202C99.8898 81.171 99.8898 81.155 99.8898 81.155C99.8818 81.1321 99.8738 81.1241 99.8508 81.1241C98.535 81.4216 97.2111 81.6952 95.8963 81.9697C95.4889 80.7946 95.0816 79.6195 94.6742 78.4454C94.6583 78.4215 94.6034 78.4375 94.5954 78.4614C94.188 79.8002 93.7727 81.1401 93.3664 82.4709C92.0505 82.7295 90.7267 82.9721 89.4118 83.1987C89.3958 83.1987 89.3888 83.2067 89.3809 83.2387C89.3809 83.2387 89.3809 83.2616 89.3968 83.2776C90.4621 83.8646 91.5354 84.4447 92.5996 85.0158C92.1903 86.3476 91.776 87.6794 91.3686 89.0113Z" fill="white"/>
<path d="M113.805 83.874C113.805 83.874 113.805 83.897 113.828 83.913C113.836 83.921 113.851 83.913 113.875 83.905C114.941 82.8397 116.005 81.7745 117.07 80.7022C118.135 81.1874 119.209 81.6736 120.273 82.1508C120.281 82.1429 120.289 82.1429 120.296 82.1429C120.319 82.1349 120.335 82.1039 120.335 82.0879C120.335 82.0879 120.335 82.072 120.327 82.08C119.92 80.9358 119.513 79.8007 119.105 78.6575C120.17 77.5923 121.243 76.512 122.308 75.4388C122.324 75.4078 122.324 75.3918 122.324 75.3918C122.316 75.3689 122.308 75.3609 122.285 75.3689C120.961 75.7443 119.645 76.1127 118.322 76.4811C117.915 75.3379 117.515 74.1938 117.108 73.0506C117.1 73.0267 117.045 73.0427 117.029 73.0736C116.622 74.4364 116.215 75.8072 115.807 77.1699C114.491 77.5304 113.167 77.8828 111.853 78.2272C111.83 78.2272 111.822 78.2432 111.814 78.2662C111.806 78.2742 111.814 78.2891 111.83 78.3051C112.894 78.7983 113.968 79.2915 115.032 79.7777C114.628 81.1405 114.213 82.5113 113.805 83.874Z" fill="white"/>
<path d="M12.8336 90.8607C12.8257 90.8687 12.8336 90.8996 12.8496 90.9156C12.8656 90.9316 12.8806 90.9395 12.8965 90.9395C13.9618 90.665 15.0271 90.3755 16.0923 90.07C17.1656 91.3159 18.2299 92.5449 19.3031 93.751C19.3031 93.759 19.3111 93.759 19.3191 93.759C19.3501 93.7749 19.358 93.767 19.358 93.736C19.358 93.736 19.358 93.728 19.358 93.72C18.9507 92.3023 18.5354 90.8846 18.129 89.459C19.2013 89.1295 20.2676 88.7861 21.3398 88.4177C21.3478 88.4017 21.3558 88.3947 21.3478 88.3707C21.3398 88.3468 21.3318 88.3398 21.3089 88.3238C19.993 87.8306 18.6771 87.2975 17.3613 86.7414C16.9539 85.3087 16.5386 83.875 16.1323 82.4424C16.1243 82.4184 16.0694 82.3874 16.0534 82.4104C15.6461 83.4837 15.2467 84.5639 14.8394 85.6292C13.5235 85.0342 12.1997 84.4002 10.8848 83.7422C10.8688 83.7343 10.8459 83.7263 10.8379 83.7502C10.8379 83.7662 10.8459 83.7812 10.8539 83.8051C11.9191 85.113 12.9924 86.4049 14.0567 87.6659C13.6473 88.7381 13.24 89.7954 12.8336 90.8607Z" fill="white"/>
<path d="M35.2702 98.7226C35.2702 98.7386 35.2782 98.7625 35.2862 98.7695C35.3021 98.7855 35.3261 98.7855 35.3331 98.7855C36.3984 98.2523 37.4706 97.6972 38.5359 97.1332C39.6002 98.1196 40.6654 99.091 41.7307 100.054H41.7616C41.7776 100.054 41.7926 100.054 41.7926 100.022C41.7926 100.022 41.7926 100.014 41.7926 100.006C41.3853 98.6826 40.9789 97.3598 40.5706 96.0359C41.6358 95.4559 42.7011 94.8529 43.7664 94.2429C43.7893 94.2269 43.7973 94.2119 43.7893 94.1959C43.7734 94.172 43.7664 94.164 43.7504 94.156C42.4345 93.9603 41.1107 93.7407 39.7958 93.4981C39.3885 92.1672 38.9732 90.8354 38.5668 89.4966C38.5588 89.4726 38.5039 89.4566 38.4959 89.4806C38.0886 90.6547 37.6733 91.8298 37.2669 92.9969C35.9511 92.7223 34.6272 92.4168 33.3124 92.0884C33.3044 92.0884 33.2894 92.0884 33.2734 92.1113C33.2734 92.1273 33.2734 92.1433 33.2964 92.1583C34.3617 93.1996 35.4269 94.2259 36.4912 95.2283C36.0849 96.3974 35.6775 97.5645 35.2702 98.7226Z" fill="white"/>
<path d="M57.7065 101.535C57.7065 101.558 57.7065 101.581 57.7225 101.589C57.7385 101.597 57.7624 101.597 57.7694 101.589C58.8337 100.838 59.9079 100.078 60.9722 99.3022C62.0375 100.086 63.1028 100.853 64.168 101.612H64.199C64.2149 101.612 64.2389 101.604 64.2389 101.573V101.558C63.8316 100.313 63.4162 99.0666 63.0089 97.8136C64.0742 97.0299 65.1474 96.2322 66.2117 95.4245C66.2277 95.4085 66.2347 95.3845 66.2277 95.3696C66.2207 95.3546 66.2117 95.3386 66.1887 95.3466C64.8729 95.3855 63.549 95.4175 62.2342 95.4255C61.8268 94.1725 61.4195 92.9195 61.0121 91.6586C60.9962 91.6346 60.9423 91.6346 60.9343 91.6586C60.5269 92.9116 60.1116 94.1645 59.7053 95.4175C58.3894 95.4015 57.0656 95.3626 55.7507 95.2997C55.7347 95.2997 55.7267 95.3077 55.7188 95.3306C55.7188 95.3466 55.7188 95.3616 55.7347 95.3776C56.8 96.2002 57.8723 97.0069 58.9375 97.7976C58.5292 99.0516 58.1139 100.297 57.7065 101.535Z" fill="white"/>
<path d="M80.1461 100.375C80.1461 100.391 80.154 100.413 80.169 100.413C80.177 100.421 80.192 100.421 80.2159 100.413C81.2812 99.498 82.3465 98.5815 83.4118 97.649C84.477 98.275 85.5503 98.886 86.6145 99.497C86.6225 99.489 86.6305 99.489 86.6375 99.489C86.6605 99.489 86.6764 99.473 86.6764 99.4421C86.6764 99.4421 86.6764 99.4261 86.6685 99.4341C86.2611 98.244 85.8538 97.053 85.4464 95.8629C86.5117 94.9234 87.585 93.9839 88.6492 93.0285C88.6652 93.0055 88.6722 92.9886 88.6652 92.9736C88.6582 92.9586 88.6492 92.9506 88.6253 92.9506C87.3104 93.1783 85.9936 93.3889 84.6787 93.5856C84.2714 92.3875 83.856 91.1965 83.4487 89.9984C83.4407 89.9755 83.3858 89.9824 83.3708 90.0064C82.9635 91.3223 82.5561 92.6381 82.1488 93.945C80.8339 94.1257 79.5091 94.2904 78.1942 94.4392C78.1713 94.4472 78.1623 94.4552 78.1543 94.4781C78.1543 94.4941 78.1543 94.5091 78.1703 94.5251C79.2355 95.175 80.3078 95.817 81.3731 96.4519C80.9677 97.7578 80.5524 99.0657 80.1461 100.375Z" fill="white"/>
<path d="M102.592 96.2883C102.592 96.3043 102.592 96.3273 102.608 96.3352C102.616 96.3432 102.638 96.3352 102.654 96.3273C103.72 95.3019 104.785 94.2676 105.85 93.2343C106.916 93.7514 107.989 94.2676 109.053 94.7768C109.061 94.7688 109.069 94.7688 109.085 94.7688C109.101 94.7608 109.116 94.7528 109.116 94.7219C109.116 94.7219 109.116 94.7059 109.108 94.7059C108.701 93.5548 108.301 92.4036 107.894 91.2525C108.959 90.2112 110.023 89.1699 111.09 88.1196C111.113 88.0966 111.113 88.0807 111.113 88.0647C111.097 88.0487 111.09 88.0417 111.073 88.0487C109.749 88.3852 108.433 88.7216 107.11 89.0511C106.703 87.892 106.297 86.7329 105.888 85.5817C105.88 85.5588 105.825 85.5737 105.818 85.5977C105.411 86.9525 104.996 88.3073 104.588 89.6621C103.272 89.9756 101.949 90.2811 100.634 90.5706C100.618 90.5786 100.611 90.5866 100.595 90.6106C100.587 90.6335 100.595 90.6415 100.618 90.6575C101.683 91.1906 102.748 91.7148 103.814 92.2389C103.406 93.5947 102.999 94.9415 102.592 96.2883Z" fill="white"/>
<path d="M125.029 90.3588C125.029 90.3747 125.029 90.3977 125.045 90.4057C125.061 90.4057 125.076 90.4057 125.092 90.3897C126.157 89.3015 127.23 88.2123 128.295 87.116C129.36 87.5863 130.424 88.0485 131.489 88.5098C131.497 88.5018 131.513 88.5018 131.521 88.4938C131.537 88.4938 131.56 88.4778 131.56 88.4469C131.56 88.4469 131.56 88.4309 131.552 88.4309C131.145 87.3027 130.738 86.1676 130.33 85.0394C131.394 83.9512 132.469 82.855 133.533 81.7657C133.549 81.7428 133.549 81.7268 133.549 81.7108C133.541 81.6869 133.533 81.6869 133.51 81.6949C132.194 82.0872 130.87 82.4786 129.555 82.8699C129.148 81.7348 128.741 80.5996 128.333 79.4635C128.317 79.4475 128.263 79.4635 128.255 79.4864C127.847 80.8652 127.433 82.235 127.026 83.6137C125.71 83.9981 124.386 84.3815 123.071 84.7579C123.055 84.7659 123.048 84.7739 123.04 84.7968C123.024 84.8208 123.04 84.8288 123.048 84.8437C124.121 85.314 125.187 85.7752 126.259 86.2375C125.85 87.6092 125.436 88.988 125.029 90.3588Z" fill="white"/>
<path d="M27.6346 96.3899C27.6106 96.3429 27.5637 96.3349 27.5487 96.3669C27.1414 97.4941 26.742 98.6222 26.3347 99.7504C25.0188 99.3191 23.695 98.8658 22.3801 98.3876C22.3572 98.3796 22.3412 98.3796 22.3412 98.3796C22.3332 98.3956 22.3412 98.4265 22.3492 98.4345C23.4145 99.6096 24.4867 100.761 25.552 101.888C25.1446 103.008 24.7373 104.119 24.33 105.223C24.322 105.247 24.33 105.263 24.338 105.278C24.3619 105.294 24.3779 105.294 24.3849 105.294C25.4491 104.887 26.5234 104.464 27.5877 104.025C28.6529 105.123 29.7262 106.211 30.7905 107.276C30.8064 107.292 30.8064 107.292 30.8134 107.292C30.8294 107.3 30.8604 107.292 30.8604 107.276C30.8604 107.26 30.8524 107.244 30.8524 107.244C30.445 105.881 30.0377 104.519 29.6304 103.156C30.6956 102.686 31.7689 102.192 32.8331 101.691C32.8411 101.683 32.8491 101.66 32.8411 101.644C32.8411 101.644 32.8182 101.62 32.8022 101.62C31.4863 101.284 30.1625 100.915 28.8476 100.524C28.4413 99.1544 28.0419 97.7756 27.6346 96.3899Z" fill="white"/>
<path d="M50.0721 100.807C50.0561 100.767 50.0092 100.76 49.9862 100.799C49.5789 102.021 49.1795 103.234 48.7722 104.448C47.4563 104.316 46.1325 104.151 44.8176 103.97C44.8017 103.97 44.7787 103.97 44.7787 103.97C44.7707 103.993 44.7787 104.017 44.7867 104.025C45.851 104.958 46.9242 105.866 47.9895 106.759C47.5821 107.965 47.1758 109.171 46.7675 110.369C46.7595 110.393 46.7675 110.409 46.7834 110.416C46.7914 110.432 46.7994 110.432 46.8064 110.432C46.8134 110.432 46.8294 110.432 46.8294 110.432C47.8946 109.782 48.9599 109.124 50.0252 108.442C51.0984 109.318 52.1637 110.173 53.236 111.019C53.236 111.019 53.2439 111.027 53.2519 111.027C53.2829 111.027 53.2989 111.011 53.2989 110.995C53.2989 110.979 53.2909 110.972 53.2909 110.972C52.8835 109.696 52.4842 108.419 52.0768 107.134C53.1421 106.437 54.2074 105.724 55.2726 104.995C55.2806 104.995 55.2886 104.973 55.2806 104.957C55.2806 104.957 55.2647 104.934 55.2407 104.934C53.9258 104.871 52.609 104.785 51.2941 104.683C50.8868 103.392 50.4794 102.099 50.0721 100.807Z" fill="white"/>
<path d="M70.4258 107.189C70.0185 108.466 69.6191 109.734 69.2118 111.011C69.2038 111.034 69.2118 111.05 69.2198 111.058C69.2357 111.066 69.2587 111.066 69.2667 111.058C70.332 110.22 71.3972 109.381 72.4625 108.52C73.5358 109.209 74.601 109.89 75.6733 110.556C75.6733 110.556 75.6813 110.564 75.6972 110.564C75.7202 110.564 75.7442 110.541 75.7442 110.541C75.7442 110.509 75.7282 110.509 75.7282 110.509C75.3209 109.287 74.9215 108.081 74.5142 106.868C75.5794 105.999 76.6447 105.114 77.71 104.214C77.7259 104.206 77.7329 104.183 77.7259 104.167C77.7259 104.167 77.703 104.151 77.686 104.159C76.3701 104.3 75.0473 104.432 73.7314 104.542C73.3241 103.32 72.9098 102.098 72.5024 100.877C72.4945 100.838 72.4395 100.846 72.4326 100.885C72.0252 102.17 71.6179 103.454 71.2105 104.738C69.8947 104.832 68.5708 104.903 67.255 104.957C67.239 104.965 67.216 104.973 67.216 104.973C67.208 104.996 67.216 105.02 67.232 105.028C68.2953 105.756 69.3605 106.476 70.4258 107.189Z" fill="white"/>
<path d="M92.8634 104.236C92.456 105.566 92.0567 106.89 91.6493 108.214C91.6413 108.246 91.6493 108.261 91.6573 108.261C91.6803 108.269 91.6962 108.261 91.7042 108.253C92.7695 107.282 93.8428 106.303 94.907 105.316C95.9723 105.88 97.0446 106.428 98.1098 106.976H98.1328C98.1557 106.968 98.1717 106.953 98.1717 106.937C98.1717 106.921 98.1717 106.913 98.1717 106.913C97.7644 105.747 97.3491 104.587 96.9427 103.421C98.015 102.419 99.0812 101.416 100.154 100.398C100.161 100.39 100.169 100.359 100.161 100.351C100.154 100.343 100.139 100.335 100.123 100.343C98.8067 100.632 97.4828 100.914 96.168 101.189C95.7606 100.013 95.3533 98.8383 94.946 97.6642C94.93 97.6323 94.8751 97.6403 94.8671 97.6802C94.4598 99.019 94.0534 100.359 93.6451 101.69C92.3212 101.948 91.0054 102.191 89.6825 102.426C89.6745 102.426 89.6596 102.433 89.6596 102.433C89.6516 102.465 89.6596 102.48 89.6675 102.488C90.7328 103.084 91.7981 103.663 92.8634 104.236Z" fill="white"/>
<path d="M117.384 92.247C117.376 92.2161 117.313 92.231 117.305 92.271C116.898 93.6418 116.499 95.0045 116.091 96.3673C114.775 96.7277 113.452 97.0802 112.137 97.4246C112.121 97.4326 112.098 97.4406 112.09 97.4556C112.09 97.4715 112.098 97.4945 112.106 97.4945C113.171 97.9957 114.244 98.4889 115.309 98.9741C114.901 100.337 114.495 101.7 114.087 103.054C114.079 103.086 114.087 103.094 114.103 103.101C114.111 103.109 114.119 103.101 114.127 103.101C114.127 103.101 114.135 103.101 114.149 103.085C115.215 102.028 116.28 100.971 117.345 99.9056C118.418 100.384 119.483 100.853 120.556 101.323C120.564 101.331 120.564 101.331 120.564 101.331C120.595 101.323 120.611 101.308 120.611 101.292C120.611 101.269 120.611 101.269 120.611 101.269C120.204 100.125 119.788 98.9901 119.381 97.8619C120.454 96.7807 121.52 95.7004 122.592 94.6192C122.6 94.6032 122.608 94.5802 122.6 94.5643C122.592 94.5563 122.584 94.5563 122.561 94.5643C121.245 94.9396 119.929 95.308 118.613 95.6764C118.206 94.5343 117.791 93.3902 117.384 92.247Z" fill="white"/>
<path d="M16.4649 101.784C16.457 101.745 16.402 101.713 16.3941 101.753C15.9867 102.825 15.5794 103.898 15.172 104.972C13.8482 104.377 12.5323 103.75 11.2095 103.093C11.2015 103.085 11.1865 103.085 11.1865 103.101C11.1705 103.117 11.1865 103.14 11.1945 103.155C12.2598 104.463 13.325 105.748 14.3893 107.008C13.982 108.081 13.5826 109.139 13.1753 110.204C13.1673 110.22 13.1753 110.243 13.1833 110.251C13.1993 110.274 13.2232 110.291 13.2302 110.274C14.2955 110.007 15.3687 109.718 16.433 109.404C17.4973 110.642 18.5625 111.863 19.6278 113.062C19.6358 113.062 19.6438 113.07 19.6588 113.078C19.6817 113.086 19.6897 113.086 19.6897 113.055C19.6897 113.039 19.6897 113.032 19.6897 113.032C19.2824 111.623 18.876 110.205 18.4677 108.787C19.533 108.451 20.6062 108.098 21.6705 107.722C21.6865 107.722 21.6934 107.706 21.6865 107.683C21.6865 107.667 21.6635 107.652 21.6475 107.643C20.3317 107.15 19.0078 106.625 17.6929 106.07C17.2876 104.642 16.8723 103.216 16.4649 101.784Z" fill="white"/>
<path d="M38.9116 108.763C38.8956 108.717 38.8417 108.709 38.8337 108.747C38.4264 109.915 38.027 111.089 37.6197 112.256C36.2958 111.989 34.98 111.684 33.6571 111.363C33.6411 111.355 33.6252 111.363 33.6172 111.379C33.6172 111.395 33.6172 111.418 33.6332 111.426C34.6984 112.467 35.7707 113.486 36.836 114.488C36.4286 115.654 36.0213 116.821 35.6139 117.981C35.606 118.004 35.6139 118.02 35.6219 118.028C35.6459 118.051 35.6619 118.051 35.6689 118.044C36.7331 117.504 37.8074 116.956 38.8716 116.392C39.9369 117.37 41.0022 118.334 42.0675 119.289H42.0984C42.1144 119.297 42.1383 119.289 42.1383 119.265C42.1383 119.249 42.1383 119.242 42.1383 119.242C41.731 117.927 41.3157 116.603 40.9083 115.288C41.9816 114.701 43.0469 114.09 44.1191 113.471C44.1271 113.463 44.1351 113.448 44.1271 113.424C44.1191 113.408 44.1111 113.4 44.0882 113.4C42.7723 113.204 41.4485 112.993 40.1336 112.75C39.7263 111.418 39.3189 110.094 38.9116 108.763Z" fill="white"/>
<path d="M61.3481 110.853C61.3401 110.814 61.2852 110.814 61.2693 110.853C60.8619 112.106 60.4626 113.359 60.0552 114.604C58.7324 114.596 57.4165 114.557 56.0927 114.502C56.0927 114.502 56.0607 114.51 56.0527 114.525C56.0527 114.548 56.0527 114.564 56.0687 114.572C57.133 115.395 58.2062 116.202 59.2715 116.992C58.8642 118.238 58.4568 119.483 58.0495 120.728C58.0415 120.751 58.0495 120.767 58.0655 120.775C58.0814 120.791 58.0884 120.791 58.1124 120.775C59.1777 120.024 60.2429 119.264 61.3082 118.488C62.3735 119.263 63.4467 120.031 64.511 120.782H64.5339C64.5569 120.782 64.5729 120.774 64.5729 120.751C64.5729 120.735 64.5729 120.728 64.5729 120.728C64.1655 119.482 63.7512 118.237 63.3439 117C64.4091 116.21 65.4824 115.403 66.5467 114.588C66.5626 114.58 66.5776 114.565 66.5626 114.541C66.5547 114.525 66.5467 114.518 66.5307 114.518C65.2158 114.565 63.891 114.596 62.5761 114.612C62.1708 113.359 61.7555 112.106 61.3481 110.853Z" fill="white"/>
<path d="M83.7866 109.147C83.7786 109.108 83.7237 109.116 83.7167 109.155C83.3094 110.47 82.894 111.778 82.4867 113.086C81.1708 113.274 79.847 113.439 78.5311 113.587C78.5231 113.595 78.5082 113.603 78.4922 113.618C78.4922 113.641 78.4922 113.658 78.5152 113.665C79.5804 114.315 80.6457 114.957 81.711 115.592C81.3036 116.9 80.8963 118.208 80.4889 119.508C80.4889 119.532 80.4889 119.548 80.5049 119.555C80.5209 119.562 80.5439 119.563 80.5518 119.547C81.6171 118.638 82.6904 117.714 83.7556 116.782C84.8209 117.408 85.8862 118.019 86.9504 118.622C86.9584 118.622 86.9664 118.622 86.9824 118.614C86.9984 118.614 87.0133 118.606 87.0133 118.575V118.552C86.606 117.369 86.1987 116.187 85.7913 114.996C86.8566 114.057 87.9209 113.108 88.9871 112.146C89.0101 112.138 89.0101 112.123 89.0101 112.099C88.9941 112.083 88.9871 112.076 88.9702 112.083C87.6543 112.31 86.3305 112.521 85.0156 112.725C84.6092 111.536 84.1949 110.338 83.7866 109.147Z" fill="white"/>
<path d="M106.232 104.69C106.216 104.651 106.161 104.667 106.153 104.706C105.746 106.061 105.331 107.416 104.924 108.763C103.608 109.083 102.292 109.389 100.976 109.679C100.953 109.687 100.945 109.695 100.938 109.718C100.938 109.734 100.937 109.749 100.953 109.757C102.019 110.29 103.092 110.822 104.156 111.348C103.749 112.694 103.334 114.041 102.927 115.388C102.927 115.411 102.927 115.435 102.943 115.435C102.959 115.451 102.974 115.443 102.99 115.427C104.055 114.401 105.129 113.367 106.193 112.333C107.258 112.85 108.323 113.358 109.388 113.867C109.404 113.859 109.412 113.859 109.42 113.859C109.436 113.851 109.459 113.837 109.459 113.813C109.459 113.813 109.459 113.79 109.451 113.797C109.043 112.645 108.636 111.502 108.229 110.35C109.293 109.309 110.367 108.26 111.431 107.209C111.447 107.193 111.447 107.178 111.447 107.154C111.439 107.138 111.431 107.138 111.408 107.138C110.093 107.483 108.769 107.82 107.454 108.149C107.047 107.001 106.639 105.842 106.232 104.69Z" fill="white"/>
<path d="M128.669 98.5596C128.661 98.5286 128.607 98.5436 128.591 98.5825C128.183 99.9613 127.776 101.331 127.369 102.702C126.053 103.085 124.729 103.47 123.414 103.853C123.391 103.853 123.383 103.869 123.375 103.884C123.375 103.908 123.375 103.924 123.391 103.924C124.456 104.394 125.529 104.863 126.594 105.326C126.186 106.696 125.772 108.074 125.365 109.445C125.365 109.468 125.365 109.484 125.388 109.484C125.396 109.492 125.412 109.492 125.435 109.468C126.5 108.387 127.564 107.298 128.63 106.21C129.695 106.671 130.768 107.126 131.833 107.588C131.841 107.58 131.849 107.58 131.856 107.58C131.879 107.572 131.896 107.557 131.896 107.533C131.896 107.517 131.896 107.51 131.888 107.51C131.481 106.382 131.074 105.255 130.666 104.127C131.731 103.03 132.805 101.942 133.869 100.845C133.885 100.829 133.885 100.814 133.885 100.79C133.877 100.782 133.862 100.774 133.854 100.774C132.538 101.173 131.214 101.565 129.899 101.956C129.492 100.823 129.077 99.6947 128.669 98.5596Z" fill="white"/>
<path d="M17.9084 125.085C17.501 123.668 17.0937 122.242 16.6864 120.809C16.6704 120.762 16.6235 120.746 16.6075 120.778C16.2002 121.852 15.7928 122.924 15.3855 123.997C14.0696 123.41 12.7458 122.783 11.4309 122.133C11.408 122.117 11.392 122.117 11.392 122.133C11.384 122.157 11.392 122.173 11.4 122.188C12.4642 123.488 13.5375 124.772 14.6028 126.041C14.1954 127.105 13.7891 128.171 13.3807 129.228C13.3728 129.251 13.3807 129.259 13.3967 129.291C13.4047 129.299 13.4127 129.299 13.4197 129.307C13.4277 129.307 13.4436 129.315 13.4436 129.315C14.5089 129.041 15.5812 128.742 16.6464 128.43C17.7117 129.667 18.785 130.889 19.8492 132.087C19.8572 132.095 19.8652 132.095 19.8652 132.095C19.8652 132.095 19.8652 132.095 19.8732 132.103C19.8962 132.111 19.9121 132.095 19.9121 132.08C19.9121 132.057 19.9041 132.049 19.9041 132.049C19.4968 130.639 19.0975 129.23 18.6901 127.812C19.7554 127.468 20.8207 127.115 21.8859 126.732C21.8939 126.732 21.9019 126.716 21.8939 126.692C21.8939 126.676 21.8779 126.661 21.854 126.653C20.5391 126.158 19.2233 125.64 17.9084 125.085Z" fill="white"/>
<path d="M40.3438 131.719C39.9364 130.388 39.5301 129.064 39.1217 127.732C39.1058 127.685 39.0588 127.677 39.0439 127.716C38.6365 128.891 38.2292 130.057 37.8219 131.233C36.506 130.959 35.1821 130.668 33.8663 130.348C33.8503 130.34 33.8274 130.34 33.8274 130.356C33.8194 130.379 33.8274 130.395 33.8433 130.411C34.9086 131.445 35.9739 132.463 37.0391 133.466C36.6318 134.632 36.2324 135.799 35.8251 136.958C35.8091 136.982 35.8251 136.99 35.8331 137.013C35.8491 137.029 35.872 137.029 35.88 137.029C36.9533 136.489 38.0185 135.933 39.0908 135.361C40.1561 136.348 41.2213 137.312 42.2866 138.255C42.2866 138.255 42.2946 138.255 42.3026 138.271C42.3335 138.271 42.3495 138.255 42.3495 138.239C42.3495 138.208 42.3415 138.208 42.3415 138.208C41.9342 136.888 41.5348 135.572 41.1275 134.25C42.1928 133.663 43.258 133.052 44.3233 132.433C44.3393 132.425 44.3463 132.41 44.3393 132.386C44.3393 132.37 44.3163 132.363 44.3003 132.355C42.9835 132.165 41.6606 131.953 40.3438 131.719Z" fill="white"/>
<path d="M62.7823 133.535C62.3749 132.29 61.9676 131.037 61.5602 129.784C61.5443 129.744 61.4973 129.744 61.4814 129.784C61.074 131.037 60.6677 132.29 60.2594 133.543C58.9435 133.527 57.6276 133.496 56.3128 133.441C56.2888 133.441 56.2728 133.449 56.2728 133.465C56.2649 133.488 56.2728 133.504 56.2808 133.512C57.3461 134.334 58.4114 135.133 59.4766 135.924C59.0693 137.177 58.6699 138.426 58.2626 139.664C58.2546 139.68 58.2626 139.696 58.2706 139.711C58.2936 139.727 58.3095 139.727 58.3175 139.727C59.3828 138.959 60.456 138.207 61.5203 137.419C62.5856 138.207 63.6578 138.959 64.7231 139.711H64.7461C64.769 139.711 64.793 139.695 64.793 139.679C64.793 139.663 64.785 139.648 64.785 139.648C64.3777 138.411 63.9703 137.169 63.563 135.924C64.6283 135.133 65.7015 134.326 66.7658 133.512C66.7658 133.512 66.7818 133.489 66.7738 133.465C66.7738 133.449 66.7508 133.441 66.7348 133.441C65.422 133.496 64.0981 133.528 62.7823 133.535Z" fill="white"/>
<path d="M85.2198 131.624C84.8124 130.434 84.4051 129.235 83.9978 128.045C83.9898 128.006 83.9428 128.014 83.9189 128.053C83.5115 129.369 83.1122 130.677 82.7048 131.993C81.389 132.173 80.0651 132.345 78.7493 132.494C78.7263 132.494 78.7024 132.51 78.7103 132.525C78.7024 132.548 78.7103 132.556 78.7183 132.572C79.7836 133.222 80.8569 133.864 81.9221 134.491C81.5148 135.798 81.1074 137.106 80.7001 138.41C80.6921 138.441 80.7001 138.441 80.7161 138.457C80.7321 138.473 80.747 138.473 80.763 138.457C81.8283 137.545 82.8935 136.621 83.9588 135.689C85.0311 136.308 86.0973 136.918 87.1696 137.521H87.1856C87.2175 137.513 87.2325 137.49 87.2325 137.474C87.2325 137.458 87.2245 137.451 87.2245 137.451C86.8172 136.268 86.4178 135.078 86.0105 133.895C87.0757 132.947 88.14 132 89.2053 131.036C89.2133 131.028 89.2213 131.013 89.2133 130.989C89.2133 130.973 89.1973 130.973 89.1743 130.973C87.8585 131.202 86.5356 131.421 85.2198 131.624Z" fill="white"/>
<path d="M107.665 127.025C107.258 125.874 106.842 124.723 106.436 123.572C106.428 123.533 106.381 123.541 106.365 123.588C105.958 124.942 105.55 126.29 105.143 127.644C103.827 127.958 102.503 128.263 101.189 128.561C101.173 128.569 101.15 128.584 101.15 128.592C101.142 128.622 101.15 128.638 101.166 128.638C102.231 129.171 103.295 129.703 104.361 130.22C103.954 131.575 103.555 132.923 103.147 134.269C103.131 134.292 103.147 134.3 103.155 134.324C103.171 134.324 103.194 134.324 103.202 134.308C104.268 133.283 105.333 132.249 106.397 131.215C107.47 131.732 108.536 132.241 109.608 132.751C109.608 132.743 109.616 132.743 109.624 132.743C109.656 132.735 109.664 132.711 109.664 132.696V132.673C109.256 131.522 108.849 130.379 108.442 129.227C109.506 128.185 110.579 127.136 111.645 126.086C111.661 126.07 111.668 126.055 111.661 126.031C111.661 126.015 111.638 126.015 111.622 126.015C110.304 126.359 108.981 126.696 107.665 127.025Z" fill="white"/>
<path d="M134.057 119.646C132.741 120.039 131.417 120.43 130.102 120.821C129.695 119.694 129.288 118.558 128.88 117.423C128.864 117.392 128.809 117.407 128.801 117.446C128.394 118.825 127.987 120.194 127.579 121.565C126.256 121.957 124.94 122.341 123.617 122.716C123.609 122.716 123.594 122.732 123.586 122.747C123.586 122.77 123.586 122.787 123.602 122.794C124.666 123.264 125.731 123.726 126.797 124.188C126.389 125.567 125.99 126.936 125.583 128.307C125.575 128.33 125.583 128.338 125.591 128.354C125.614 128.354 125.63 128.354 125.638 128.346C126.703 127.258 127.776 126.162 128.84 125.072C129.906 125.535 130.971 125.997 132.036 126.458C132.044 126.45 132.059 126.45 132.067 126.45C132.09 126.442 132.106 126.411 132.106 126.395C132.106 126.379 132.106 126.371 132.106 126.371C131.699 125.244 131.284 124.116 130.877 122.988C131.95 121.892 133.016 120.795 134.088 119.699C134.096 119.691 134.104 119.676 134.096 119.652C134.096 119.638 134.073 119.638 134.057 119.646Z" fill="white"/>
<path d="M17.633 144.125C17.2257 142.7 16.8183 141.275 16.411 139.833C16.395 139.802 16.3481 139.77 16.3411 139.802C15.9338 140.884 15.5184 141.964 15.1111 143.029C13.7962 142.433 12.4714 141.807 11.1565 141.149C11.1406 141.133 11.1166 141.133 11.1166 141.149C11.1086 141.149 11.1166 141.18 11.1246 141.196C12.1898 142.511 13.2631 143.796 14.3274 145.065C13.92 146.13 13.5127 147.195 13.1054 148.26C13.0974 148.26 13.1054 148.291 13.1213 148.307C13.1373 148.323 13.1523 148.323 13.1762 148.323C14.2415 148.057 15.3068 147.774 16.372 147.462C17.4373 148.699 18.5106 149.921 19.5748 151.111C19.5828 151.142 19.5828 151.142 19.5908 151.142H19.5988C19.6218 151.158 19.6377 151.142 19.6377 151.126C19.6377 151.11 19.6298 151.095 19.6298 151.095C19.2224 149.669 18.8231 148.26 18.4157 146.85C19.481 146.505 20.5463 146.146 21.6105 145.77C21.6185 145.77 21.6265 145.754 21.6185 145.739C21.6185 145.723 21.6025 145.708 21.5786 145.708C20.2647 145.207 18.9489 144.689 17.633 144.125Z" fill="white"/>
<path d="M40.0713 150.816C39.6639 149.501 39.2576 148.154 38.8493 146.822C38.8333 146.791 38.7864 146.775 38.7714 146.806C38.3641 147.981 37.9567 149.156 37.5494 150.33C36.2335 150.063 34.9097 149.75 33.5948 149.436C33.5788 149.421 33.5559 149.436 33.5559 149.452C33.5479 149.452 33.5559 149.484 33.5718 149.484C34.6371 150.534 35.7024 151.551 36.7676 152.553C36.3603 153.729 35.961 154.888 35.5536 156.047C35.5456 156.063 35.5536 156.078 35.5616 156.094C35.5776 156.11 35.6005 156.125 35.6085 156.11C36.6738 155.578 37.7391 155.028 38.8043 154.465C39.8766 155.437 40.9429 156.407 42.0151 157.363C42.0151 157.363 42.0231 157.379 42.0381 157.379C42.062 157.379 42.085 157.363 42.085 157.348C42.085 157.333 42.069 157.317 42.069 157.317C41.6617 156.002 41.2623 154.685 40.855 153.354C41.9203 152.774 42.9845 152.164 44.0498 151.537C44.0658 151.537 44.0738 151.506 44.0658 151.506C44.0658 151.49 44.0418 151.475 44.0258 151.475C42.71 151.286 41.3871 151.067 40.0713 150.816Z" fill="white"/>
<path d="M62.5088 152.693C62.1014 151.44 61.7021 150.186 61.2947 148.933C61.2718 148.902 61.2159 148.902 61.2089 148.933C60.8016 150.186 60.4022 151.44 59.9949 152.693C58.679 152.677 57.3552 152.646 56.0403 152.583C56.0173 152.583 56.0014 152.599 56.0014 152.614C55.9934 152.614 56.0014 152.646 56.0093 152.646C57.0746 153.476 58.1399 154.275 59.2051 155.074C58.7978 156.327 58.3985 157.564 57.9911 158.801C57.9831 158.832 57.9911 158.832 57.9991 158.848C58.0221 158.864 58.038 158.864 58.046 158.848C59.1113 158.112 60.1846 157.345 61.2488 156.578C62.3141 157.346 63.3874 158.112 64.4516 158.864C64.4516 158.881 64.4676 158.881 64.4756 158.881C64.4985 158.881 64.5225 158.849 64.5225 158.833C64.5225 158.817 64.5145 158.817 64.5145 158.802C64.1072 157.565 63.6919 156.327 63.2855 155.09C64.3578 154.292 65.423 153.492 66.4963 152.662C66.5043 152.662 66.5123 152.63 66.5043 152.63C66.5043 152.614 66.4813 152.599 66.4653 152.599C65.1475 152.662 63.8246 152.677 62.5088 152.693Z" fill="white"/>
<path d="M84.9541 150.815C84.5467 149.625 84.1314 148.434 83.7251 147.228C83.7171 147.197 83.6542 147.212 83.6462 147.244C83.2389 148.56 82.8395 149.876 82.4322 151.175C81.1163 151.363 79.7925 151.536 78.4766 151.678C78.4606 151.678 78.4377 151.694 78.4297 151.709C78.4297 151.709 78.4377 151.74 78.4457 151.756C79.5109 152.399 80.5842 153.055 81.6485 153.682C81.2411 154.997 80.8348 156.298 80.4264 157.598C80.4185 157.614 80.4264 157.629 80.4424 157.645C80.4584 157.662 80.4734 157.645 80.4893 157.629C81.5546 156.721 82.6199 155.813 83.6851 154.888C84.7584 155.498 85.8237 156.11 86.8959 156.706C86.8959 156.721 86.9039 156.721 86.9119 156.721C86.9429 156.721 86.9508 156.69 86.9508 156.674C86.9508 156.658 86.9508 156.658 86.9508 156.658C86.5435 155.468 86.1441 154.276 85.7368 153.086C86.8021 152.147 87.8673 151.191 88.9326 150.237C88.9406 150.22 88.9486 150.205 88.9406 150.189C88.9406 150.173 88.9246 150.173 88.9017 150.173C87.5858 150.408 86.2699 150.611 84.9541 150.815Z" fill="white"/>
<path d="M107.392 146.255C106.984 145.096 106.569 143.937 106.162 142.779C106.154 142.747 106.099 142.763 106.092 142.795C105.684 144.157 105.277 145.505 104.87 146.866C103.546 147.18 102.23 147.477 100.907 147.775C100.899 147.791 100.875 147.791 100.867 147.822C100.867 147.822 100.867 147.839 100.89 147.854C101.955 148.386 103.021 148.918 104.086 149.451C103.679 150.799 103.279 152.145 102.872 153.493C102.864 153.509 102.872 153.524 102.88 153.524C102.896 153.54 102.92 153.54 102.927 153.508C103.991 152.489 105.056 151.472 106.122 150.438C107.195 150.956 108.26 151.457 109.332 151.957C109.332 151.973 109.34 151.973 109.355 151.973C109.378 151.957 109.386 151.942 109.386 151.926C109.386 151.91 109.386 151.895 109.386 151.895C108.979 150.751 108.572 149.592 108.164 148.449C109.23 147.416 110.295 146.365 111.36 145.301C111.383 145.285 111.391 145.27 111.383 145.254C111.367 145.254 111.36 145.238 111.344 145.254C110.031 145.582 108.707 145.926 107.392 146.255Z" fill="white"/>
<path d="M129.83 140.068C129.423 138.925 129.015 137.793 128.608 136.657C128.592 136.626 128.538 136.641 128.529 136.68C128.122 138.047 127.715 139.426 127.307 140.803C125.984 141.195 124.667 141.57 123.344 141.947C123.336 141.947 123.32 141.963 123.313 141.978C123.313 141.978 123.312 142.009 123.328 142.024C124.394 142.495 125.459 142.964 126.524 143.434C126.117 144.797 125.718 146.176 125.31 147.538C125.302 147.554 125.31 147.569 125.318 147.585C125.341 147.585 125.357 147.585 125.365 147.569C126.43 146.488 127.504 145.391 128.568 144.311L131.764 145.674C131.772 145.69 131.787 145.69 131.795 145.69C131.811 145.69 131.834 145.659 131.834 145.643C131.834 145.626 131.834 145.611 131.834 145.611C131.426 144.484 131.011 143.355 130.605 142.227C131.678 141.131 132.743 140.035 133.815 138.939C133.823 138.923 133.831 138.908 133.823 138.892C133.815 138.876 133.799 138.876 133.783 138.876C132.469 139.285 131.145 139.676 129.83 140.068Z" fill="white"/>
<path d="M28.9182 119.446C28.5108 118.067 28.1035 116.689 27.6961 115.311C27.6802 115.28 27.6332 115.264 27.6103 115.28C27.2029 116.416 26.8036 117.543 26.3963 118.663C25.0814 118.241 23.7565 117.787 22.4417 117.308C22.4257 117.3 22.4017 117.3 22.4017 117.324C22.3938 117.332 22.4017 117.356 22.4097 117.371C23.475 118.537 24.5483 119.682 25.6125 120.809C25.2052 121.929 24.7979 123.049 24.3905 124.16C24.3825 124.176 24.3905 124.199 24.4065 124.215C24.4225 124.223 24.4454 124.239 24.4534 124.231C25.5187 123.816 26.5919 123.394 27.6562 122.939C28.7215 124.051 29.7947 125.14 30.859 126.213H30.875C30.9059 126.221 30.9219 126.221 30.9219 126.19C30.9219 126.182 30.9139 126.182 30.9139 126.182C30.5066 124.811 30.1072 123.44 29.6999 122.071C30.7652 121.608 31.8304 121.123 32.8947 120.621C32.9027 120.605 32.9187 120.598 32.9027 120.574C32.9027 120.551 32.8867 120.535 32.8717 120.535C31.5569 120.198 30.233 119.837 28.9182 119.446Z" fill="white"/>
<path d="M51.3561 123.581C50.9487 122.296 50.5494 121.004 50.142 119.712C50.1191 119.681 50.0721 119.681 50.0642 119.704C49.6568 120.918 49.2415 122.139 48.8342 123.354C47.5183 123.212 46.1944 123.056 44.8796 122.876C44.8636 122.868 44.8486 122.876 44.8486 122.899C44.8327 122.915 44.8486 122.93 44.8566 122.946C45.9219 123.87 46.9872 124.771 48.0524 125.663C47.6451 126.877 47.2457 128.083 46.8384 129.289C46.8304 129.305 46.8384 129.328 46.8464 129.336C46.8624 129.344 46.8853 129.352 46.8853 129.352C47.9586 128.702 49.0308 128.028 50.1041 127.347C51.1694 128.224 52.2346 129.086 53.2989 129.931H53.3219C53.3458 129.939 53.3688 129.931 53.3688 129.9C53.3608 129.892 53.3608 129.884 53.3528 129.884C52.9455 128.599 52.5461 127.323 52.1388 126.039C53.2041 125.342 54.2683 124.637 55.3336 123.916C55.3496 123.9 55.3576 123.885 55.3496 123.869C55.3496 123.846 55.3256 123.838 55.3096 123.838C53.9948 123.776 52.6709 123.69 51.3561 123.581Z" fill="white"/>
<path d="M73.793 123.437C73.3856 122.215 72.9783 120.994 72.571 119.764C72.555 119.741 72.5081 119.748 72.4921 119.772C72.0848 121.056 71.6854 122.349 71.2781 123.633C69.9622 123.719 68.6384 123.798 67.3235 123.853C67.3005 123.853 67.2846 123.861 67.2846 123.884C67.2766 123.9 67.2846 123.915 67.2925 123.931C68.3578 124.659 69.4311 125.371 70.4953 126.076C70.088 127.361 69.6807 128.637 69.2733 129.922C69.2653 129.938 69.2733 129.961 69.2813 129.969C69.3043 129.969 69.3203 129.969 69.3282 129.961C70.4015 129.123 71.4668 128.277 72.539 127.416C73.6043 128.105 74.6775 128.795 75.7418 129.468C75.7418 129.468 75.7498 129.468 75.7578 129.46C75.7897 129.46 75.8047 129.452 75.8047 129.421L75.7967 129.405C75.3894 128.191 74.982 126.977 74.5747 125.764C75.639 124.894 76.7122 124.01 77.7775 123.117C77.7855 123.101 77.7935 123.085 77.7855 123.07C77.7855 123.047 77.7695 123.047 77.7466 123.047C76.4317 123.187 75.1078 123.32 73.793 123.437Z" fill="white"/>
<path d="M96.2382 120.071C95.8309 118.896 95.4156 117.729 95.0092 116.555C95.0013 116.531 94.9463 116.547 94.9304 116.571C94.523 117.902 94.1237 119.241 93.7163 120.572C92.4005 120.831 91.0766 121.073 89.7618 121.308C89.7458 121.308 89.7228 121.324 89.7148 121.348C89.7148 121.364 89.7228 121.379 89.7308 121.395C90.7951 121.975 91.8693 122.554 92.9336 123.126C92.5263 124.457 92.1199 125.789 91.7116 127.12C91.7036 127.136 91.7116 127.159 91.7276 127.167C91.7435 127.167 91.7665 127.167 91.7745 127.151C92.8398 126.179 93.904 125.193 94.9693 124.205C96.0426 124.769 97.1078 125.326 98.1801 125.874L98.1961 125.866C98.227 125.866 98.243 125.85 98.243 125.819L98.235 125.803C97.8277 124.636 97.4283 123.469 97.021 122.302C98.0862 121.307 99.1515 120.306 100.217 119.295C100.225 119.279 100.24 119.255 100.225 119.248C100.225 119.225 100.209 119.217 100.194 119.225C98.878 119.515 97.5541 119.798 96.2382 120.071Z" fill="white"/>
<path d="M118.676 114.559C118.268 113.416 117.854 112.272 117.447 111.129C117.439 111.106 117.384 111.121 117.377 111.145C116.97 112.515 116.562 113.885 116.155 115.248C114.831 115.608 113.515 115.961 112.191 116.305C112.183 116.313 112.168 116.321 112.152 116.352C112.152 116.368 112.168 116.375 112.175 116.392C113.241 116.885 114.306 117.37 115.371 117.857C114.964 119.227 114.564 120.589 114.157 121.953C114.149 121.969 114.157 121.992 114.165 122C114.181 122 114.204 121.992 114.212 121.984C115.276 120.919 116.35 119.853 117.415 118.781C118.48 119.266 119.545 119.745 120.611 120.23C120.619 120.222 120.627 120.222 120.642 120.214C120.665 120.206 120.688 120.198 120.688 120.167C120.68 120.159 120.68 120.159 120.672 120.151C120.265 119.015 119.866 117.872 119.458 116.736C120.524 115.663 121.589 114.591 122.654 113.511C122.67 113.495 122.677 113.479 122.67 113.464C122.67 113.441 122.647 113.441 122.631 113.441C121.314 113.814 119.992 114.191 118.676 114.559Z" fill="white"/>
<path d="M28.8486 138.533C28.4413 137.166 28.0419 135.795 27.6346 134.417C27.6106 134.37 27.5637 134.363 27.5487 134.393C27.1414 135.522 26.742 136.641 26.3347 137.761C25.0188 137.331 23.695 136.876 22.3801 136.398C22.3572 136.382 22.3412 136.406 22.3412 136.406C22.3332 136.422 22.3412 136.453 22.3492 136.461C23.4145 137.628 24.4867 138.783 25.552 139.911C25.1446 141.024 24.7373 142.136 24.33 143.248C24.322 143.264 24.33 143.295 24.338 143.311C24.3619 143.327 24.3779 143.327 24.3849 143.327C25.4491 142.904 26.5234 142.48 27.5877 142.042C28.6529 143.139 29.7262 144.235 30.7905 145.301C30.8064 145.317 30.8064 145.317 30.8134 145.317C30.8294 145.333 30.8604 145.317 30.8604 145.301L30.8524 145.27C30.445 143.907 30.0377 142.545 29.6304 141.181C30.6956 140.711 31.7689 140.226 32.8331 139.725C32.8411 139.709 32.8491 139.694 32.8411 139.678C32.8411 139.662 32.8182 139.631 32.8022 139.631C31.4883 139.3 30.1645 138.924 28.8486 138.533Z" fill="white"/>
<path d="M51.2941 142.699C50.8868 141.415 50.4794 140.115 50.0721 138.83C50.0561 138.799 50.0092 138.783 49.9862 138.83C49.5789 140.036 49.1795 141.242 48.7722 142.464C47.4563 142.324 46.1325 142.167 44.8176 141.979C44.8017 141.979 44.7787 141.995 44.7787 141.995C44.7707 142.026 44.7787 142.042 44.7867 142.058C45.851 142.983 46.9242 143.891 47.9895 144.784C47.5821 145.99 47.1758 147.196 46.7675 148.402C46.7595 148.418 46.7675 148.433 46.7834 148.449C46.7994 148.465 46.8144 148.465 46.8304 148.449C47.8956 147.806 48.9609 147.134 50.0262 146.46C51.0994 147.336 52.1647 148.198 53.237 149.045C53.237 149.045 53.2449 149.061 53.2529 149.061C53.2839 149.061 53.2998 149.045 53.2998 149.014L53.2919 148.997C52.8845 147.713 52.4852 146.444 52.0778 145.16C53.1431 144.471 54.2084 143.75 55.2736 143.029C55.2816 143.029 55.2896 142.998 55.2816 142.982C55.2816 142.982 55.2657 142.951 55.2417 142.951C53.9258 142.888 52.609 142.794 51.2941 142.699Z" fill="white"/>
<path d="M73.7314 142.56C73.3241 141.338 72.9098 140.132 72.5024 138.91C72.4944 138.863 72.4475 138.863 72.4325 138.91C72.0252 140.195 71.6179 141.479 71.2105 142.747C69.8947 142.842 68.5708 142.92 67.255 142.967C67.239 142.983 67.216 142.998 67.216 143.014C67.208 143.03 67.216 143.045 67.232 143.061C68.2973 143.782 69.3625 144.502 70.4278 145.207C70.0205 146.491 69.6211 147.76 69.2138 149.045C69.2058 149.061 69.2138 149.076 69.2218 149.092H69.2687C70.334 148.245 71.3992 147.4 72.4645 146.538C73.5378 147.227 74.603 147.917 75.6753 148.59H75.6992C75.7222 148.59 75.7462 148.574 75.7462 148.544H75.7302C75.3228 147.321 74.9235 146.1 74.5162 144.893C75.5814 144.017 76.6467 143.139 77.712 142.247C77.7279 142.231 77.7349 142.216 77.7279 142.2C77.7279 142.184 77.705 142.169 77.688 142.169C76.3701 142.31 75.0473 142.45 73.7314 142.56Z" fill="white"/>
<path d="M96.169 139.207C95.7616 138.037 95.3543 136.87 94.947 135.695C94.931 135.664 94.8841 135.672 94.8681 135.711C94.4608 137.042 94.0544 138.377 93.6461 139.709C92.3302 139.96 91.0144 140.21 89.6995 140.43C89.6755 140.446 89.6596 140.461 89.6596 140.461C89.6516 140.492 89.6596 140.508 89.6675 140.524C90.7328 141.104 91.7981 141.683 92.8634 142.262C92.456 143.594 92.0567 144.925 91.6493 146.241C91.6413 146.272 91.6493 146.288 91.6573 146.288C91.6803 146.304 91.6962 146.288 91.7042 146.288C92.7695 145.301 93.8428 144.33 94.907 143.327C95.9723 143.89 97.0446 144.455 98.1098 145.004H98.1328C98.1557 145.004 98.1717 144.988 98.1717 144.957V144.94C97.7644 143.766 97.357 142.607 96.9497 141.447C98.014 140.445 99.0882 139.443 100.153 138.424C100.16 138.424 100.168 138.392 100.16 138.377C100.16 138.377 100.138 138.346 100.122 138.361C98.8087 138.643 97.4848 138.925 96.169 139.207Z" fill="white"/>
<path d="M118.613 133.692C118.206 132.556 117.791 131.413 117.384 130.278C117.376 130.239 117.313 130.262 117.305 130.301C116.898 131.664 116.499 133.026 116.091 134.381C114.775 134.742 113.452 135.094 112.137 135.439C112.121 135.447 112.098 135.469 112.09 135.485C112.09 135.501 112.098 135.516 112.106 135.525C113.171 136.027 114.244 136.512 115.309 136.998C114.901 138.365 114.495 139.728 114.087 141.089C114.079 141.106 114.087 141.121 114.103 141.137C114.119 141.137 114.135 141.137 114.149 141.121C115.215 140.056 116.28 138.991 117.345 137.922C118.418 138.395 119.483 138.88 120.556 139.35C120.564 139.366 120.564 139.366 120.564 139.366H120.572C120.595 139.35 120.612 139.334 120.612 139.303V139.287C120.205 138.16 119.789 137.02 119.382 135.885C120.455 134.804 121.521 133.731 122.593 132.65C122.601 132.634 122.609 132.61 122.601 132.595C122.593 132.595 122.585 132.572 122.562 132.579C121.245 132.956 119.929 133.323 118.613 133.692Z" fill="white"/>
</svg>
