<svg width="283" height="283" viewBox="0 0 283 283" fill="none" xmlns="http://www.w3.org/2000/svg">
<path d="M279.876 234.686C187.63 178.766 95.3779 290.59 3.13086 234.686C3.13086 172.564 3.13086 110.441 3.13086 48.3201C95.3779 104.232 187.629 -7.59199 279.876 48.3201V234.686Z" fill="#CCCBCA"/>
<path d="M277.609 106.079C186.877 53.7603 96.1272 161.07 5.38867 108.757C5.38867 89.8166 5.38867 70.8764 5.38867 51.9362C96.1272 104.254 186.877 -3.0604 277.609 49.2586V106.079Z" fill="#0E9DB8"/>
<path d="M277.625 231.083C186.876 178.765 96.135 286.079 5.39648 233.762C5.39648 214.83 5.39648 195.881 5.39648 176.949C96.135 229.267 186.876 121.949 277.625 174.271V231.083Z" fill="#30B353"/>
<path d="M277.64 168.601C186.892 116.248 96.143 223.58 5.39648 171.263C5.39648 152.315 5.39648 133.379 5.39648 114.439C96.143 166.752 186.892 59.4268 277.64 111.777V168.601Z" fill="white"/>
<path d="M277.639 111.778C277.624 109.875 277.624 107.981 277.624 106.079C186.876 53.7604 96.1428 161.07 5.4043 108.764V114.449C96.1508 166.755 186.892 59.4292 277.639 111.778Z" fill="#CF232E"/>
<path d="M277.64 174.287C277.64 172.392 277.64 170.497 277.64 168.603C186.892 116.25 96.1518 223.567 5.4043 171.265V176.949C96.1518 229.251 186.893 121.933 277.64 174.287Z" fill="#CF232E"/>
<path d="M53.2085 73.6712C53.2245 73.6712 53.2315 73.6552 53.2315 73.6402C53.2315 73.6402 53.2235 73.6083 53.2085 73.6083C51.9186 73.3038 50.7465 73.1001 49.6213 72.9903C43.8617 72.4422 38.4535 73.6632 34.3751 76.7561C30.3037 79.8331 28.0684 84.5075 28.0684 90.2851C28.0684 96.0398 30.3037 102.218 34.3751 107.284C38.4545 112.357 43.8627 115.622 49.6213 116.17C50.7465 116.28 51.9186 116.28 53.2085 116.139C53.2245 116.139 53.2315 116.123 53.2315 116.108C53.2315 116.1 53.2235 116.085 53.2085 116.085C42.8304 113.642 35.3046 102.743 35.3046 92.236C35.3046 81.6741 42.8304 74.7444 53.2085 73.6712Z" fill="white"/>
<path d="M93.6281 78.3511C93.6281 78.3671 93.6281 78.382 93.6361 78.382C93.6441 78.398 93.667 78.39 93.675 78.3741C94.5106 77.6063 95.3473 76.8316 96.1829 76.0488C97.0196 76.4871 97.8632 76.9184 98.6998 77.3397C98.6998 77.3397 98.7078 77.3477 98.7158 77.3477C98.7318 77.3397 98.7468 77.3318 98.7468 77.3078V77.2848C98.4263 76.3693 98.1138 75.4608 97.7933 74.5443C98.63 73.7606 99.4656 72.9708 100.302 72.1721C100.31 72.1641 100.318 72.1412 100.31 72.1332C100.31 72.1332 100.302 72.1172 100.278 72.1252C99.247 72.3528 98.2156 72.5795 97.1833 72.7911C96.8628 71.8756 96.5354 70.9591 96.2139 70.0346C96.2059 70.0037 96.167 70.0116 96.152 70.0506C95.8315 71.0999 95.518 72.1492 95.1985 73.2065C94.1582 73.4101 93.1269 73.6128 92.0876 73.8095C92.0796 73.8095 92.0646 73.8175 92.0566 73.8254C92.0566 73.8334 92.0566 73.8564 92.0726 73.8654C92.9093 74.3196 93.7449 74.7659 94.5815 75.2042C94.2611 76.2535 93.9476 77.3018 93.6281 78.3511Z" fill="white"/>
<path d="M110.499 74.5083C110.499 74.5243 110.507 74.5393 110.507 74.5393C110.523 74.5473 110.547 74.5393 110.554 74.5233C111.39 73.7007 112.226 72.871 113.062 72.0414C113.899 72.4337 114.734 72.8171 115.571 73.1925C115.579 73.2005 115.587 73.2005 115.594 73.2005C115.61 73.1925 115.625 73.1845 115.625 73.1615C115.625 73.1615 115.625 73.1456 115.617 73.1376C115.296 72.237 114.984 71.3445 114.663 70.4519C115.5 69.6143 116.336 68.7846 117.172 67.947C117.188 67.931 117.188 67.9081 117.188 67.9001C117.18 67.8921 117.165 67.8921 117.149 67.8921C116.118 68.1816 115.087 68.4552 114.054 68.7377C113.734 67.8382 113.413 66.9287 113.093 66.0291C113.077 66.0062 113.038 66.0131 113.03 66.0451C112.71 67.1174 112.397 68.1896 112.077 69.2549C111.037 69.5284 109.998 69.795 108.959 70.0616C108.951 70.0616 108.943 70.0696 108.943 70.0696C108.935 70.0925 108.935 70.1165 108.951 70.1165C109.786 70.5158 110.623 70.9072 111.46 71.2996C111.14 72.3708 110.82 73.4361 110.499 74.5083Z" fill="white"/>
<path d="M127.38 69.8194C127.372 69.8354 127.38 69.8503 127.38 69.8503C127.396 69.8583 127.411 69.8583 127.427 69.8344C128.263 68.9808 129.099 68.1271 129.935 67.2735C130.772 67.6339 131.607 67.9864 132.444 68.3458C132.452 68.3538 132.46 68.3538 132.467 68.3458C132.483 68.3458 132.498 68.3298 132.498 68.3069C132.498 68.3069 132.498 68.2909 132.49 68.2839C132.169 67.3993 131.857 66.5148 131.536 65.6292C132.373 64.7676 133.217 63.907 134.053 63.0534C134.069 63.0374 134.069 63.0135 134.069 63.0065C134.061 62.9985 134.046 62.9985 134.03 62.9985C132.999 63.312 131.96 63.6255 130.928 63.931C130.608 63.0384 130.287 62.1459 129.967 61.2533C129.959 61.2304 129.912 61.2453 129.912 61.2763C129.592 62.3575 129.271 63.4378 128.951 64.518C127.919 64.8235 126.88 65.128 125.849 65.4265C125.833 65.4345 125.818 65.4425 125.81 65.4575C125.802 65.4655 125.81 65.4884 125.826 65.4884C126.661 65.8568 127.498 66.2163 128.335 66.5767C128.013 67.6579 127.701 68.7381 127.38 69.8194Z" fill="white"/>
<path d="M97.4892 89.6271C97.1687 88.7106 96.8472 87.7951 96.5277 86.8786C96.5118 86.8387 96.4648 86.8546 96.4648 86.8946C96.1444 87.9439 95.8239 88.9932 95.5034 90.0415C94.4721 90.2451 93.4328 90.4488 92.4015 90.6445C92.3785 90.6525 92.3705 90.6605 92.3705 90.6754C92.3625 90.6914 92.3705 90.7074 92.3785 90.7154C93.2151 91.1696 94.0508 91.6159 94.8874 92.0622C94.5669 93.1035 94.2544 94.1528 93.934 95.2021C93.926 95.218 93.934 95.225 93.9419 95.233C93.9579 95.233 93.9649 95.233 93.9809 95.225C94.8175 94.4503 95.6532 93.6746 96.4898 92.8918C97.3254 93.3301 98.1701 93.7604 99.0057 94.1917H99.0137L99.0217 94.1837C99.0446 94.1837 99.0606 94.1608 99.0606 94.1448C99.0606 94.1448 99.0606 94.1288 99.0526 94.1288C98.7322 93.2213 98.4117 92.3128 98.0912 91.3963C98.9268 90.6055 99.7715 89.8148 100.608 89.0161C100.624 89.0002 100.624 88.9852 100.624 88.9692C100.616 88.9532 100.608 88.9532 100.593 88.9532C99.5588 89.1878 98.5195 89.4075 97.4892 89.6271Z" fill="white"/>
<path d="M114.36 85.5488C114.04 84.6483 113.726 83.7557 113.407 82.8552C113.391 82.8152 113.344 82.8312 113.336 82.8711C113.016 83.9444 112.695 85.0087 112.375 86.0739C111.343 86.3475 110.304 86.6141 109.273 86.8796C109.257 86.8796 109.25 86.8876 109.25 86.9116C109.242 86.9275 109.25 86.9425 109.25 86.9425C110.086 87.3419 110.93 87.7412 111.767 88.1326C111.446 89.1979 111.126 90.2621 110.805 91.3354C110.805 91.3514 110.805 91.3583 110.821 91.3663C110.837 91.3663 110.852 91.3583 110.86 91.3583C111.696 90.5277 112.54 89.698 113.377 88.8684C114.213 89.2518 115.041 89.6441 115.878 90.0275C115.886 90.0275 115.894 90.0195 115.901 90.0195C115.925 90.0115 115.941 89.9966 115.941 89.9796C115.941 89.9796 115.941 89.9636 115.933 89.9636C115.612 89.0711 115.292 88.1785 114.971 87.279C115.807 86.4413 116.652 85.6037 117.488 84.7651C117.488 84.7651 117.496 84.7331 117.496 84.7181C117.488 84.7102 117.48 84.7022 117.465 84.7022C116.431 84.9927 115.392 85.2742 114.36 85.5488Z" fill="white"/>
<path d="M134.335 79.8082C133.303 80.1137 132.272 80.4272 131.24 80.7327C130.92 79.8481 130.591 78.9556 130.271 78.07C130.263 78.0301 130.216 78.0461 130.208 78.086C129.887 79.1662 129.575 80.2475 129.254 81.3197C128.215 81.6322 127.184 81.9307 126.143 82.2362C126.135 82.2442 126.12 82.2522 126.12 82.2522C126.113 82.2832 126.12 82.2991 126.128 82.3071C126.965 82.6745 127.801 83.0349 128.637 83.4033C128.317 84.4756 127.996 85.5568 127.676 86.6361C127.676 86.6521 127.676 86.66 127.692 86.668C127.7 86.668 127.723 86.66 127.731 86.66C128.567 85.7994 129.403 84.9448 130.24 84.0842C131.075 84.4446 131.912 84.8121 132.749 85.1725C132.757 85.1645 132.765 85.1645 132.772 85.1645C132.779 85.1645 132.772 85.1645 132.78 85.1565C132.78 85.1565 132.811 85.1335 132.811 85.1176L132.803 85.1016C132.482 84.217 132.17 83.3325 131.849 82.4479C132.686 81.5863 133.521 80.7247 134.358 79.8641C134.366 79.8481 134.366 79.8411 134.366 79.8252C134.366 79.8082 134.358 79.8002 134.335 79.8082Z" fill="white"/>
<path d="M80.6009 92.5228C80.2884 91.5754 79.968 90.6279 79.6555 89.6884C79.6395 89.6495 79.5926 89.6495 79.5856 89.6964C79.2651 90.7148 78.9526 91.7391 78.6321 92.7574C77.5928 92.8753 76.5615 92.9851 75.5212 93.0859C75.5052 93.0859 75.5052 93.0939 75.4902 93.1099C75.4902 93.1328 75.4902 93.1408 75.5062 93.1488C76.3428 93.6809 77.1865 94.2061 78.0231 94.7222C77.7036 95.7406 77.3752 96.7589 77.0537 97.7763C77.0457 97.7923 77.0537 97.7992 77.0697 97.8152H77.1096C77.9452 97.1104 78.7819 96.4055 79.6185 95.6937C80.4542 96.2028 81.2988 96.704 82.1354 97.2052H82.1514C82.1744 97.1972 82.1903 97.1823 82.1903 97.1663C82.1903 97.1583 82.1903 97.1503 82.1824 97.1503C81.8619 96.2108 81.5414 95.2714 81.2209 94.3319C82.0566 93.6111 82.8932 92.8912 83.7298 92.1554C83.7458 92.1474 83.7528 92.1315 83.7458 92.1155C83.7388 92.0995 83.7229 92.0925 83.7149 92.0995C82.6716 92.2493 81.6402 92.39 80.6009 92.5228Z" fill="white"/>
<path d="M97.2761 106.588C96.9556 105.673 96.6272 104.756 96.3067 103.841C96.3067 103.809 96.2598 103.817 96.2438 103.849C95.9233 104.898 95.6108 105.947 95.2903 106.996C94.251 107.207 93.2197 107.411 92.1794 107.599C92.1714 107.599 92.1564 107.622 92.1484 107.637C92.1484 107.637 92.1484 107.661 92.1644 107.669C93.0011 108.115 93.8447 108.562 94.6813 109.008C94.3618 110.058 94.0404 111.099 93.7199 112.148C93.7119 112.171 93.7199 112.188 93.7279 112.195C93.7438 112.195 93.7668 112.195 93.7748 112.179C94.6104 111.411 95.4471 110.629 96.2837 109.846C97.1194 110.284 97.956 110.722 98.7926 111.154H98.8156C98.8316 111.146 98.8386 111.131 98.8386 111.107C98.8386 111.099 98.8386 111.091 98.8386 111.084C98.5181 110.175 98.1976 109.259 97.8771 108.35C98.7128 107.56 99.5574 106.769 100.394 105.979C100.402 105.963 100.41 105.939 100.402 105.939C100.402 105.923 100.386 105.916 100.371 105.916C99.3388 106.15 98.3074 106.369 97.2761 106.588Z" fill="white"/>
<path d="M114.149 102.515C113.829 101.622 113.507 100.722 113.188 99.8217C113.18 99.7907 113.125 99.8057 113.117 99.8376C112.804 100.91 112.484 101.975 112.171 103.04C111.14 103.314 110.101 103.581 109.069 103.839C109.053 103.847 109.038 103.862 109.03 103.886C109.022 103.886 109.03 103.902 109.046 103.909C109.883 104.308 110.719 104.7 111.555 105.091C111.235 106.156 110.914 107.221 110.594 108.294C110.594 108.317 110.594 108.333 110.602 108.333C110.618 108.341 110.641 108.333 110.649 108.325C111.485 107.495 112.321 106.665 113.158 105.836C113.993 106.227 114.83 106.611 115.666 106.994C115.674 107.002 115.682 107.002 115.69 106.994C115.706 106.994 115.721 106.971 115.721 106.947C115.721 106.947 115.721 106.931 115.713 106.931C115.392 106.031 115.072 105.138 114.751 104.245C115.587 103.408 116.431 102.57 117.268 101.732C117.284 101.724 117.284 101.701 117.284 101.701C117.284 101.685 117.268 101.669 117.253 101.677C116.22 101.958 115.18 102.241 114.149 102.515Z" fill="white"/>
<path d="M131.022 97.7099C130.702 96.8253 130.388 95.9328 130.069 95.0482C130.053 95.0173 130.006 95.0323 130.006 95.0642C129.685 96.1444 129.358 97.2247 129.036 98.3059C128.005 98.6114 126.974 98.9089 125.941 99.2145C125.926 99.2145 125.911 99.2374 125.902 99.2534C125.894 99.2534 125.902 99.2764 125.918 99.2843C126.754 99.6448 127.59 100.005 128.426 100.374C128.106 101.446 127.793 102.527 127.473 103.599C127.465 103.63 127.473 103.638 127.481 103.646C127.497 103.654 127.512 103.646 127.528 103.63C128.364 102.777 129.2 101.915 130.037 101.062C130.872 101.422 131.701 101.783 132.538 102.151C132.554 102.151 132.561 102.151 132.569 102.143C132.585 102.143 132.593 102.12 132.593 102.104C132.593 102.104 132.593 102.088 132.585 102.081C132.272 101.195 131.951 100.304 131.639 99.4181C132.475 98.5565 133.312 97.7029 134.148 96.8423C134.164 96.8343 134.164 96.8034 134.164 96.8034C134.156 96.7954 134.141 96.7804 134.125 96.7874C133.093 97.0989 132.054 97.4044 131.022 97.7099Z" fill="white"/>
<path d="M80.396 109.459C80.0755 108.512 79.7551 107.573 79.4346 106.625C79.4266 106.594 79.3797 106.602 79.3647 106.633C79.0522 107.651 78.7317 108.677 78.4192 109.695C77.3799 109.812 76.3486 109.922 75.3093 110.024C75.3013 110.024 75.2853 110.04 75.2773 110.055C75.2773 110.055 75.2773 110.078 75.2933 110.086C76.129 110.612 76.9656 111.136 77.8012 111.652C77.4818 112.67 77.1683 113.688 76.8478 114.706C76.8318 114.729 76.8478 114.745 76.8478 114.745C76.8638 114.761 76.8877 114.761 76.8947 114.745C77.7304 114.048 78.567 113.343 79.4036 112.63C80.2393 113.147 81.0759 113.649 81.9126 114.149C81.9205 114.157 81.9285 114.149 81.9285 114.149H81.9365C81.9525 114.149 81.9765 114.126 81.9765 114.11L81.9685 114.087C81.648 113.147 81.3265 112.208 81.007 111.269C81.8427 110.548 82.6873 109.828 83.5229 109.1C83.5229 109.1 83.5389 109.068 83.5229 109.068C83.5229 109.052 83.5229 109.037 83.5 109.037C82.4677 109.185 81.4283 109.326 80.396 109.459Z" fill="white"/>
<path d="M63.5239 110.682C63.2035 109.696 62.883 108.717 62.5625 107.739C62.5545 107.707 62.5076 107.707 62.4926 107.739C62.1721 108.725 61.8517 109.712 61.5312 110.69C60.4998 110.69 59.4605 110.682 58.4292 110.651C58.4132 110.651 58.4063 110.667 58.4063 110.682C58.4063 110.682 58.4062 110.705 58.4142 110.713C59.2509 111.348 60.0865 111.966 60.9232 112.577C60.6027 113.563 60.2902 114.542 59.9697 115.521C59.9617 115.544 59.9697 115.56 59.9857 115.568C59.9937 115.576 60.0086 115.576 60.0246 115.568C60.8603 114.965 61.6969 114.362 62.5335 113.744C63.3692 114.347 64.2058 114.942 65.0425 115.537C65.0505 115.545 65.0584 115.545 65.0584 115.545C65.0814 115.545 65.0974 115.529 65.0974 115.505V115.482C64.7769 114.504 64.4554 113.532 64.1359 112.554C64.9716 111.935 65.8082 111.301 66.6449 110.659C66.6528 110.651 66.6608 110.628 66.6528 110.628C66.6528 110.612 66.6369 110.597 66.6209 110.597C65.5876 110.635 64.5563 110.666 63.5239 110.682Z" fill="white"/>
</svg>
