<svg width="1388" height="327" viewBox="0 0 1388 327" fill="none" xmlns="http://www.w3.org/2000/svg">
<path opacity="0.58" d="M398 176.09C398 97.94 458.01 42 538.75 42C583.57 42 620.98 58.3 645.43 87.93L606.91 123.49C589.5 103.49 567.65 93.12 541.72 93.12C493.2 93.12 458.75 127.2 458.75 176.09C458.75 224.98 493.2 259.06 541.72 259.06C567.65 259.06 589.5 248.69 606.91 228.32L645.43 263.88C620.98 293.88 583.57 310.18 538.38 310.18C458 310.18 398 254.25 398 176.09Z" fill="white"/>
<path opacity="0.58" d="M85.54 98.41H0V48H232.95V98.41H147.41V315.32H85.54V98.41Z" fill="white"/>
<path d="M373.196 122.74C377.326 113.19 384.586 112.16 387.516 112.16C388.516 112.16 389.666 112.26 390.906 112.57C385.196 106.3 378.396 102.66 371.096 102.66C364.636 102.66 358.576 105.51 353.296 110.53C355.206 113.21 357.036 116.05 358.796 119.05C362.036 124.61 364.936 130.59 367.456 136.92C368.306 139.02 369.096 141.16 369.856 143.34C369.586 140.75 369.576 138.18 369.816 135.63C370.216 131.3 371.336 127.01 373.186 122.74H373.196Z" fill="white"/>
<path d="M377.496 235.801C379.326 234.451 381.006 232.971 382.486 231.421C389.286 224.281 395.176 215.971 400.516 205.921L399.936 204.611L398.156 200.611C397.446 199.021 396.826 197.491 396.226 196.021C395.076 193.221 394.086 190.801 392.906 188.821C390.326 184.501 387.566 180.321 384.646 175.891C382.626 172.841 380.546 169.681 378.526 166.481C376.986 164.031 375.646 161.611 374.516 159.211C377.986 173.641 379.806 189.191 379.806 205.161C379.806 212.621 379.406 220.001 378.626 227.201C378.316 230.091 377.946 232.971 377.516 235.811L377.496 235.801Z" fill="white"/>
<path d="M371.096 94.3898C382.777 94.3898 392.246 84.9208 392.246 73.2398C392.246 61.5588 382.777 52.0898 371.096 52.0898C359.415 52.0898 349.946 61.5588 349.946 73.2398C349.946 84.9208 359.415 94.3898 371.096 94.3898Z" fill="white"/>
<path d="M238.976 132.638C241.056 127.878 243.356 123.328 245.856 119.038C247.606 116.038 249.436 113.198 251.356 110.518C246.086 105.508 240.016 102.648 233.556 102.648C226.266 102.648 219.466 106.288 213.746 112.558C214.986 112.248 216.136 112.138 217.136 112.138C220.066 112.138 227.326 113.168 231.456 122.718C232.556 125.278 233.406 127.828 233.986 130.408C234.966 134.668 235.236 138.958 234.786 143.318C236.056 139.648 237.456 136.078 238.966 132.618L238.976 132.638Z" fill="white"/>
<path d="M226.146 166.469C224.126 169.669 222.046 172.829 220.036 175.879C217.116 180.299 214.346 184.489 211.766 188.809C210.576 190.789 209.596 193.209 208.446 196.009C207.846 197.479 207.226 199.009 206.516 200.599L204.736 204.599L204.156 205.909C209.496 215.959 215.396 224.279 222.186 231.419C223.666 232.969 225.346 234.449 227.176 235.799C226.736 232.959 226.366 230.089 226.066 227.189C225.286 219.989 224.886 212.609 224.886 205.149C224.886 189.169 226.706 173.629 230.176 159.199C229.046 161.599 227.706 164.019 226.166 166.469H226.146Z" fill="white"/>
<path opacity="0.58" d="M320.126 224.252C324.266 215.232 328.556 205.902 335.056 197.302C336.006 196.042 337.036 194.752 338.156 193.492C339.676 191.782 341.366 190.112 343.306 188.612C345.716 186.742 348.516 185.142 351.806 184.052C353.856 183.372 355.936 183.032 357.986 183.032C361.776 183.032 365.226 184.182 368.036 186.212C366.566 171.122 363.356 157.032 358.786 144.572C355.326 135.132 351.076 126.622 346.196 119.312C334.476 101.742 319.126 91.1016 302.336 91.1016C285.546 91.1016 270.186 101.752 258.466 119.312C254.396 125.412 250.766 132.342 247.666 139.962C242.136 153.522 238.286 169.232 236.636 186.212C239.446 184.182 242.906 183.032 246.686 183.032C248.736 183.032 250.816 183.372 252.866 184.052C257.436 185.552 261.026 188.042 263.996 190.862C264.896 191.712 265.736 192.592 266.516 193.482C267.636 194.752 268.666 196.042 269.616 197.292C276.126 205.892 280.406 215.222 284.546 224.242C285.246 225.772 285.956 227.302 286.666 228.832C292.306 240.892 295.046 253.502 295.046 267.372C295.046 278.522 293.226 290.672 289.456 304.502C288.436 308.232 287.306 311.992 286.066 315.772C291.276 318.002 296.726 319.192 302.336 319.192C307.946 319.192 313.396 318.002 318.606 315.772C317.356 311.982 316.226 308.232 315.216 304.502C311.446 290.662 309.616 278.522 309.626 267.372C309.626 253.502 312.376 240.882 318.016 228.832C318.726 227.302 319.426 225.772 320.136 224.242L320.126 224.252Z" fill="white"/>
<path opacity="0.58" d="M302.336 76.66C323.506 76.66 340.666 59.5 340.666 38.33C340.666 17.16 323.506 0 302.336 0C281.166 0 264.006 17.16 264.006 38.33C264.006 59.5 281.166 76.66 302.336 76.66Z" fill="white"/>
<path d="M391.476 125.33C391.406 125.25 391.346 125.18 391.276 125.11C391.206 125.03 391.126 124.95 391.056 124.87C390.976 124.79 390.906 124.72 390.836 124.65C390.786 124.6 390.736 124.55 390.686 124.51C390.616 124.44 390.556 124.38 390.486 124.33C390.026 123.92 389.556 123.61 389.106 123.4C389.046 123.37 388.976 123.34 388.916 123.31C388.846 123.28 388.786 123.26 388.726 123.23C388.616 123.19 388.506 123.15 388.396 123.13C388.286 123.1 388.186 123.08 388.076 123.06C388.036 123.05 388.006 123.04 387.976 123.04C387.976 123.04 387.966 123.04 387.956 123.04C387.896 123.04 387.836 123.03 387.786 123.02C387.706 123.01 387.616 123 387.536 123C387.426 123 387.326 123 387.216 123.02C387.006 123.04 386.796 123.08 386.596 123.15C386.586 123.15 386.566 123.16 386.556 123.16C386.466 123.19 386.386 123.23 386.296 123.26C386.196 123.3 386.096 123.35 386.006 123.4C385.916 123.45 385.836 123.5 385.746 123.55C385.646 123.62 385.536 123.7 385.426 123.78C385.336 123.86 385.236 123.93 385.146 124.02C385.056 124.1 384.956 124.19 384.876 124.29C384.786 124.39 384.696 124.49 384.606 124.59C384.436 124.8 384.256 125.03 384.096 125.28C384.016 125.41 383.936 125.54 383.856 125.67C383.806 125.76 383.756 125.85 383.706 125.94C383.656 126.02 383.616 126.11 383.566 126.2C383.426 126.46 383.296 126.74 383.176 127.03C382.256 129.16 381.596 131.26 381.166 133.32C381.006 134.06 380.886 134.81 380.786 135.54C380.786 135.57 380.776 135.61 380.776 135.64C380.706 136.12 380.666 136.58 380.626 137.05C380.606 137.25 380.596 137.45 380.586 137.66C380.576 137.82 380.566 137.99 380.566 138.16C380.556 138.33 380.546 138.51 380.546 138.68C380.536 139.07 380.546 139.47 380.546 139.86C380.546 140.05 380.556 140.24 380.566 140.43C380.576 140.71 380.596 140.99 380.606 141.28C380.636 141.84 380.696 142.41 380.766 142.97L380.876 143.81C380.916 144.09 380.966 144.37 381.016 144.64C381.066 144.92 381.116 145.2 381.176 145.48C381.256 145.85 381.336 146.21 381.426 146.58C381.466 146.76 381.516 146.95 381.566 147.13C381.616 147.32 381.666 147.5 381.716 147.68C381.946 148.54 382.216 149.39 382.516 150.24C382.676 150.69 382.846 151.13 383.016 151.57C383.106 151.79 383.186 152.01 383.286 152.23C383.516 152.78 383.746 153.33 384.006 153.88C384.256 154.43 384.516 154.97 384.796 155.52C384.906 155.74 385.016 155.96 385.126 156.17C385.346 156.61 385.586 157.04 385.816 157.48C386.416 158.56 387.056 159.64 387.726 160.71C392.486 168.27 397.646 175.59 402.236 183.26C402.326 183.42 402.426 183.58 402.516 183.74C402.606 183.89 402.696 184.05 402.776 184.2C402.946 184.52 403.116 184.84 403.286 185.16C403.446 185.47 403.606 185.78 403.756 186.1C403.836 186.25 403.906 186.4 403.976 186.55C404.226 187.07 404.466 187.6 404.706 188.14C404.836 188.44 404.966 188.74 405.096 189.04C405.136 189.12 405.166 189.2 405.196 189.27C405.376 189.7 405.556 190.12 405.726 190.54C405.916 191.02 406.116 191.49 406.306 191.97C406.446 192.3 406.576 192.64 406.716 192.98C407.156 194.05 407.606 195.13 408.096 196.22C408.866 194.69 409.586 193.18 410.236 191.7C410.456 191.21 410.666 190.72 410.876 190.23C411.016 189.91 411.146 189.59 411.276 189.26C411.406 188.93 411.536 188.62 411.666 188.29C411.746 188.09 411.826 187.9 411.896 187.7C412.046 187.32 412.186 186.94 412.326 186.56C412.466 186.18 412.596 185.81 412.726 185.43C412.806 185.22 412.876 185 412.946 184.79C413.016 184.59 413.076 184.4 413.136 184.21C413.246 183.88 413.346 183.55 413.446 183.23C413.576 182.83 413.696 182.42 413.816 182.02C413.936 181.61 414.046 181.21 414.146 180.81C414.196 180.62 414.246 180.44 414.296 180.25C414.526 179.32 414.736 178.4 414.916 177.49C414.916 177.49 414.916 177.487 414.916 177.48C414.966 177.23 415.016 176.98 415.056 176.74C415.146 176.28 415.216 175.81 415.286 175.35C415.396 174.64 415.486 173.94 415.556 173.24C415.666 172.15 415.746 171.07 415.766 170.01C415.766 169.71 415.776 169.41 415.776 169.11C415.776 168.59 415.766 168.07 415.746 167.55C415.736 167.29 415.726 167.04 415.706 166.79C415.686 166.53 415.676 166.28 415.656 166.03C415.646 165.86 415.626 165.69 415.606 165.52C415.586 165.3 415.566 165.07 415.536 164.84C415.516 164.62 415.486 164.39 415.456 164.17C415.396 163.72 415.326 163.27 415.246 162.83C415.226 162.71 415.206 162.59 415.176 162.47C415.156 162.32 415.126 162.18 415.096 162.03C415.056 161.84 415.016 161.64 414.976 161.45C414.946 161.32 414.926 161.18 414.886 161.05C414.836 160.81 414.776 160.57 414.716 160.32C414.646 160.06 414.586 159.8 414.516 159.54C414.376 159.02 414.226 158.5 414.056 157.98C413.956 157.66 413.846 157.33 413.726 157.01C413.596 156.62 413.446 156.23 413.296 155.85C413.216 155.66 413.146 155.47 413.066 155.27C412.936 154.95 412.796 154.62 412.656 154.3C412.566 154.09 412.466 153.87 412.376 153.66C412.276 153.44 412.176 153.21 412.066 152.99C411.946 152.73 411.816 152.48 411.686 152.22C411.616 152.08 411.546 151.94 411.476 151.8C411.316 151.48 411.146 151.17 410.966 150.85C410.636 150.23 410.276 149.62 409.896 149C409.786 148.81 409.676 148.62 409.556 148.44C409.396 148.18 409.236 147.93 409.066 147.68C408.716 147.14 408.356 146.6 407.976 146.06C407.816 145.83 407.656 145.6 407.486 145.37C407.196 144.95 406.886 144.55 406.576 144.14C406.156 143.59 405.736 143.05 405.316 142.51C405.276 142.46 405.236 142.4 405.196 142.35C404.856 141.91 404.516 141.47 404.166 141.03C403.416 140.06 402.656 139.1 401.886 138.14C401.346 137.47 400.816 136.79 400.276 136.12C399.706 135.42 399.136 134.71 398.576 134.01C396.306 131.2 394.006 128.4 391.706 125.6C391.636 125.52 391.576 125.44 391.506 125.37L391.476 125.33Z" fill="white"/>
<path d="M193.416 151.392C193.246 151.712 193.086 152.032 192.926 152.352C192.766 152.672 192.606 152.992 192.466 153.312C192.346 153.572 192.226 153.822 192.116 154.082C191.816 154.762 191.536 155.432 191.286 156.122C191.226 156.282 191.166 156.442 191.116 156.602C190.946 157.052 190.796 157.512 190.656 157.962C190.566 158.222 190.496 158.482 190.416 158.742C189.976 160.212 189.636 161.702 189.396 163.202C189.366 163.382 189.336 163.562 189.316 163.742C189.276 163.992 189.246 164.242 189.216 164.502C189.176 164.782 189.146 165.062 189.126 165.342C189.096 165.572 189.076 165.792 189.056 166.022C189.036 166.282 189.016 166.532 189.006 166.782C188.986 167.042 188.976 167.292 188.966 167.552C188.956 167.802 188.946 168.042 188.946 168.282C188.946 168.552 188.936 168.822 188.936 169.092C188.936 169.452 188.936 169.792 188.956 170.142C188.976 171.102 189.036 172.062 189.136 173.022C189.186 173.542 189.246 174.072 189.316 174.592C189.356 174.872 189.396 175.142 189.436 175.422C189.636 176.762 189.916 178.122 190.236 179.512C190.306 179.782 190.376 180.062 190.446 180.342C190.516 180.612 190.586 180.892 190.666 181.182C190.766 181.552 190.866 181.912 190.976 182.282C191.026 182.462 191.076 182.622 191.126 182.792C191.216 183.102 191.316 183.402 191.406 183.712C191.506 184.012 191.606 184.322 191.706 184.622C191.996 185.482 192.306 186.352 192.636 187.222C192.736 187.492 192.846 187.772 192.956 188.042C193.246 188.782 193.556 189.532 193.876 190.282C193.946 190.452 194.026 190.632 194.096 190.802C194.856 192.562 195.706 194.362 196.626 196.202C197.116 195.112 197.556 194.032 198.006 192.962C198.516 191.712 199.016 190.472 199.526 189.272C199.556 189.192 199.586 189.132 199.616 189.062C199.786 188.662 199.966 188.262 200.136 187.862C200.386 187.302 200.646 186.732 200.916 186.182C201.136 185.742 201.356 185.302 201.586 184.862C201.876 184.312 202.186 183.772 202.496 183.242C207.076 175.572 212.236 168.252 217.006 160.692C217.406 160.052 217.806 159.402 218.176 158.762C218.426 158.332 218.676 157.902 218.916 157.472C220.116 155.302 221.146 153.122 221.966 150.902C222.216 150.232 222.446 149.572 222.656 148.902C222.756 148.592 222.846 148.272 222.936 147.962C222.986 147.752 223.046 147.542 223.106 147.342C223.166 147.102 223.226 146.862 223.286 146.622C223.456 145.902 223.616 145.182 223.736 144.452C223.906 143.482 224.026 142.512 224.096 141.522C224.166 140.602 224.196 139.672 224.176 138.732C224.176 138.532 224.176 138.342 224.156 138.152C224.146 137.962 224.136 137.762 224.126 137.572C224.106 137.282 224.086 136.992 224.056 136.702C224.026 136.412 224.006 136.122 223.966 135.822C223.946 135.632 223.916 135.432 223.886 135.242C223.856 135.052 223.836 134.852 223.796 134.652C223.696 134.012 223.566 133.362 223.416 132.712C223.386 132.572 223.346 132.432 223.316 132.282C223.216 131.882 223.116 131.482 222.996 131.072C222.936 130.872 222.886 130.682 222.816 130.472C222.756 130.272 222.686 130.072 222.626 129.872C222.546 129.642 222.466 129.402 222.386 129.172C222.306 128.942 222.216 128.702 222.126 128.472C221.946 127.992 221.756 127.532 221.546 127.052C221.416 126.762 221.286 126.482 221.156 126.232C221.116 126.142 221.066 126.062 221.016 125.972C220.576 125.162 220.086 124.512 219.566 124.042C219.476 123.952 219.376 123.882 219.286 123.802C219.206 123.732 219.126 123.672 219.036 123.612C219.016 123.602 218.996 123.582 218.976 123.572C218.906 123.532 218.836 123.482 218.766 123.442C218.726 123.412 218.686 123.402 218.646 123.372C218.576 123.342 218.506 123.302 218.436 123.272C218.346 123.232 218.246 123.192 218.146 123.162C218.106 123.142 218.076 123.132 218.036 123.132C218.036 123.132 218.026 123.132 218.016 123.132C217.946 123.112 217.866 123.092 217.796 123.082C217.696 123.062 217.586 123.042 217.486 123.032C217.386 123.012 217.276 123.012 217.166 123.012C217.146 123.012 217.116 123.012 217.096 123.012C217.036 123.012 216.986 123.012 216.926 123.022C216.846 123.022 216.766 123.032 216.676 123.052C216.086 123.142 215.476 123.392 214.866 123.812C214.776 123.872 214.696 123.942 214.606 124.002C214.516 124.072 214.426 124.142 214.336 124.212C214.216 124.312 214.086 124.422 213.966 124.542C213.916 124.592 213.856 124.642 213.806 124.702C213.536 124.962 213.266 125.252 213.006 125.572C209.566 129.772 206.116 133.972 202.736 138.222C202.206 138.892 201.676 139.562 201.156 140.232C201.066 140.332 200.996 140.432 200.916 140.542C200.406 141.192 199.896 141.842 199.396 142.492C198.976 143.032 198.566 143.572 198.146 144.112C197.836 144.522 197.526 144.922 197.236 145.332C197.026 145.622 196.816 145.912 196.616 146.202C195.576 147.692 194.636 149.192 193.816 150.682C193.686 150.912 193.556 151.142 193.436 151.382L193.416 151.392Z" fill="white"/>
<path d="M418.606 276.598C416.536 278.848 413.796 281.698 410.956 284.608C390.686 305.368 364.886 320.018 336.546 326.198C335.736 326.378 334.916 326.548 334.106 326.708C333.706 325.708 333.316 324.708 332.926 323.708C332.566 322.778 332.226 321.848 331.876 320.918C331.286 319.348 330.726 317.758 330.176 316.168C330.046 315.808 329.926 315.448 329.806 315.088C329.576 314.418 329.356 313.758 329.136 313.088C328.826 312.158 328.516 311.218 328.226 310.278C328.006 309.558 327.776 308.848 327.556 308.138C327.466 307.858 327.386 307.578 327.296 307.298C326.736 305.428 326.196 303.548 325.676 301.658C319.426 278.718 317.306 255.928 327.826 233.418C328.716 231.508 329.596 229.598 330.466 227.678C330.856 226.838 331.236 226.008 331.626 225.178C332.056 224.268 332.476 223.358 332.906 222.438C333.166 221.888 333.426 221.338 333.696 220.788C334.426 219.268 335.186 217.768 335.966 216.278C336.216 215.798 336.476 215.318 336.726 214.838C337.056 214.228 337.396 213.618 337.736 213.018C338.076 212.408 338.426 211.808 338.776 211.208C338.946 210.908 339.126 210.608 339.316 210.308C339.466 210.048 339.626 209.798 339.786 209.548C340.016 209.168 340.246 208.798 340.486 208.428C340.556 208.318 340.626 208.218 340.696 208.108C341.016 207.618 341.326 207.138 341.666 206.658C341.926 206.278 342.186 205.908 342.446 205.528C342.496 205.458 342.546 205.388 342.596 205.318C342.746 205.098 342.906 204.888 343.056 204.678C343.146 204.548 343.226 204.438 343.326 204.318C343.446 204.148 343.566 203.988 343.686 203.828C346.746 199.778 350.136 195.998 355.176 194.338C355.656 194.178 356.136 194.058 356.606 193.988C356.756 193.968 356.896 193.948 357.036 193.928C357.136 193.918 357.236 193.908 357.346 193.898C357.786 193.858 358.216 193.858 358.626 193.898C358.996 193.928 359.356 193.988 359.706 194.078C359.786 194.098 359.866 194.118 359.936 194.148C360.056 194.178 360.176 194.218 360.286 194.258C360.416 194.308 360.546 194.358 360.676 194.418C360.736 194.448 360.806 194.468 360.866 194.508C361.186 194.658 361.486 194.848 361.766 195.058C361.876 195.148 361.986 195.228 362.086 195.318C362.196 195.408 362.296 195.508 362.396 195.608C362.496 195.708 362.596 195.808 362.686 195.918C362.736 195.968 362.776 196.028 362.826 196.078C362.896 196.168 362.966 196.248 363.036 196.348C363.106 196.438 363.166 196.538 363.226 196.628C363.306 196.738 363.376 196.858 363.446 196.988C363.536 197.168 363.636 197.348 363.716 197.538C363.746 197.608 363.776 197.688 363.806 197.758C363.836 197.838 363.866 197.908 363.896 197.978C363.946 198.128 363.996 198.278 364.046 198.428C364.116 198.638 364.166 198.858 364.216 199.078C364.266 199.298 364.306 199.528 364.336 199.758C364.756 202.768 364.596 205.938 364.206 208.968C364.156 209.358 364.106 209.758 364.046 210.158C363.996 210.558 363.936 210.948 363.876 211.348C363.556 213.458 363.186 215.558 362.826 217.658C362.696 218.378 362.576 219.098 362.456 219.828C362.346 220.498 362.236 221.158 362.126 221.818C362.076 222.128 362.026 222.428 361.986 222.728C361.856 223.568 361.736 224.408 361.636 225.248C361.596 225.528 361.556 225.798 361.536 226.078C361.516 226.168 361.506 226.248 361.506 226.338C361.436 226.858 361.386 227.378 361.336 227.898C360.906 232.358 360.816 237.028 361.706 241.378C361.736 241.508 361.756 241.638 361.796 241.758C361.816 241.848 361.836 241.928 361.866 242.018C361.866 242.048 361.876 242.068 361.886 242.098C361.936 242.308 361.996 242.518 362.066 242.718C362.096 242.808 362.116 242.898 362.156 242.988C362.186 243.088 362.226 243.188 362.256 243.278C362.286 243.378 362.326 243.468 362.366 243.558C362.456 243.788 362.546 244.008 362.646 244.228C362.736 244.418 362.836 244.608 362.926 244.788C362.996 244.928 363.066 245.058 363.146 245.188C363.216 245.318 363.296 245.438 363.366 245.558C363.446 245.678 363.526 245.798 363.606 245.908C363.766 246.138 363.936 246.368 364.116 246.588C364.196 246.678 364.276 246.778 364.366 246.868C364.376 246.888 364.396 246.908 364.416 246.928C364.516 247.038 364.616 247.148 364.716 247.258C364.926 247.468 365.136 247.668 365.356 247.858C366.076 248.478 366.866 248.988 367.716 249.358C367.826 249.408 367.936 249.458 368.056 249.508C368.386 249.648 368.726 249.768 369.076 249.858C369.146 249.878 369.206 249.898 369.276 249.908C369.346 249.928 369.406 249.938 369.476 249.958C369.606 249.988 369.726 250.018 369.846 250.038C369.976 250.068 370.096 250.088 370.226 250.108C370.316 250.128 370.396 250.138 370.496 250.148C370.626 250.168 370.756 250.178 370.886 250.188C371.036 250.198 371.176 250.208 371.326 250.218C371.476 250.218 371.626 250.228 371.776 250.228C371.946 250.228 372.116 250.228 372.286 250.208C372.426 250.208 372.556 250.198 372.686 250.178C372.886 250.168 373.096 250.138 373.306 250.108C373.456 250.088 373.616 250.058 373.776 250.028C374.126 249.958 374.476 249.878 374.826 249.768C375.036 249.708 375.256 249.638 375.466 249.558C375.686 249.478 375.916 249.388 376.146 249.288C376.316 249.218 376.486 249.138 376.656 249.058C376.826 248.978 376.996 248.888 377.166 248.798C381.976 246.228 386.596 242.818 390.356 238.878C392.276 236.858 394.116 234.778 395.856 232.638C396.036 232.418 396.206 232.208 396.386 231.988C396.486 231.868 396.586 231.738 396.676 231.618C397.066 231.138 397.446 230.648 397.826 230.168C398.146 229.748 398.466 229.338 398.786 228.918C399.106 228.488 399.426 228.058 399.746 227.618C399.886 227.438 400.016 227.258 400.146 227.068C400.276 226.888 400.406 226.708 400.536 226.518C400.826 226.108 401.126 225.698 401.416 225.278C401.706 224.858 401.986 224.458 402.266 224.028C403.566 222.118 404.806 220.178 406.006 218.208C406.796 216.898 407.566 215.578 408.306 214.248C408.556 213.808 408.806 213.358 409.046 212.908C409.246 212.548 409.446 212.178 409.646 211.818C410.326 210.558 410.986 209.298 411.626 208.018C411.816 207.648 412.006 207.278 412.186 206.908C412.456 206.358 412.736 205.808 412.996 205.248C413.206 204.818 413.416 204.388 413.616 203.958C413.886 203.388 414.156 202.818 414.416 202.248C414.776 201.468 415.136 200.688 415.486 199.908C415.846 199.098 416.206 198.288 416.556 197.468V197.418C416.706 197.088 416.846 196.778 416.986 196.448C417.036 196.338 417.086 196.228 417.126 196.118C417.436 195.388 417.746 194.658 418.046 193.918C418.316 193.248 418.596 192.568 418.866 191.888C424.566 177.618 425.316 163.368 420.156 148.788C419.166 145.988 418.196 143.168 417.256 140.348C416.366 137.678 415.496 135.008 414.656 132.328C414.316 131.258 413.986 130.198 413.666 129.128C412.976 126.878 412.316 124.618 411.666 122.358C408.486 111.218 410.076 100.748 417.246 91.3683C417.446 91.0983 417.646 90.8583 417.856 90.6183C418.056 90.3883 418.256 90.1683 418.466 89.9683C418.676 89.7683 418.866 89.5883 419.076 89.4183C419.176 89.3283 419.276 89.2583 419.386 89.1783C419.536 89.0683 419.686 88.9683 419.836 88.8683C419.966 88.7883 420.086 88.7183 420.206 88.6583C420.276 88.6283 420.336 88.5883 420.396 88.5683C420.526 88.5083 420.656 88.4583 420.776 88.4083C420.826 88.3883 420.886 88.3583 420.946 88.3583C420.956 88.3583 420.966 88.3483 420.976 88.3483C421.106 88.3083 421.226 88.2683 421.346 88.2483C421.466 88.2183 421.586 88.2083 421.706 88.1983C421.926 88.1683 422.156 88.1683 422.376 88.1983C422.466 88.1983 422.556 88.2183 422.646 88.2383C422.726 88.2583 422.806 88.2783 422.896 88.2983C422.926 88.2983 422.966 88.3183 422.996 88.3283C423.046 88.3383 423.096 88.3583 423.146 88.3783C423.166 88.3783 423.176 88.3783 423.196 88.3983C423.286 88.4283 423.366 88.4683 423.456 88.5083C423.546 88.5483 423.626 88.5983 423.716 88.6483C423.806 88.6983 423.886 88.7483 423.976 88.7983C424.076 88.8683 424.166 88.9283 424.256 88.9983C424.416 89.1283 424.586 89.2683 424.746 89.4283C424.816 89.4883 424.876 89.5583 424.936 89.6183C425.036 89.7183 425.136 89.8283 425.226 89.9383C425.306 90.0383 425.386 90.1383 425.466 90.2483C425.546 90.3483 425.626 90.4583 425.696 90.5683C425.736 90.6283 425.786 90.6983 425.826 90.7583C425.906 90.8783 425.986 91.0083 426.056 91.1283C426.146 91.2783 426.246 91.4383 426.326 91.6083C426.426 91.7783 426.516 91.9683 426.606 92.1583C426.656 92.2483 426.696 92.3483 426.746 92.4383C433.146 107.848 439.846 123.138 445.836 138.698C450.486 150.788 454.716 163.178 455.476 176.258C457.716 214.978 444.716 248.298 418.666 276.598H418.606Z" fill="white"/>
<path d="M278.996 301.668C278.806 302.358 278.616 303.038 278.426 303.728C278.286 304.208 278.156 304.688 278.016 305.158C277.826 305.798 277.646 306.428 277.446 307.068C277.346 307.428 277.236 307.788 277.116 308.148C276.896 308.868 276.676 309.578 276.446 310.288C276.216 311.008 275.986 311.718 275.756 312.438C275.546 313.088 275.336 313.728 275.096 314.408C274.916 314.918 274.756 315.428 274.586 315.938C274.546 316.048 274.506 316.158 274.466 316.268C274.186 317.078 273.896 317.888 273.606 318.698C273.336 319.448 273.066 320.188 272.796 320.928C272.626 321.398 272.446 321.858 272.276 322.328C272.086 322.848 271.886 323.368 271.686 323.888C271.376 324.688 271.066 325.488 270.746 326.288C270.696 326.438 270.636 326.578 270.576 326.728C269.756 326.558 268.946 326.388 268.126 326.218C239.486 319.968 213.506 305.008 193.066 283.998C190.696 281.568 188.366 279.108 186.066 276.618C160.006 248.328 147.016 214.998 149.246 176.278C150.006 163.188 154.226 150.808 158.886 138.718C164.876 123.158 171.576 107.868 177.976 92.4583L178.086 92.2283C178.176 92.0583 178.246 91.8883 178.346 91.7383C178.406 91.6283 178.466 91.5183 178.526 91.4083C178.786 90.9583 179.046 90.5483 179.326 90.1983C179.386 90.1183 179.456 90.0383 179.516 89.9683C179.646 89.8083 179.786 89.6483 179.936 89.5083C180.036 89.4083 180.146 89.3083 180.246 89.2183C180.626 88.8883 181.026 88.6383 181.436 88.4783C181.456 88.4683 181.476 88.4583 181.506 88.4483C181.586 88.4183 181.666 88.3883 181.756 88.3683C181.836 88.3483 181.906 88.3283 181.986 88.3083C182.006 88.3083 182.016 88.3083 182.036 88.3083C182.036 88.3083 182.066 88.3083 182.076 88.2983H182.116C182.116 88.2983 182.146 88.2883 182.156 88.2883H182.176C182.236 88.2783 182.296 88.2683 182.356 88.2583C182.446 88.2483 182.546 88.2383 182.636 88.2383H182.796C182.906 88.2383 183.026 88.2483 183.136 88.2683C183.146 88.2683 183.156 88.2683 183.166 88.2683C183.436 88.3083 183.706 88.3783 183.976 88.4883C184.086 88.5283 184.196 88.5783 184.306 88.6283C184.436 88.6883 184.566 88.7583 184.696 88.8283C184.696 88.8283 184.696 88.8283 184.706 88.8283C184.706 88.8283 184.716 88.8383 184.726 88.8383C184.816 88.8883 184.896 88.9383 184.986 88.9983C185.046 89.0383 185.106 89.0783 185.166 89.1283C185.246 89.1783 185.316 89.2383 185.396 89.2883C185.476 89.3383 185.546 89.3983 185.626 89.4683C185.826 89.6283 186.026 89.8083 186.236 90.0183C186.336 90.1183 186.436 90.2183 186.546 90.3283C186.746 90.5483 186.946 90.7783 187.156 91.0283C187.256 91.1583 187.356 91.2883 187.466 91.4183C194.636 100.798 196.226 111.278 193.046 122.408C192.406 124.668 191.736 126.928 191.046 129.178C190.716 130.248 190.386 131.318 190.056 132.388C189.386 134.538 188.686 136.678 187.986 138.818C187.816 139.338 187.636 139.868 187.466 140.388C186.836 142.298 186.186 144.198 185.526 146.088C185.206 147.008 184.886 147.928 184.566 148.838C179.406 163.418 180.156 177.668 185.846 191.938C186.126 192.648 186.416 193.358 186.706 194.068C187.416 195.798 188.146 197.518 188.906 199.228C189.186 199.878 189.476 200.528 189.776 201.168C190.006 201.678 190.236 202.178 190.466 202.678C190.696 203.178 190.926 203.688 191.166 204.178C191.196 204.248 191.216 204.298 191.256 204.358C191.546 204.978 191.846 205.588 192.146 206.208C192.406 206.728 192.656 207.238 192.916 207.758C193.296 208.518 193.686 209.278 194.086 210.038C194.306 210.468 194.536 210.898 194.766 211.318C195.796 213.248 196.856 215.138 197.976 217.018C198.176 217.358 198.376 217.708 198.586 218.048C198.626 218.118 198.666 218.188 198.716 218.258C199.026 218.768 199.326 219.268 199.646 219.768C199.846 220.098 200.056 220.418 200.266 220.748C200.976 221.878 201.706 222.988 202.466 224.088C202.706 224.458 202.956 224.808 203.206 225.168C203.836 226.068 204.476 226.968 205.116 227.848C205.396 228.228 205.676 228.598 205.956 228.968C206.766 230.048 207.596 231.108 208.446 232.168C208.876 232.688 209.296 233.208 209.736 233.728C210.666 234.838 211.626 235.938 212.606 237.018C212.876 237.328 213.156 237.628 213.446 237.938C213.756 238.268 214.066 238.608 214.376 238.928C218.126 242.868 222.756 246.278 227.566 248.848C227.736 248.938 227.906 249.018 228.076 249.108C228.246 249.188 228.416 249.268 228.586 249.338C228.806 249.428 229.036 249.528 229.266 249.608C229.476 249.688 229.696 249.748 229.906 249.818C230.366 249.958 230.836 250.058 231.296 250.138C231.516 250.168 231.746 250.198 231.966 250.218C234.736 250.488 237.346 249.638 239.376 247.898C239.596 247.708 239.816 247.508 240.016 247.298C240.116 247.188 240.216 247.088 240.316 246.968L240.366 246.918C241.066 246.118 241.676 245.188 242.146 244.148C242.216 244.008 242.276 243.868 242.326 243.728C242.396 243.568 242.456 243.408 242.516 243.248C242.546 243.178 242.566 243.098 242.596 243.028C242.646 242.878 242.696 242.738 242.736 242.578C242.746 242.568 242.746 242.548 242.746 242.538C242.816 242.338 242.866 242.138 242.916 241.928C242.956 241.758 242.996 241.588 243.026 241.418C243.906 237.078 243.816 232.398 243.386 227.938C243.336 227.418 243.286 226.898 243.216 226.378C243.216 226.298 243.196 226.208 243.186 226.118C243.156 225.838 243.116 225.568 243.086 225.288C243.086 225.248 243.086 225.198 243.066 225.158C243.036 224.898 242.996 224.638 242.966 224.378C242.896 223.838 242.816 223.308 242.736 222.768C242.696 222.458 242.646 222.158 242.596 221.858C242.496 221.188 242.386 220.528 242.266 219.868C242.146 219.138 242.016 218.418 241.896 217.698C241.626 216.168 241.356 214.638 241.106 213.108C241.066 212.838 241.016 212.558 240.976 212.278C240.916 211.918 240.866 211.558 240.806 211.188C240.756 210.828 240.696 210.468 240.646 210.098C240.596 209.738 240.546 209.368 240.496 209.008C240.106 205.978 239.946 202.808 240.366 199.798C240.386 199.648 240.406 199.508 240.436 199.368C240.466 199.228 240.486 199.088 240.526 198.948C240.566 198.808 240.596 198.678 240.636 198.548C240.666 198.418 240.716 198.288 240.756 198.158C240.796 198.028 240.846 197.908 240.896 197.788C240.956 197.638 241.026 197.488 241.096 197.348C241.306 196.918 241.546 196.528 241.836 196.178C241.916 196.088 241.986 195.988 242.066 195.908C242.146 195.818 242.226 195.738 242.316 195.648C242.396 195.568 242.476 195.488 242.566 195.408C242.656 195.328 242.746 195.258 242.836 195.188C242.926 195.118 243.026 195.048 243.116 194.978C243.216 194.908 243.316 194.848 243.416 194.788C243.546 194.708 243.676 194.648 243.806 194.578C243.816 194.578 243.826 194.568 243.836 194.558C243.896 194.528 243.956 194.508 244.016 194.478C244.026 194.478 244.036 194.468 244.046 194.458C244.086 194.438 244.126 194.428 244.156 194.408C244.176 194.408 244.186 194.398 244.206 194.388C244.576 194.238 244.966 194.118 245.376 194.038C245.496 194.018 245.616 193.998 245.736 193.978C245.916 193.948 246.106 193.928 246.296 193.928C246.436 193.918 246.576 193.908 246.716 193.908C247.166 193.908 247.626 193.938 248.096 194.018C248.566 194.098 249.036 194.218 249.526 194.368C254.566 196.028 257.946 199.808 261.016 203.858C261.386 204.358 261.756 204.848 262.116 205.358C262.306 205.618 262.496 205.888 262.676 206.148C262.806 206.348 262.946 206.538 263.076 206.738C263.256 206.998 263.426 207.258 263.596 207.528C264.326 208.628 265.026 209.738 265.696 210.868C265.866 211.148 266.036 211.438 266.206 211.718C268.226 215.168 270.016 218.738 271.736 222.348C271.986 222.868 272.226 223.378 272.466 223.898C272.836 224.688 273.206 225.488 273.576 226.288C274.686 228.678 275.776 231.068 276.886 233.458C287.416 255.968 285.286 278.758 279.046 301.698L278.996 301.668Z" fill="white"/>
<path d="M233.566 94.3898C245.247 94.3898 254.716 84.9208 254.716 73.2398C254.716 61.5588 245.247 52.0898 233.566 52.0898C221.885 52.0898 212.416 61.5588 212.416 73.2398C212.416 84.9208 221.885 94.3898 233.566 94.3898Z" fill="white"/>
<path d="M706.11 107.559V61.6387H688V50.9688H737.31V61.6387H719.2V107.559H706.1H706.11Z" fill="white"/>
<path d="M734.08 107.559L759.3 50.9688H772.23L797.53 107.559H783.79L763.1 57.5987H768.27L747.49 107.559H734.07H734.08ZM746.69 95.4287L750.17 85.4887H779.27L782.83 95.4287H746.7H746.69Z" fill="white"/>
<path d="M822.03 108.53C817.5 108.53 813.16 107.92 809.02 106.71C804.87 105.5 801.53 103.92 799 101.98L803.45 92.12C805.88 93.84 808.74 95.26 812.06 96.36C815.37 97.47 818.73 98.02 822.12 98.02C824.71 98.02 826.79 97.77 828.38 97.25C829.97 96.74 831.14 96.02 831.9 95.11C832.65 94.19 833.03 93.14 833.03 91.96C833.03 90.45 832.44 89.25 831.25 88.36C830.06 87.47 828.5 86.74 826.56 86.18C824.62 85.61 822.48 85.08 820.13 84.56C817.79 84.05 815.44 83.42 813.1 82.66C810.76 81.91 808.61 80.94 806.67 79.75C804.73 78.57 803.15 77 801.94 75.06C800.73 73.12 800.12 70.64 800.12 67.62C800.12 64.39 801 61.44 802.75 58.77C804.5 56.1 807.14 53.97 810.67 52.38C814.2 50.79 818.63 50 823.97 50C827.53 50 831.03 50.42 834.48 51.25C837.93 52.09 840.97 53.34 843.61 55.01L839.57 64.95C836.93 63.44 834.29 62.32 831.65 61.59C829.01 60.86 826.42 60.5 823.89 60.5C821.36 60.5 819.28 60.8 817.67 61.39C816.05 61.98 814.89 62.75 814.19 63.69C813.49 64.63 813.14 65.72 813.14 66.96C813.14 68.42 813.73 69.59 814.92 70.48C816.1 71.37 817.67 72.08 819.61 72.62C821.55 73.16 823.69 73.7 826.04 74.24C828.38 74.78 830.73 75.4 833.07 76.1C835.41 76.8 837.56 77.74 839.5 78.93C841.44 80.12 843.02 81.68 844.23 83.62C845.44 85.56 846.05 88.01 846.05 90.98C846.05 94.16 845.16 97.07 843.38 99.71C841.6 102.35 838.95 104.48 835.42 106.1C831.89 107.72 827.43 108.52 822.04 108.52L822.03 108.53Z" fill="white"/>
<path d="M868.11 107.559H855.01V50.9688H868.11V107.559ZM894.79 84.3587H867.14V73.2887H894.79V84.3587ZM893.82 50.9688H906.92V107.559H893.82V50.9688Z" fill="white"/>
<path d="M920.33 107.559V50.9688H933.35V107.559H920.33ZM932.05 94.6287L931.32 79.5087L958.4 50.9688H972.95L948.54 77.2387L941.26 84.9987L932.04 94.6187L932.05 94.6287ZM959.05 107.559L938.92 82.8987L947.49 73.5987L974.33 107.549H959.05V107.559Z" fill="white"/>
<path d="M993.16 97.0487H1023.96V107.559H980.15V50.9688H1022.91V61.4787H993.16V97.0487ZM992.19 73.7687H1019.43V83.9587H992.19V73.7687Z" fill="white"/>
<path d="M1034.39 107.559V50.9688H1045.22L1078.6 91.7087H1073.35V50.9688H1086.28V107.559H1075.53L1042.06 66.8187H1047.31V107.559H1034.38H1034.39Z" fill="white"/>
<path d="M1111.42 107.559V61.6387H1093.31V50.9688H1142.62V61.6387H1124.51V107.559H1111.41H1111.42Z" fill="white"/>
<path d="M694.39 204.559V147.969H707.49V204.559H694.39Z" fill="white"/>
<path d="M720.9 204.559V147.969H731.73L765.11 188.709H759.86V147.969H772.79V204.559H762.04L728.57 163.819H733.82V204.559H720.89H720.9Z" fill="white"/>
<path d="M797.94 204.559V158.639H779.83V147.969H829.14V158.639H811.03V204.559H797.93H797.94Z" fill="white"/>
<path d="M849.19 194.049H879.99V204.559H836.18V147.969H878.94V158.479H849.19V194.049ZM848.22 170.769H875.46V180.959H848.22V170.769Z" fill="white"/>
<path d="M890.42 204.559V147.969H914.91C919.97 147.969 924.34 148.789 928.01 150.439C931.67 152.079 934.5 154.439 936.5 157.509C938.49 160.579 939.49 164.249 939.49 168.499C939.49 172.749 938.49 176.329 936.5 179.369C934.51 182.409 931.68 184.749 928.01 186.359C924.34 187.979 919.98 188.789 914.91 188.789H897.69L903.51 183.049V204.549H890.41L890.42 204.559ZM903.52 184.509L897.7 178.369H914.19C918.23 178.369 921.25 177.489 923.24 175.739C925.23 173.989 926.23 171.579 926.23 168.509C926.23 165.439 925.23 162.959 923.24 161.229C921.25 159.509 918.23 158.639 914.19 158.639H897.7L903.52 152.419V184.509ZM926.4 204.559L912.25 184.029H926.24L940.55 204.559H926.4Z" fill="white"/>
<path d="M949.83 204.559V147.969H960.66L994.04 188.709H988.79V147.969H1001.72V204.559H990.97L957.5 163.819H962.75V204.559H949.82H949.83Z" fill="white"/>
<path d="M1007.71 204.559L1032.93 147.969H1045.86L1071.16 204.559H1057.42L1036.73 154.599H1041.9L1021.12 204.559H1007.7H1007.71ZM1020.32 192.429L1023.8 182.489H1052.9L1056.46 192.429H1020.33H1020.32Z" fill="white"/>
<path d="M1085.96 204.559V158.639H1067.85V147.969H1117.16V158.639H1099.05V204.559H1085.95H1085.96Z" fill="white"/>
<path d="M1124.19 204.559V147.969H1137.29V204.559H1124.19Z" fill="white"/>
<path d="M1178.19 205.532C1173.72 205.532 1169.58 204.802 1165.78 203.352C1161.98 201.892 1158.69 199.852 1155.92 197.212C1153.14 194.572 1150.99 191.472 1149.45 187.912C1147.91 184.352 1147.15 180.472 1147.15 176.272C1147.15 172.072 1147.92 168.192 1149.45 164.632C1150.99 161.072 1153.16 157.972 1155.96 155.332C1158.76 152.692 1162.05 150.642 1165.82 149.192C1169.59 147.732 1173.69 147.012 1178.11 147.012C1182.53 147.012 1186.69 147.742 1190.44 149.192C1194.19 150.652 1197.44 152.692 1200.22 155.332C1203 157.972 1205.16 161.062 1206.73 164.592C1208.29 168.122 1209.07 172.012 1209.07 176.272C1209.07 180.532 1208.29 184.372 1206.73 187.952C1205.17 191.532 1203 194.632 1200.22 197.252C1197.44 199.862 1194.18 201.902 1190.44 203.352C1186.69 204.812 1182.61 205.532 1178.19 205.532ZM1178.11 194.372C1180.64 194.372 1182.97 193.942 1185.1 193.082C1187.23 192.222 1189.1 190.982 1190.72 189.362C1192.34 187.742 1193.59 185.832 1194.48 183.622C1195.37 181.412 1195.81 178.962 1195.81 176.262C1195.81 173.562 1195.37 171.112 1194.48 168.902C1193.59 166.692 1192.35 164.782 1190.76 163.162C1189.17 161.542 1187.3 160.302 1185.14 159.442C1182.98 158.582 1180.64 158.152 1178.11 158.152C1175.58 158.152 1173.25 158.582 1171.12 159.442C1168.99 160.302 1167.12 161.542 1165.5 163.162C1163.88 164.782 1162.63 166.692 1161.74 168.902C1160.85 171.112 1160.41 173.562 1160.41 176.262C1160.41 178.962 1160.85 181.342 1161.74 183.582C1162.63 185.822 1163.87 187.742 1165.46 189.362C1167.05 190.982 1168.92 192.222 1171.08 193.082C1173.24 193.942 1175.58 194.372 1178.11 194.372Z" fill="white"/>
<path d="M1218.93 204.559V147.969H1229.76L1263.14 188.709H1257.89V147.969H1270.82V204.559H1260.07L1226.6 163.819H1231.85V204.559H1218.92H1218.93Z" fill="white"/>
<path d="M1276.81 204.559L1302.03 147.969H1314.96L1340.26 204.559H1326.52L1305.83 154.599H1311L1290.22 204.559H1276.8H1276.81ZM1289.42 192.429L1292.9 182.489H1322L1325.56 192.429H1289.43H1289.42Z" fill="white"/>
<path d="M1346.17 204.559V147.969H1359.27V193.889H1387.64V204.559H1346.17Z" fill="white"/>
<path d="M721.47 302.532C717.1 302.532 713.05 301.822 709.3 300.392C705.55 298.962 702.31 296.932 699.56 294.292C696.81 291.652 694.67 288.552 693.13 284.992C691.59 281.432 690.83 277.532 690.83 273.272C690.83 269.012 691.6 265.112 693.13 261.552C694.67 257.992 696.82 254.902 699.6 252.252C702.37 249.612 705.62 247.582 709.34 246.152C713.06 244.722 717.13 244.012 721.55 244.012C726.45 244.012 730.89 244.862 734.85 246.562C738.81 248.262 742.14 250.752 744.83 254.042L736.42 261.802C734.48 259.592 732.32 257.932 729.95 256.832C727.58 255.732 724.99 255.172 722.19 255.172C719.55 255.172 717.12 255.602 714.91 256.462C712.7 257.322 710.79 258.562 709.17 260.182C707.55 261.802 706.3 263.712 705.41 265.922C704.52 268.132 704.08 270.582 704.08 273.282C704.08 275.982 704.52 278.432 705.41 280.642C706.3 282.852 707.55 284.762 709.17 286.382C710.79 288.002 712.7 289.242 714.91 290.102C717.12 290.962 719.54 291.392 722.19 291.392C724.99 291.392 727.58 290.842 729.95 289.732C732.32 288.632 734.48 286.942 736.42 284.682L744.83 292.442C742.13 295.732 738.81 298.232 734.85 299.962C730.89 301.682 726.43 302.552 721.47 302.552V302.532Z" fill="white"/>
<path d="M753.64 301.57V244.98H766.74V290.9H795.11V301.57H753.64Z" fill="white"/>
<path d="M802.47 301.57V244.98H815.57V301.57H802.47Z" fill="white"/>
<path d="M828.98 301.57V244.98H839.81L873.19 285.72H867.94V244.98H880.87V301.57H870.12L836.65 260.831H841.9V301.57H828.97H828.98Z" fill="white"/>
<path d="M894.3 301.57V244.98H907.4V301.57H894.3Z" fill="white"/>
<path d="M947.89 302.532C943.52 302.532 939.47 301.822 935.72 300.392C931.97 298.962 928.73 296.932 925.98 294.292C923.23 291.652 921.09 288.552 919.55 284.992C918.01 281.432 917.25 277.532 917.25 273.272C917.25 269.012 918.02 265.112 919.55 261.552C921.09 257.992 923.24 254.902 926.02 252.252C928.79 249.612 932.04 247.582 935.76 246.152C939.48 244.722 943.55 244.012 947.97 244.012C952.87 244.012 957.31 244.862 961.27 246.562C965.23 248.262 968.56 250.752 971.25 254.042L962.84 261.802C960.9 259.592 958.74 257.932 956.37 256.832C954 255.732 951.41 255.172 948.61 255.172C945.97 255.172 943.54 255.602 941.33 256.462C939.12 257.322 937.21 258.562 935.59 260.182C933.97 261.802 932.72 263.712 931.83 265.922C930.94 268.132 930.5 270.582 930.5 273.282C930.5 275.982 930.94 278.432 931.83 280.642C932.72 282.852 933.97 284.762 935.59 286.382C937.21 288.002 939.12 289.242 941.33 290.102C943.54 290.962 945.96 291.392 948.61 291.392C951.41 291.392 954 290.842 956.37 289.732C958.74 288.632 960.9 286.942 962.84 284.682L971.25 292.442C968.55 295.732 965.23 298.232 961.27 299.962C957.31 301.682 952.85 302.552 947.89 302.552V302.532Z" fill="white"/>
</svg>
