<svg width="1418" height="327" viewBox="0 0 1418 327" fill="none" xmlns="http://www.w3.org/2000/svg">
<path d="M735.53 106.36V60.4395H717.42V49.7695H766.73V60.4395H748.62V106.36H735.52H735.53Z" fill="#02467E"/>
<path d="M763.5 106.36L788.72 49.7695H801.65L826.95 106.36H813.21L792.52 56.3995H797.69L776.91 106.36H763.49H763.5ZM776.11 94.2295L779.59 84.2895H808.69L812.25 94.2295H776.12H776.11Z" fill="#02467E"/>
<path d="M851.45 107.331C846.92 107.331 842.58 106.721 838.44 105.511C834.29 104.301 830.95 102.721 828.42 100.781L832.87 90.9208C835.3 92.6408 838.16 94.0608 841.48 95.1608C844.79 96.2708 848.15 96.8208 851.54 96.8208C854.13 96.8208 856.21 96.5708 857.8 96.0508C859.39 95.5408 860.56 94.8208 861.32 93.9108C862.07 92.9908 862.45 91.9408 862.45 90.7608C862.45 89.2508 861.86 88.0508 860.67 87.1608C859.48 86.2708 857.92 85.5408 855.98 84.9808C854.04 84.4108 851.9 83.8808 849.55 83.3608C847.21 82.8508 844.86 82.2208 842.52 81.4608C840.18 80.7108 838.03 79.7408 836.09 78.5508C834.15 77.3708 832.57 75.8008 831.36 73.8608C830.15 71.9208 829.54 69.4408 829.54 66.4208C829.54 63.1908 830.42 60.2408 832.17 57.5708C833.92 54.9008 836.56 52.7708 840.09 51.1808C843.62 49.5908 848.05 48.8008 853.39 48.8008C856.95 48.8008 860.45 49.2208 863.9 50.0508C867.35 50.8908 870.39 52.1408 873.03 53.8108L868.99 63.7508C866.35 62.2408 863.71 61.1208 861.07 60.3908C858.43 59.6608 855.84 59.3008 853.31 59.3008C850.78 59.3008 848.7 59.6008 847.09 60.1908C845.47 60.7808 844.31 61.5508 843.61 62.4908C842.91 63.4308 842.56 64.5208 842.56 65.7608C842.56 67.2208 843.15 68.3908 844.34 69.2808C845.52 70.1708 847.09 70.8808 849.03 71.4208C850.97 71.9608 853.11 72.5008 855.46 73.0408C857.8 73.5808 860.15 74.2008 862.49 74.9008C864.83 75.6008 866.98 76.5408 868.92 77.7308C870.86 78.9208 872.44 80.4808 873.65 82.4208C874.86 84.3608 875.47 86.8108 875.47 89.7808C875.47 92.9608 874.58 95.8708 872.8 98.5108C871.02 101.151 868.37 103.281 864.84 104.901C861.31 106.521 856.85 107.321 851.46 107.321L851.45 107.331Z" fill="#02467E"/>
<path d="M897.53 106.36H884.43V49.7695H897.53V106.36ZM924.21 83.1595H896.56V72.0895H924.21V83.1595ZM923.24 49.7695H936.34V106.36H923.24V49.7695Z" fill="#02467E"/>
<path d="M949.75 106.36V49.7695H962.77V106.36H949.75ZM961.47 93.4295L960.74 78.3095L987.82 49.7695H1002.37L977.96 76.0395L970.68 83.7995L961.46 93.4195L961.47 93.4295ZM988.47 106.36L968.34 81.6995L976.91 72.3995L1003.75 106.35H988.47V106.36Z" fill="#02467E"/>
<path d="M1022.58 95.8495H1053.38V106.36H1009.57V49.7695H1052.33V60.2795H1022.58V95.8495ZM1021.61 72.5695H1048.85V82.7595H1021.61V72.5695Z" fill="#02467E"/>
<path d="M1063.81 106.36V49.7695H1074.64L1108.02 90.5095H1102.77V49.7695H1115.7V106.36H1104.95L1071.48 65.6195H1076.73V106.36H1063.8H1063.81Z" fill="#02467E"/>
<path d="M1140.84 106.36V60.4395H1122.73V49.7695H1172.04V60.4395H1153.93V106.36H1140.83H1140.84Z" fill="#02467E"/>
<path d="M723.81 203.36V146.77H736.91V203.36H723.81Z" fill="#02467E"/>
<path d="M750.32 203.36V146.77H761.15L794.53 187.51H789.28V146.77H802.21V203.36H791.46L757.99 162.62H763.24V203.36H750.31H750.32Z" fill="#02467E"/>
<path d="M827.36 203.36V157.44H809.25V146.77H858.56V157.44H840.45V203.36H827.35H827.36Z" fill="#02467E"/>
<path d="M878.61 192.85H909.41V203.36H865.6V146.77H908.36V157.28H878.61V192.85ZM877.64 169.57H904.88V179.76H877.64V169.57Z" fill="#02467E"/>
<path d="M919.84 203.36V146.77H944.33C949.39 146.77 953.76 147.59 957.43 149.24C961.09 150.88 963.92 153.24 965.92 156.31C967.91 159.38 968.91 163.05 968.91 167.3C968.91 171.55 967.91 175.13 965.92 178.17C963.93 181.21 961.1 183.55 957.43 185.16C953.76 186.78 949.4 187.59 944.33 187.59H927.11L932.93 181.85V203.35H919.83L919.84 203.36ZM932.94 183.31L927.12 177.17H943.61C947.65 177.17 950.67 176.29 952.66 174.54C954.65 172.79 955.65 170.38 955.65 167.31C955.65 164.24 954.65 161.76 952.66 160.03C950.67 158.31 947.65 157.44 943.61 157.44H927.12L932.94 151.22V183.31ZM955.82 203.36L941.67 182.83H955.66L969.97 203.36H955.82Z" fill="#02467E"/>
<path d="M979.25 203.36V146.77H990.08L1023.46 187.51H1018.21V146.77H1031.14V203.36H1020.39L986.92 162.62H992.17V203.36H979.24H979.25Z" fill="#02467E"/>
<path d="M1037.13 203.36L1062.35 146.77H1075.28L1100.58 203.36H1086.84L1066.15 153.4H1071.32L1050.54 203.36H1037.12H1037.13ZM1049.74 191.23L1053.22 181.29H1082.32L1085.88 191.23H1049.75H1049.74Z" fill="#02467E"/>
<path d="M1115.38 203.36V157.44H1097.27V146.77H1146.58V157.44H1128.47V203.36H1115.37H1115.38Z" fill="#02467E"/>
<path d="M1153.61 203.36V146.77H1166.71V203.36H1153.61Z" fill="#02467E"/>
<path d="M1207.61 204.332C1203.14 204.332 1199 203.602 1195.2 202.152C1191.4 200.692 1188.11 198.652 1185.34 196.012C1182.56 193.372 1180.41 190.272 1178.87 186.712C1177.33 183.152 1176.57 179.272 1176.57 175.072C1176.57 170.872 1177.34 166.992 1178.87 163.432C1180.41 159.872 1182.58 156.773 1185.38 154.133C1188.18 151.493 1191.47 149.442 1195.24 147.992C1199.01 146.532 1203.11 145.812 1207.53 145.812C1211.95 145.812 1216.11 146.542 1219.86 147.992C1223.61 149.452 1226.86 151.493 1229.64 154.133C1232.42 156.773 1234.58 159.862 1236.15 163.392C1237.71 166.922 1238.49 170.812 1238.49 175.072C1238.49 179.332 1237.71 183.173 1236.15 186.753C1234.59 190.333 1232.42 193.432 1229.64 196.052C1226.86 198.662 1223.6 200.702 1219.86 202.152C1216.11 203.612 1212.03 204.332 1207.61 204.332ZM1207.53 193.172C1210.06 193.172 1212.39 192.743 1214.52 191.883C1216.65 191.023 1218.52 189.782 1220.14 188.162C1221.76 186.542 1223.01 184.632 1223.9 182.422C1224.79 180.212 1225.23 177.763 1225.23 175.062C1225.23 172.362 1224.79 169.912 1223.9 167.702C1223.01 165.492 1221.77 163.582 1220.18 161.962C1218.59 160.342 1216.72 159.102 1214.56 158.242C1212.4 157.382 1210.06 156.952 1207.53 156.952C1205 156.952 1202.67 157.382 1200.54 158.242C1198.41 159.102 1196.54 160.342 1194.92 161.962C1193.3 163.582 1192.05 165.492 1191.16 167.702C1190.27 169.912 1189.83 172.362 1189.83 175.062C1189.83 177.763 1190.27 180.143 1191.16 182.383C1192.05 184.623 1193.29 186.542 1194.88 188.162C1196.47 189.782 1198.34 191.023 1200.5 191.883C1202.66 192.743 1205 193.172 1207.53 193.172Z" fill="#02467E"/>
<path d="M1248.35 203.36V146.77H1259.18L1292.56 187.51H1287.31V146.77H1300.24V203.36H1289.49L1256.02 162.62H1261.27V203.36H1248.34H1248.35Z" fill="#02467E"/>
<path d="M1306.23 203.36L1331.45 146.77H1344.38L1369.68 203.36H1355.94L1335.25 153.4H1340.42L1319.64 203.36H1306.22H1306.23ZM1318.84 191.23L1322.32 181.29H1351.42L1354.98 191.23H1318.85H1318.84Z" fill="#02467E"/>
<path d="M1375.59 203.36V146.77H1388.69V192.69H1417.06V203.36H1375.59Z" fill="#02467E"/>
<path d="M750.89 301.332C746.52 301.332 742.47 300.623 738.72 299.193C734.97 297.763 731.73 295.732 728.98 293.092C726.23 290.452 724.09 287.352 722.55 283.792C721.01 280.232 720.25 276.332 720.25 272.072C720.25 267.812 721.02 263.912 722.55 260.352C724.09 256.792 726.24 253.702 729.02 251.052C731.79 248.412 735.04 246.382 738.76 244.952C742.48 243.522 746.55 242.812 750.97 242.812C755.87 242.812 760.31 243.662 764.27 245.362C768.23 247.062 771.56 249.552 774.25 252.842L765.84 260.602C763.9 258.392 761.74 256.733 759.37 255.633C757 254.533 754.41 253.972 751.61 253.972C748.97 253.972 746.54 254.402 744.33 255.262C742.12 256.122 740.21 257.362 738.59 258.982C736.97 260.602 735.72 262.512 734.83 264.722C733.94 266.932 733.5 269.382 733.5 272.082C733.5 274.782 733.94 277.233 734.83 279.443C735.72 281.653 736.97 283.562 738.59 285.182C740.21 286.802 742.12 288.042 744.33 288.902C746.54 289.762 748.96 290.193 751.61 290.193C754.41 290.193 757 289.642 759.37 288.532C761.74 287.432 763.9 285.742 765.84 283.482L774.25 291.242C771.55 294.532 768.23 297.032 764.27 298.762C760.31 300.482 755.85 301.352 750.89 301.352V301.332Z" fill="#7EC3EA"/>
<path d="M783.06 300.371V243.781H796.16V289.701H824.53V300.371H783.06Z" fill="#7EC3EA"/>
<path d="M831.89 300.371V243.781H844.99V300.371H831.89Z" fill="#7EC3EA"/>
<path d="M858.4 300.371V243.781H869.23L902.61 284.521H897.36V243.781H910.29V300.371H899.54L866.07 259.631H871.32V300.371H858.39H858.4Z" fill="#7EC3EA"/>
<path d="M923.72 300.371V243.781H936.82V300.371H923.72Z" fill="#7EC3EA"/>
<path d="M977.31 301.332C972.94 301.332 968.89 300.623 965.14 299.193C961.39 297.763 958.15 295.732 955.4 293.092C952.65 290.452 950.51 287.352 948.97 283.792C947.43 280.232 946.67 276.332 946.67 272.072C946.67 267.812 947.44 263.912 948.97 260.352C950.51 256.792 952.66 253.702 955.44 251.052C958.21 248.412 961.46 246.382 965.18 244.952C968.9 243.522 972.97 242.812 977.39 242.812C982.29 242.812 986.73 243.662 990.69 245.362C994.65 247.062 997.98 249.552 1000.67 252.842L992.26 260.602C990.32 258.392 988.16 256.733 985.79 255.633C983.42 254.533 980.83 253.972 978.03 253.972C975.39 253.972 972.96 254.402 970.75 255.262C968.54 256.122 966.63 257.362 965.01 258.982C963.39 260.602 962.14 262.512 961.25 264.722C960.36 266.932 959.92 269.382 959.92 272.082C959.92 274.782 960.36 277.233 961.25 279.443C962.14 281.653 963.39 283.562 965.01 285.182C966.63 286.802 968.54 288.042 970.75 288.902C972.96 289.762 975.38 290.193 978.03 290.193C980.83 290.193 983.42 289.642 985.79 288.532C988.16 287.432 990.32 285.742 992.26 283.482L1000.67 291.242C997.97 294.532 994.65 297.032 990.69 298.762C986.73 300.482 982.27 301.352 977.31 301.352V301.332Z" fill="#7EC3EA"/>
<path opacity="0.58" d="M396.55 177.301C396.55 99.151 456.56 43.2109 537.3 43.2109C582.12 43.2109 619.53 59.511 643.98 89.141L605.46 124.701C588.05 104.701 566.2 94.331 540.27 94.331C491.75 94.331 457.3 128.411 457.3 177.301C457.3 226.191 491.75 260.271 540.27 260.271C566.2 260.271 588.05 249.901 605.46 229.531L643.98 265.091C619.53 295.091 582.12 311.391 536.93 311.391C456.55 311.391 396.55 255.461 396.55 177.301Z" fill="url(#paint0_linear_306_76)"/>
<path opacity="0.58" d="M85.54 99.4491H0V49.0391H232.95V99.4491H147.41V316.359H85.54V99.4491Z" fill="url(#paint1_linear_306_76)"/>
<path d="M372.969 122.74C377.099 113.19 384.359 112.16 387.289 112.16C388.289 112.16 389.439 112.26 390.679 112.57C384.969 106.3 378.169 102.66 370.869 102.66C364.409 102.66 358.349 105.51 353.069 110.53C354.979 113.21 356.809 116.05 358.569 119.05C361.809 124.61 364.709 130.59 367.229 136.92C368.079 139.02 368.869 141.16 369.629 143.34C369.359 140.75 369.349 138.18 369.589 135.63C369.989 131.3 371.109 127.01 372.959 122.74H372.969Z" fill="url(#paint2_linear_306_76)"/>
<path d="M377.27 235.801C379.1 234.451 380.78 232.971 382.26 231.421C389.06 224.281 394.95 215.971 400.29 205.921L399.71 204.611L397.93 200.611C397.22 199.021 396.6 197.491 396 196.021C394.85 193.221 393.86 190.801 392.68 188.821C390.1 184.501 387.34 180.321 384.42 175.891C382.4 172.841 380.32 169.681 378.3 166.481C376.76 164.031 375.42 161.611 374.29 159.211C377.76 173.641 379.58 189.191 379.58 205.161C379.58 212.621 379.18 220.001 378.4 227.201C378.09 230.091 377.72 232.971 377.29 235.811L377.27 235.801Z" fill="url(#paint3_linear_306_76)"/>
<path d="M370.87 94.3899C382.551 94.3899 392.02 84.9207 392.02 73.2399C392.02 61.559 382.551 52.0898 370.87 52.0898C359.189 52.0898 349.72 61.559 349.72 73.2399C349.72 84.9207 359.189 94.3899 370.87 94.3899Z" fill="url(#paint4_linear_306_76)"/>
<path d="M238.75 132.638C240.83 127.878 243.13 123.328 245.63 119.038C247.38 116.038 249.21 113.198 251.13 110.518C245.86 105.508 239.79 102.648 233.33 102.648C226.04 102.648 219.24 106.288 213.52 112.558C214.76 112.248 215.91 112.138 216.91 112.138C219.84 112.138 227.1 113.168 231.23 122.718C232.33 125.278 233.18 127.828 233.76 130.408C234.74 134.668 235.01 138.958 234.56 143.318C235.83 139.648 237.23 136.078 238.74 132.618L238.75 132.638Z" fill="url(#paint5_linear_306_76)"/>
<path d="M225.92 166.469C223.9 169.669 221.82 172.829 219.81 175.879C216.89 180.299 214.12 184.489 211.54 188.809C210.35 190.789 209.37 193.209 208.22 196.009C207.62 197.479 207 199.009 206.29 200.599L204.51 204.599L203.93 205.909C209.27 215.959 215.17 224.279 221.96 231.419C223.44 232.969 225.12 234.449 226.95 235.799C226.51 232.959 226.14 230.089 225.84 227.189C225.06 219.989 224.66 212.609 224.66 205.149C224.66 189.169 226.48 173.629 229.95 159.199C228.82 161.599 227.48 164.019 225.94 166.469H225.92Z" fill="url(#paint6_linear_306_76)"/>
<path opacity="0.58" d="M319.9 224.252C324.04 215.232 328.33 205.902 334.83 197.302C335.78 196.042 336.81 194.752 337.93 193.492C339.45 191.782 341.14 190.112 343.08 188.612C345.49 186.742 348.29 185.142 351.58 184.052C353.63 183.372 355.71 183.032 357.76 183.032C361.55 183.032 365 184.182 367.81 186.212C366.34 171.122 363.13 157.032 358.56 144.572C355.1 135.132 350.85 126.622 345.97 119.312C334.25 101.742 318.9 91.1016 302.11 91.1016C285.32 91.1016 269.96 101.752 258.24 119.312C254.17 125.412 250.54 132.342 247.44 139.962C241.91 153.522 238.06 169.232 236.41 186.212C239.22 184.182 242.68 183.032 246.46 183.032C248.51 183.032 250.59 183.372 252.64 184.052C257.21 185.552 260.8 188.042 263.77 190.862C264.67 191.712 265.51 192.592 266.29 193.482C267.41 194.752 268.44 196.042 269.39 197.292C275.9 205.892 280.18 215.222 284.32 224.242C285.02 225.772 285.73 227.302 286.44 228.832C292.08 240.892 294.82 253.502 294.82 267.372C294.82 278.522 293 290.672 289.23 304.502C288.21 308.232 287.08 311.992 285.84 315.772C291.05 318.002 296.5 319.192 302.11 319.192C307.72 319.192 313.17 318.002 318.38 315.772C317.13 311.982 316 308.232 314.99 304.502C311.22 290.662 309.39 278.522 309.4 267.372C309.4 253.502 312.15 240.882 317.79 228.832C318.5 227.302 319.2 225.772 319.91 224.242L319.9 224.252Z" fill="url(#paint7_linear_306_76)"/>
<path opacity="0.58" d="M302.109 76.66C323.279 76.66 340.439 59.5 340.439 38.33C340.439 17.16 323.279 0 302.109 0C280.939 0 263.779 17.16 263.779 38.33C263.779 59.5 280.939 76.66 302.109 76.66Z" fill="url(#paint8_linear_306_76)"/>
<path d="M391.249 125.33C391.179 125.25 391.119 125.18 391.049 125.11C390.979 125.03 390.899 124.95 390.829 124.87C390.749 124.79 390.679 124.72 390.609 124.65C390.559 124.6 390.509 124.55 390.459 124.51C390.389 124.44 390.329 124.38 390.259 124.33C389.799 123.92 389.329 123.61 388.879 123.4C388.819 123.37 388.749 123.34 388.689 123.31C388.619 123.28 388.559 123.26 388.499 123.23C388.389 123.19 388.279 123.15 388.169 123.13C388.059 123.1 387.959 123.08 387.849 123.06C387.809 123.05 387.779 123.04 387.749 123.04C387.749 123.04 387.739 123.04 387.729 123.04C387.669 123.04 387.609 123.03 387.559 123.02C387.479 123.01 387.389 123 387.309 123C387.199 123 387.099 123 386.989 123.02C386.779 123.04 386.569 123.08 386.369 123.15C386.359 123.15 386.339 123.16 386.329 123.16C386.239 123.19 386.159 123.23 386.069 123.26C385.969 123.3 385.869 123.35 385.779 123.4C385.689 123.45 385.609 123.5 385.519 123.55C385.419 123.62 385.309 123.7 385.199 123.78C385.109 123.86 385.009 123.93 384.919 124.02C384.829 124.1 384.729 124.19 384.649 124.29C384.559 124.39 384.469 124.49 384.379 124.59C384.209 124.8 384.029 125.03 383.869 125.28C383.789 125.41 383.709 125.54 383.629 125.67C383.579 125.76 383.529 125.85 383.479 125.94C383.429 126.02 383.389 126.11 383.339 126.2C383.199 126.46 383.069 126.74 382.949 127.03C382.029 129.16 381.369 131.26 380.939 133.32C380.779 134.06 380.659 134.81 380.559 135.54C380.559 135.57 380.549 135.61 380.549 135.64C380.479 136.12 380.439 136.58 380.399 137.05C380.379 137.25 380.369 137.45 380.359 137.66C380.349 137.82 380.339 137.99 380.339 138.16C380.329 138.33 380.319 138.51 380.319 138.68C380.309 139.07 380.319 139.47 380.319 139.86C380.319 140.05 380.329 140.24 380.339 140.43C380.349 140.71 380.369 140.99 380.379 141.28C380.409 141.84 380.469 142.41 380.539 142.97L380.649 143.81C380.689 144.09 380.739 144.37 380.789 144.64C380.839 144.92 380.889 145.2 380.949 145.48C381.029 145.85 381.109 146.21 381.199 146.58C381.239 146.76 381.289 146.95 381.339 147.13C381.389 147.32 381.439 147.5 381.489 147.68C381.719 148.54 381.989 149.39 382.289 150.24C382.449 150.69 382.619 151.13 382.789 151.57C382.879 151.79 382.959 152.01 383.059 152.23C383.289 152.78 383.519 153.33 383.779 153.88C384.029 154.43 384.289 154.97 384.569 155.52C384.679 155.74 384.789 155.96 384.899 156.17C385.119 156.61 385.359 157.04 385.589 157.48C386.189 158.56 386.829 159.64 387.499 160.71C392.259 168.27 397.419 175.59 402.009 183.26C402.099 183.42 402.199 183.58 402.289 183.74C402.379 183.89 402.469 184.05 402.549 184.2C402.719 184.52 402.889 184.84 403.059 185.16C403.219 185.47 403.379 185.78 403.529 186.1C403.609 186.25 403.679 186.4 403.749 186.55C403.999 187.07 404.239 187.6 404.479 188.14C404.609 188.44 404.739 188.74 404.869 189.04C404.909 189.12 404.939 189.2 404.969 189.27C405.149 189.7 405.329 190.12 405.499 190.54C405.689 191.02 405.889 191.49 406.079 191.97C406.219 192.3 406.349 192.64 406.489 192.98C406.929 194.05 407.379 195.13 407.869 196.22C408.639 194.69 409.359 193.18 410.009 191.7C410.229 191.21 410.439 190.72 410.649 190.23C410.789 189.91 410.919 189.59 411.049 189.26C411.179 188.93 411.309 188.62 411.439 188.29C411.519 188.09 411.599 187.9 411.669 187.7C411.819 187.32 411.959 186.94 412.099 186.56C412.239 186.18 412.369 185.81 412.499 185.43C412.579 185.22 412.649 185 412.719 184.79C412.789 184.59 412.849 184.4 412.909 184.21C413.019 183.88 413.119 183.55 413.219 183.23C413.349 182.83 413.469 182.42 413.589 182.02C413.709 181.61 413.819 181.21 413.919 180.81C413.969 180.62 414.019 180.44 414.069 180.25C414.299 179.32 414.509 178.4 414.689 177.49C414.689 177.49 414.689 177.487 414.689 177.48C414.739 177.23 414.789 176.98 414.829 176.74C414.919 176.28 414.989 175.81 415.059 175.35C415.169 174.64 415.259 173.94 415.329 173.24C415.439 172.15 415.519 171.07 415.539 170.01C415.539 169.71 415.549 169.41 415.549 169.11C415.549 168.59 415.539 168.07 415.519 167.55C415.509 167.29 415.499 167.04 415.479 166.79C415.459 166.53 415.449 166.28 415.429 166.03C415.419 165.86 415.399 165.69 415.379 165.52C415.359 165.3 415.339 165.07 415.309 164.84C415.289 164.62 415.259 164.39 415.229 164.17C415.169 163.72 415.099 163.27 415.019 162.83C414.999 162.71 414.979 162.59 414.949 162.47C414.929 162.32 414.899 162.18 414.869 162.03C414.829 161.84 414.789 161.64 414.749 161.45C414.719 161.32 414.699 161.18 414.659 161.05C414.609 160.81 414.549 160.57 414.489 160.32C414.419 160.06 414.359 159.8 414.289 159.54C414.149 159.02 413.999 158.5 413.829 157.98C413.729 157.66 413.619 157.33 413.499 157.01C413.369 156.62 413.219 156.23 413.069 155.85C412.989 155.66 412.919 155.47 412.839 155.27C412.709 154.95 412.569 154.62 412.429 154.3C412.339 154.09 412.239 153.87 412.149 153.66C412.049 153.44 411.949 153.21 411.839 152.99C411.719 152.73 411.589 152.48 411.459 152.22C411.389 152.08 411.319 151.94 411.249 151.8C411.089 151.48 410.919 151.17 410.739 150.85C410.409 150.23 410.049 149.62 409.669 149C409.559 148.81 409.449 148.62 409.329 148.44C409.169 148.18 409.009 147.93 408.839 147.68C408.489 147.14 408.129 146.6 407.749 146.06C407.589 145.83 407.429 145.6 407.259 145.37C406.969 144.95 406.659 144.55 406.349 144.14C405.929 143.59 405.509 143.05 405.089 142.51C405.049 142.46 405.009 142.4 404.969 142.35C404.629 141.91 404.289 141.47 403.939 141.03C403.189 140.06 402.429 139.1 401.659 138.14C401.119 137.47 400.589 136.79 400.049 136.12C399.479 135.42 398.909 134.71 398.349 134.01C396.079 131.2 393.779 128.4 391.479 125.6C391.409 125.52 391.349 125.44 391.279 125.37L391.249 125.33Z" fill="url(#paint9_linear_306_76)"/>
<path d="M193.189 151.392C193.019 151.712 192.859 152.032 192.699 152.352C192.539 152.672 192.379 152.992 192.239 153.312C192.119 153.572 191.999 153.822 191.889 154.082C191.589 154.762 191.309 155.432 191.059 156.122C190.999 156.282 190.939 156.442 190.889 156.602C190.719 157.052 190.569 157.512 190.429 157.962C190.339 158.222 190.269 158.482 190.189 158.742C189.749 160.212 189.409 161.702 189.169 163.202C189.139 163.382 189.109 163.562 189.089 163.742C189.049 163.992 189.019 164.242 188.989 164.502C188.949 164.782 188.919 165.062 188.899 165.342C188.869 165.572 188.849 165.792 188.829 166.022C188.809 166.282 188.789 166.532 188.779 166.782C188.759 167.042 188.749 167.292 188.739 167.552C188.729 167.802 188.719 168.042 188.719 168.282C188.719 168.552 188.709 168.822 188.709 169.092C188.709 169.452 188.709 169.792 188.729 170.142C188.749 171.102 188.809 172.062 188.909 173.022C188.959 173.542 189.019 174.072 189.089 174.592C189.129 174.872 189.169 175.142 189.209 175.422C189.409 176.762 189.689 178.122 190.009 179.512C190.079 179.782 190.149 180.062 190.219 180.342C190.289 180.612 190.359 180.892 190.439 181.182C190.539 181.552 190.639 181.912 190.749 182.282C190.799 182.462 190.849 182.622 190.899 182.792C190.989 183.102 191.089 183.402 191.179 183.712C191.279 184.012 191.379 184.322 191.479 184.622C191.769 185.482 192.079 186.352 192.409 187.222C192.509 187.492 192.619 187.772 192.729 188.042C193.019 188.782 193.329 189.532 193.649 190.282C193.719 190.452 193.799 190.632 193.869 190.802C194.629 192.562 195.479 194.362 196.399 196.202C196.889 195.112 197.329 194.032 197.779 192.962C198.289 191.712 198.789 190.472 199.299 189.272C199.329 189.192 199.359 189.132 199.389 189.062C199.559 188.662 199.739 188.262 199.909 187.862C200.159 187.302 200.419 186.732 200.689 186.182C200.909 185.742 201.129 185.302 201.359 184.862C201.649 184.312 201.959 183.772 202.269 183.242C206.849 175.572 212.009 168.252 216.779 160.692C217.179 160.052 217.579 159.402 217.949 158.762C218.199 158.332 218.449 157.902 218.689 157.472C219.889 155.302 220.919 153.122 221.739 150.902C221.989 150.232 222.219 149.572 222.429 148.902C222.529 148.592 222.619 148.272 222.709 147.962C222.759 147.752 222.819 147.542 222.879 147.342C222.939 147.102 222.999 146.862 223.059 146.622C223.229 145.902 223.389 145.182 223.509 144.452C223.679 143.482 223.799 142.512 223.869 141.522C223.939 140.602 223.969 139.672 223.949 138.732C223.949 138.532 223.949 138.342 223.929 138.152C223.919 137.962 223.909 137.762 223.899 137.572C223.879 137.282 223.859 136.992 223.829 136.702C223.799 136.412 223.779 136.122 223.739 135.822C223.719 135.632 223.689 135.432 223.659 135.242C223.629 135.052 223.609 134.852 223.569 134.652C223.469 134.012 223.339 133.362 223.189 132.712C223.159 132.572 223.119 132.432 223.089 132.282C222.989 131.882 222.889 131.482 222.769 131.072C222.709 130.872 222.659 130.682 222.589 130.472C222.529 130.272 222.459 130.072 222.399 129.872C222.319 129.642 222.239 129.402 222.159 129.172C222.079 128.942 221.989 128.702 221.899 128.472C221.719 127.992 221.529 127.532 221.319 127.052C221.189 126.762 221.059 126.482 220.929 126.232C220.889 126.142 220.839 126.062 220.789 125.972C220.349 125.162 219.859 124.512 219.339 124.042C219.249 123.952 219.149 123.882 219.059 123.802C218.979 123.732 218.899 123.672 218.809 123.612C218.789 123.602 218.769 123.582 218.749 123.572C218.679 123.532 218.609 123.482 218.539 123.442C218.499 123.412 218.459 123.402 218.419 123.372C218.349 123.342 218.279 123.302 218.209 123.272C218.119 123.232 218.019 123.192 217.919 123.162C217.879 123.142 217.849 123.132 217.809 123.132C217.809 123.132 217.799 123.132 217.789 123.132C217.719 123.112 217.639 123.092 217.569 123.082C217.469 123.062 217.359 123.042 217.259 123.032C217.159 123.012 217.049 123.012 216.939 123.012C216.919 123.012 216.889 123.012 216.869 123.012C216.809 123.012 216.759 123.012 216.699 123.022C216.619 123.022 216.539 123.032 216.449 123.052C215.859 123.142 215.249 123.392 214.639 123.812C214.549 123.872 214.469 123.942 214.379 124.002C214.289 124.072 214.199 124.142 214.109 124.212C213.989 124.312 213.859 124.422 213.739 124.542C213.689 124.592 213.629 124.642 213.579 124.702C213.309 124.962 213.039 125.252 212.779 125.572C209.339 129.772 205.889 133.972 202.509 138.222C201.979 138.892 201.449 139.562 200.929 140.232C200.839 140.332 200.769 140.432 200.689 140.542C200.179 141.192 199.669 141.842 199.169 142.492C198.749 143.032 198.339 143.572 197.919 144.112C197.609 144.522 197.299 144.922 197.009 145.332C196.799 145.622 196.589 145.912 196.389 146.202C195.349 147.692 194.409 149.192 193.589 150.682C193.459 150.912 193.329 151.142 193.209 151.382L193.189 151.392Z" fill="url(#paint10_linear_306_76)"/>
<path d="M418.379 276.598C416.309 278.848 413.569 281.698 410.729 284.608C390.459 305.368 364.659 320.018 336.319 326.198C335.509 326.378 334.689 326.548 333.879 326.708C333.479 325.708 333.089 324.708 332.699 323.708C332.339 322.778 331.999 321.848 331.649 320.918C331.059 319.348 330.499 317.758 329.949 316.168C329.819 315.808 329.699 315.448 329.579 315.088C329.349 314.418 329.129 313.758 328.909 313.088C328.599 312.158 328.289 311.218 327.999 310.278C327.779 309.558 327.549 308.848 327.329 308.138C327.239 307.858 327.159 307.578 327.069 307.298C326.509 305.428 325.969 303.548 325.449 301.658C319.199 278.718 317.079 255.928 327.599 233.418C328.489 231.508 329.369 229.598 330.239 227.678C330.629 226.838 331.009 226.008 331.399 225.178C331.829 224.268 332.249 223.358 332.679 222.438C332.939 221.888 333.199 221.338 333.469 220.788C334.199 219.268 334.959 217.768 335.739 216.278C335.989 215.798 336.249 215.318 336.499 214.838C336.829 214.228 337.169 213.618 337.509 213.018C337.849 212.408 338.199 211.808 338.549 211.208C338.719 210.908 338.899 210.608 339.089 210.308C339.239 210.048 339.399 209.798 339.559 209.548C339.789 209.168 340.019 208.798 340.259 208.428C340.329 208.318 340.399 208.218 340.469 208.108C340.789 207.618 341.099 207.138 341.439 206.658C341.699 206.278 341.959 205.908 342.219 205.528C342.269 205.458 342.319 205.388 342.369 205.318C342.519 205.098 342.679 204.888 342.829 204.678C342.919 204.548 342.999 204.438 343.099 204.318C343.219 204.148 343.339 203.988 343.459 203.828C346.519 199.778 349.909 195.998 354.949 194.338C355.429 194.178 355.909 194.058 356.379 193.988C356.529 193.968 356.669 193.948 356.809 193.928C356.909 193.918 357.009 193.908 357.119 193.898C357.559 193.858 357.989 193.858 358.399 193.898C358.769 193.928 359.129 193.988 359.479 194.078C359.559 194.098 359.639 194.118 359.709 194.148C359.829 194.178 359.949 194.218 360.059 194.258C360.189 194.308 360.319 194.358 360.449 194.418C360.509 194.448 360.579 194.468 360.639 194.508C360.959 194.658 361.259 194.848 361.539 195.058C361.649 195.148 361.759 195.228 361.859 195.318C361.969 195.408 362.069 195.508 362.169 195.608C362.269 195.708 362.369 195.808 362.459 195.918C362.509 195.968 362.549 196.028 362.599 196.078C362.669 196.168 362.739 196.248 362.809 196.348C362.879 196.438 362.939 196.538 362.999 196.628C363.079 196.738 363.149 196.858 363.219 196.988C363.309 197.168 363.409 197.348 363.489 197.538C363.519 197.608 363.549 197.688 363.579 197.758C363.609 197.838 363.639 197.908 363.669 197.978C363.719 198.128 363.769 198.278 363.819 198.428C363.889 198.638 363.939 198.858 363.989 199.078C364.039 199.298 364.079 199.528 364.109 199.758C364.529 202.768 364.369 205.938 363.979 208.968C363.929 209.358 363.879 209.758 363.819 210.158C363.769 210.558 363.709 210.948 363.649 211.348C363.329 213.458 362.959 215.558 362.599 217.658C362.469 218.378 362.349 219.098 362.229 219.828C362.119 220.498 362.009 221.158 361.899 221.818C361.849 222.128 361.799 222.428 361.759 222.728C361.629 223.568 361.509 224.408 361.409 225.248C361.369 225.528 361.329 225.798 361.309 226.078C361.289 226.168 361.279 226.248 361.279 226.338C361.209 226.858 361.159 227.378 361.109 227.898C360.679 232.358 360.589 237.028 361.479 241.378C361.509 241.508 361.529 241.638 361.569 241.758C361.589 241.848 361.609 241.928 361.639 242.018C361.639 242.048 361.649 242.068 361.659 242.098C361.709 242.308 361.769 242.518 361.839 242.718C361.869 242.808 361.889 242.898 361.929 242.988C361.959 243.088 361.999 243.188 362.029 243.278C362.059 243.378 362.099 243.468 362.139 243.558C362.229 243.788 362.319 244.008 362.419 244.228C362.509 244.418 362.609 244.608 362.699 244.788C362.769 244.928 362.839 245.058 362.919 245.188C362.989 245.318 363.069 245.438 363.139 245.558C363.219 245.678 363.299 245.798 363.379 245.908C363.539 246.138 363.709 246.368 363.889 246.588C363.969 246.678 364.049 246.778 364.139 246.868C364.149 246.888 364.169 246.908 364.189 246.928C364.289 247.038 364.389 247.148 364.489 247.258C364.699 247.468 364.909 247.668 365.129 247.858C365.849 248.478 366.639 248.988 367.489 249.358C367.599 249.408 367.709 249.458 367.829 249.508C368.159 249.648 368.499 249.768 368.849 249.858C368.919 249.878 368.979 249.898 369.049 249.908C369.119 249.928 369.179 249.938 369.249 249.958C369.379 249.988 369.499 250.018 369.619 250.038C369.749 250.068 369.869 250.088 369.999 250.108C370.089 250.128 370.169 250.138 370.269 250.148C370.399 250.168 370.529 250.178 370.659 250.188C370.809 250.198 370.949 250.208 371.099 250.218C371.249 250.218 371.399 250.228 371.549 250.228C371.719 250.228 371.889 250.228 372.059 250.208C372.199 250.208 372.329 250.198 372.459 250.178C372.659 250.168 372.869 250.138 373.079 250.108C373.229 250.088 373.389 250.058 373.549 250.028C373.899 249.958 374.249 249.878 374.599 249.768C374.809 249.708 375.029 249.638 375.239 249.558C375.459 249.478 375.689 249.388 375.919 249.288C376.089 249.218 376.259 249.138 376.429 249.058C376.599 248.978 376.769 248.888 376.939 248.798C381.749 246.228 386.369 242.818 390.129 238.878C392.049 236.858 393.889 234.778 395.629 232.638C395.809 232.418 395.979 232.208 396.159 231.988C396.259 231.868 396.359 231.738 396.449 231.618C396.839 231.138 397.219 230.648 397.599 230.168C397.919 229.748 398.239 229.338 398.559 228.918C398.879 228.488 399.199 228.058 399.519 227.618C399.659 227.438 399.789 227.258 399.919 227.068C400.049 226.888 400.179 226.708 400.309 226.518C400.599 226.108 400.899 225.698 401.189 225.278C401.479 224.858 401.759 224.458 402.039 224.028C403.339 222.118 404.579 220.178 405.779 218.208C406.569 216.898 407.339 215.578 408.079 214.248C408.329 213.808 408.579 213.358 408.819 212.908C409.019 212.548 409.219 212.178 409.419 211.818C410.099 210.558 410.759 209.298 411.399 208.018C411.589 207.648 411.779 207.278 411.959 206.908C412.229 206.358 412.509 205.808 412.769 205.248C412.979 204.818 413.189 204.388 413.389 203.958C413.659 203.388 413.929 202.818 414.189 202.248C414.549 201.468 414.909 200.688 415.259 199.908C415.619 199.098 415.979 198.288 416.329 197.468V197.418C416.479 197.088 416.619 196.778 416.759 196.448C416.809 196.338 416.859 196.228 416.899 196.118C417.209 195.388 417.519 194.658 417.819 193.918C418.089 193.248 418.369 192.568 418.639 191.888C424.339 177.618 425.089 163.368 419.929 148.788C418.939 145.988 417.969 143.168 417.029 140.348C416.139 137.678 415.269 135.008 414.429 132.328C414.089 131.258 413.759 130.198 413.439 129.128C412.749 126.878 412.089 124.618 411.439 122.358C408.259 111.218 409.849 100.748 417.019 91.3683C417.219 91.0983 417.419 90.8583 417.629 90.6183C417.829 90.3883 418.029 90.1683 418.239 89.9683C418.449 89.7683 418.639 89.5883 418.849 89.4183C418.949 89.3283 419.049 89.2583 419.159 89.1783C419.309 89.0683 419.459 88.9683 419.609 88.8683C419.739 88.7883 419.859 88.7183 419.979 88.6583C420.049 88.6283 420.109 88.5883 420.169 88.5683C420.299 88.5083 420.429 88.4583 420.549 88.4083C420.599 88.3883 420.659 88.3583 420.719 88.3583C420.729 88.3583 420.739 88.3483 420.749 88.3483C420.879 88.3083 420.999 88.2683 421.119 88.2483C421.239 88.2183 421.359 88.2083 421.479 88.1983C421.699 88.1683 421.929 88.1683 422.149 88.1983C422.239 88.1983 422.329 88.2183 422.419 88.2383C422.499 88.2583 422.579 88.2783 422.669 88.2983C422.699 88.2983 422.739 88.3183 422.769 88.3283C422.819 88.3383 422.869 88.3583 422.919 88.3783C422.939 88.3783 422.949 88.3783 422.969 88.3983C423.059 88.4283 423.139 88.4683 423.229 88.5083C423.319 88.5483 423.399 88.5983 423.489 88.6483C423.579 88.6983 423.659 88.7483 423.749 88.7983C423.849 88.8683 423.939 88.9283 424.029 88.9983C424.189 89.1283 424.359 89.2683 424.519 89.4283C424.589 89.4883 424.649 89.5583 424.709 89.6183C424.809 89.7183 424.909 89.8283 424.999 89.9383C425.079 90.0383 425.159 90.1383 425.239 90.2483C425.319 90.3483 425.399 90.4583 425.469 90.5683C425.509 90.6283 425.559 90.6983 425.599 90.7583C425.679 90.8783 425.759 91.0083 425.829 91.1283C425.919 91.2783 426.019 91.4383 426.099 91.6083C426.199 91.7783 426.289 91.9683 426.379 92.1583C426.429 92.2483 426.469 92.3483 426.519 92.4383C432.919 107.848 439.619 123.138 445.609 138.698C450.259 150.788 454.489 163.178 455.249 176.258C457.489 214.978 444.489 248.298 418.439 276.598H418.379Z" fill="url(#paint11_linear_306_76)"/>
<path d="M278.769 301.668C278.579 302.358 278.389 303.038 278.199 303.728C278.059 304.208 277.929 304.688 277.789 305.158C277.599 305.798 277.419 306.428 277.219 307.068C277.119 307.428 277.009 307.788 276.889 308.148C276.669 308.868 276.449 309.578 276.219 310.288C275.989 311.008 275.759 311.718 275.529 312.438C275.319 313.088 275.109 313.728 274.869 314.408C274.689 314.918 274.529 315.428 274.359 315.938C274.319 316.048 274.279 316.158 274.239 316.268C273.959 317.078 273.669 317.888 273.379 318.698C273.109 319.448 272.839 320.188 272.569 320.928C272.399 321.398 272.219 321.858 272.049 322.328C271.859 322.848 271.659 323.368 271.459 323.888C271.149 324.688 270.839 325.488 270.519 326.288C270.469 326.438 270.409 326.578 270.349 326.728C269.529 326.558 268.719 326.388 267.899 326.218C239.259 319.968 213.279 305.008 192.839 283.998C190.469 281.568 188.139 279.108 185.839 276.618C159.779 248.328 146.789 214.998 149.019 176.278C149.779 163.188 153.999 150.808 158.659 138.718C164.649 123.158 171.349 107.868 177.749 92.4583L177.859 92.2283C177.949 92.0583 178.019 91.8883 178.119 91.7383C178.179 91.6283 178.239 91.5183 178.299 91.4083C178.559 90.9583 178.819 90.5483 179.099 90.1983C179.159 90.1183 179.229 90.0383 179.289 89.9683C179.419 89.8083 179.559 89.6483 179.709 89.5083C179.809 89.4083 179.919 89.3083 180.019 89.2183C180.399 88.8883 180.799 88.6383 181.209 88.4783C181.229 88.4683 181.249 88.4583 181.279 88.4483C181.359 88.4183 181.439 88.3883 181.529 88.3683C181.609 88.3483 181.679 88.3283 181.759 88.3083C181.779 88.3083 181.789 88.3083 181.809 88.3083C181.809 88.3083 181.839 88.3083 181.849 88.2983H181.889C181.889 88.2983 181.919 88.2883 181.929 88.2883H181.949C182.009 88.2783 182.069 88.2683 182.129 88.2583C182.219 88.2483 182.319 88.2383 182.409 88.2383H182.569C182.679 88.2383 182.799 88.2483 182.909 88.2683C182.919 88.2683 182.929 88.2683 182.939 88.2683C183.209 88.3083 183.479 88.3783 183.749 88.4883C183.859 88.5283 183.969 88.5783 184.079 88.6283C184.209 88.6883 184.339 88.7583 184.469 88.8283C184.469 88.8283 184.469 88.8283 184.479 88.8283C184.479 88.8283 184.489 88.8383 184.499 88.8383C184.589 88.8883 184.669 88.9383 184.759 88.9983C184.819 89.0383 184.879 89.0783 184.939 89.1283C185.019 89.1783 185.089 89.2383 185.169 89.2883C185.249 89.3383 185.319 89.3983 185.399 89.4683C185.599 89.6283 185.799 89.8083 186.009 90.0183C186.109 90.1183 186.209 90.2183 186.319 90.3283C186.519 90.5483 186.719 90.7783 186.929 91.0283C187.029 91.1583 187.129 91.2883 187.239 91.4183C194.409 100.798 195.999 111.278 192.819 122.408C192.179 124.668 191.509 126.928 190.819 129.178C190.489 130.248 190.159 131.318 189.829 132.388C189.159 134.538 188.459 136.678 187.759 138.818C187.589 139.338 187.409 139.868 187.239 140.388C186.609 142.298 185.959 144.198 185.299 146.088C184.979 147.008 184.659 147.928 184.339 148.838C179.179 163.418 179.929 177.668 185.619 191.938C185.899 192.648 186.189 193.358 186.479 194.068C187.189 195.798 187.919 197.518 188.679 199.228C188.959 199.878 189.249 200.528 189.549 201.168C189.779 201.678 190.009 202.178 190.239 202.678C190.469 203.178 190.699 203.688 190.939 204.178C190.969 204.248 190.989 204.298 191.029 204.358C191.319 204.978 191.619 205.588 191.919 206.208C192.179 206.728 192.429 207.238 192.689 207.758C193.069 208.518 193.459 209.278 193.859 210.038C194.079 210.468 194.309 210.898 194.539 211.318C195.569 213.248 196.629 215.138 197.749 217.018C197.949 217.358 198.149 217.708 198.359 218.048C198.399 218.118 198.439 218.188 198.489 218.258C198.799 218.768 199.099 219.268 199.419 219.768C199.619 220.098 199.829 220.418 200.039 220.748C200.749 221.878 201.479 222.988 202.239 224.088C202.479 224.458 202.729 224.808 202.979 225.168C203.609 226.068 204.249 226.968 204.889 227.848C205.169 228.228 205.449 228.598 205.729 228.968C206.539 230.048 207.369 231.108 208.219 232.168C208.649 232.688 209.069 233.208 209.509 233.728C210.439 234.838 211.399 235.938 212.379 237.018C212.649 237.328 212.929 237.628 213.219 237.938C213.529 238.268 213.839 238.608 214.149 238.928C217.899 242.868 222.529 246.278 227.339 248.848C227.509 248.938 227.679 249.018 227.849 249.108C228.019 249.188 228.189 249.268 228.359 249.338C228.579 249.428 228.809 249.528 229.039 249.608C229.249 249.688 229.469 249.748 229.679 249.818C230.139 249.958 230.609 250.058 231.069 250.138C231.289 250.168 231.519 250.198 231.739 250.218C234.509 250.488 237.119 249.638 239.149 247.898C239.369 247.708 239.589 247.508 239.789 247.298C239.889 247.188 239.989 247.088 240.089 246.968L240.139 246.918C240.839 246.118 241.449 245.188 241.919 244.148C241.989 244.008 242.049 243.868 242.099 243.728C242.169 243.568 242.229 243.408 242.289 243.248C242.319 243.178 242.339 243.098 242.369 243.028C242.419 242.878 242.469 242.738 242.509 242.578C242.519 242.568 242.519 242.548 242.519 242.538C242.589 242.338 242.639 242.138 242.689 241.928C242.729 241.758 242.769 241.588 242.799 241.418C243.679 237.078 243.589 232.398 243.159 227.938C243.109 227.418 243.059 226.898 242.989 226.378C242.989 226.298 242.969 226.208 242.959 226.118C242.929 225.838 242.889 225.568 242.859 225.288C242.859 225.248 242.859 225.198 242.839 225.158C242.809 224.898 242.769 224.638 242.739 224.378C242.669 223.838 242.589 223.308 242.509 222.768C242.469 222.458 242.419 222.158 242.369 221.858C242.269 221.188 242.159 220.528 242.039 219.868C241.919 219.138 241.789 218.418 241.669 217.698C241.399 216.168 241.129 214.638 240.879 213.108C240.839 212.838 240.789 212.558 240.749 212.278C240.689 211.918 240.639 211.558 240.579 211.188C240.529 210.828 240.469 210.468 240.419 210.098C240.369 209.738 240.319 209.368 240.269 209.008C239.879 205.978 239.719 202.808 240.139 199.798C240.159 199.648 240.179 199.508 240.209 199.368C240.239 199.228 240.259 199.088 240.299 198.948C240.339 198.808 240.369 198.678 240.409 198.548C240.439 198.418 240.489 198.288 240.529 198.158C240.569 198.028 240.619 197.908 240.669 197.788C240.729 197.638 240.799 197.488 240.869 197.348C241.079 196.918 241.319 196.528 241.609 196.178C241.689 196.088 241.759 195.988 241.839 195.908C241.919 195.818 241.999 195.738 242.089 195.648C242.169 195.568 242.249 195.488 242.339 195.408C242.429 195.328 242.519 195.258 242.609 195.188C242.699 195.118 242.799 195.048 242.889 194.978C242.989 194.908 243.089 194.848 243.189 194.788C243.319 194.708 243.449 194.648 243.579 194.578C243.589 194.578 243.599 194.568 243.609 194.558C243.669 194.528 243.729 194.508 243.789 194.478C243.799 194.478 243.809 194.468 243.819 194.458C243.859 194.438 243.899 194.428 243.929 194.408C243.949 194.408 243.959 194.398 243.979 194.388C244.349 194.238 244.739 194.118 245.149 194.038C245.269 194.018 245.389 193.998 245.509 193.978C245.689 193.948 245.879 193.928 246.069 193.928C246.209 193.918 246.349 193.908 246.489 193.908C246.939 193.908 247.399 193.938 247.869 194.018C248.339 194.098 248.809 194.218 249.299 194.368C254.339 196.028 257.719 199.808 260.789 203.858C261.159 204.358 261.529 204.848 261.889 205.358C262.079 205.618 262.269 205.888 262.449 206.148C262.579 206.348 262.719 206.538 262.849 206.738C263.029 206.998 263.199 207.258 263.369 207.528C264.099 208.628 264.799 209.738 265.469 210.868C265.639 211.148 265.809 211.438 265.979 211.718C267.999 215.168 269.789 218.738 271.509 222.348C271.759 222.868 271.999 223.378 272.239 223.898C272.609 224.688 272.979 225.488 273.349 226.288C274.459 228.678 275.549 231.068 276.659 233.458C287.189 255.968 285.059 278.758 278.819 301.698L278.769 301.668Z" fill="url(#paint12_linear_306_76)"/>
<path d="M233.339 94.3899C245.02 94.3899 254.489 84.9207 254.489 73.2399C254.489 61.559 245.02 52.0898 233.339 52.0898C221.659 52.0898 212.189 61.559 212.189 73.2399C212.189 84.9207 221.659 94.3899 233.339 94.3899Z" fill="url(#paint13_linear_306_76)"/>
<defs>
<linearGradient id="paint0_linear_306_76" x1="520.27" y1="37.8309" x2="520.27" y2="326.051" gradientUnits="userSpaceOnUse">
<stop stop-color="#AFD2EE"/>
<stop offset="1" stop-color="#008AD6"/>
</linearGradient>
<linearGradient id="paint1_linear_306_76" x1="116.47" y1="37.8291" x2="116.47" y2="326.049" gradientUnits="userSpaceOnUse">
<stop stop-color="#AFD2EE"/>
<stop offset="1" stop-color="#008AD6"/>
</linearGradient>
<linearGradient id="paint2_linear_306_76" x1="371.879" y1="50.8702" x2="371.879" y2="228.34" gradientUnits="userSpaceOnUse">
<stop stop-color="#0096D8"/>
<stop offset="1" stop-color="#2264A7"/>
</linearGradient>
<linearGradient id="paint3_linear_306_76" x1="387.28" y1="50.8709" x2="387.28" y2="228.341" gradientUnits="userSpaceOnUse">
<stop stop-color="#0096D8"/>
<stop offset="1" stop-color="#2264A7"/>
</linearGradient>
<linearGradient id="paint4_linear_306_76" x1="370.87" y1="50.8698" x2="370.87" y2="228.34" gradientUnits="userSpaceOnUse">
<stop stop-color="#0096D8"/>
<stop offset="1" stop-color="#2264A7"/>
</linearGradient>
<linearGradient id="paint5_linear_306_76" x1="232.33" y1="50.8685" x2="232.33" y2="228.338" gradientUnits="userSpaceOnUse">
<stop stop-color="#0096D8"/>
<stop offset="1" stop-color="#2264A7"/>
</linearGradient>
<linearGradient id="paint6_linear_306_76" x1="216.93" y1="50.8692" x2="216.93" y2="228.339" gradientUnits="userSpaceOnUse">
<stop stop-color="#0096D8"/>
<stop offset="1" stop-color="#2264A7"/>
</linearGradient>
<linearGradient id="paint7_linear_306_76" x1="302.1" y1="38.2316" x2="302.1" y2="329.442" gradientUnits="userSpaceOnUse">
<stop stop-color="#AFD2EE"/>
<stop offset="1" stop-color="#008AD6"/>
</linearGradient>
<linearGradient id="paint8_linear_306_76" x1="302.099" y1="38.23" x2="302.099" y2="329.44" gradientUnits="userSpaceOnUse">
<stop stop-color="#AFD2EE"/>
<stop offset="1" stop-color="#008AD6"/>
</linearGradient>
<linearGradient id="paint9_linear_306_76" x1="397.909" y1="73.07" x2="397.909" y2="332.71" gradientUnits="userSpaceOnUse">
<stop stop-color="#0096D8"/>
<stop offset="1" stop-color="#2264A7"/>
</linearGradient>
<linearGradient id="paint10_linear_306_76" x1="206.299" y1="73.0717" x2="206.299" y2="332.712" gradientUnits="userSpaceOnUse">
<stop stop-color="#0096D8"/>
<stop offset="1" stop-color="#2264A7"/>
</linearGradient>
<linearGradient id="paint11_linear_306_76" x1="387.829" y1="73.0683" x2="387.829" y2="332.708" gradientUnits="userSpaceOnUse">
<stop stop-color="#0096D8"/>
<stop offset="1" stop-color="#2264A7"/>
</linearGradient>
<linearGradient id="paint12_linear_306_76" x1="216.379" y1="73.0683" x2="216.379" y2="332.708" gradientUnits="userSpaceOnUse">
<stop stop-color="#0096D8"/>
<stop offset="1" stop-color="#2264A7"/>
</linearGradient>
<linearGradient id="paint13_linear_306_76" x1="233.339" y1="50.8698" x2="233.339" y2="228.34" gradientUnits="userSpaceOnUse">
<stop stop-color="#0096D8"/>
<stop offset="1" stop-color="#2264A7"/>
</linearGradient>
</defs>
</svg>
