<svg width="500" height="500" viewBox="0 0 500 500" fill="none" xmlns="http://www.w3.org/2000/svg">
<path d="M479.297 104.219C478.323 102.252 476.82 100.596 474.957 99.4369C473.094 98.2776 470.945 97.6609 468.75 97.6562H31.2501C29.0557 97.6609 26.9062 98.2776 25.043 99.4369C23.1798 100.596 21.6769 102.252 20.7033 104.219C19.7373 106.192 19.3494 108.398 19.5844 110.582C19.8194 112.767 20.6678 114.84 22.0314 116.563L240.781 397.812C241.869 399.223 243.265 400.365 244.864 401.151C246.462 401.937 248.219 402.345 250 402.345C251.781 402.345 253.538 401.937 255.137 401.151C256.735 400.365 258.131 399.223 259.219 397.812L477.969 116.563C479.333 114.84 480.181 112.767 480.416 110.582C480.651 108.398 480.263 106.192 479.297 104.219Z" fill="#02467E"/>
</svg>
