<svg width="1424" height="327" viewBox="0 0 1424 327" fill="none" xmlns="http://www.w3.org/2000/svg">
<path opacity="0.58" d="M398 176.09C398 97.94 458.01 42 538.75 42C583.57 42 620.98 58.3 645.43 87.93L606.91 123.49C589.5 103.49 567.65 93.12 541.72 93.12C493.2 93.12 458.75 127.2 458.75 176.09C458.75 224.98 493.2 259.06 541.72 259.06C567.65 259.06 589.5 248.69 606.91 228.32L645.43 263.88C620.98 293.88 583.57 310.18 538.38 310.18C458 310.18 398 254.25 398 176.09Z" fill="white"/>
<path opacity="0.58" d="M85.54 98.41H0V48H232.95V98.41H147.41V315.32H85.54V98.41Z" fill="white"/>
<path d="M359.228 118.798L359.227 118.797C357.538 115.918 355.784 113.184 353.956 110.596C359.09 105.828 364.92 103.16 371.096 103.16C377.778 103.16 384.066 106.285 389.479 111.789C388.779 111.696 388.12 111.66 387.516 111.66C385.996 111.66 383.36 111.927 380.569 113.429C377.827 114.904 374.967 117.554 372.87 122.24H372.858L372.727 122.541C370.858 126.857 369.723 131.198 369.318 135.584C369.183 137.017 369.126 138.456 369.149 139.901C368.752 138.836 368.343 137.78 367.92 136.734C365.391 130.383 362.481 124.381 359.228 118.798Z" fill="white" stroke="white"/>
<path d="M375.898 163.011C376.58 164.25 377.316 165.495 378.103 166.747L378.103 166.748C380.126 169.953 382.209 173.116 384.229 176.167C384.229 176.167 384.229 176.167 384.229 176.167L384.376 176.39C387.243 180.739 389.947 184.841 392.477 189.077C393.625 191.004 394.595 193.365 395.738 196.149L395.763 196.21C395.763 196.21 395.763 196.21 395.763 196.21C395.802 196.305 395.841 196.399 395.879 196.494C396.443 197.876 397.032 199.319 397.7 200.815L399.479 204.813L399.479 204.814L399.96 205.901C394.669 215.82 388.84 224.024 382.124 231.076C380.937 232.319 379.618 233.518 378.195 234.639C378.548 232.197 378.858 229.729 379.123 227.254C379.905 220.036 380.306 212.639 380.306 205.161C380.306 190.588 378.794 176.362 375.898 163.011Z" fill="white" stroke="white"/>
<path d="M391.746 73.2398C391.746 84.6447 382.501 93.8898 371.096 93.8898C359.691 93.8898 350.446 84.6447 350.446 73.2398C350.446 61.835 359.691 52.5898 371.096 52.5898C382.501 52.5898 391.746 61.835 391.746 73.2398Z" fill="white" stroke="white"/>
<path d="M238.508 132.418C237.446 134.851 236.439 137.338 235.492 139.876C235.544 136.656 235.203 133.468 234.474 130.298C233.886 127.685 233.026 125.106 231.915 122.521L231.915 122.52C229.807 117.645 226.883 114.913 224.083 113.407C221.292 111.905 218.656 111.638 217.136 111.638C216.532 111.638 215.876 111.677 215.179 111.773C220.599 106.271 226.886 103.148 233.556 103.148C239.732 103.148 245.571 105.826 250.695 110.584C248.858 113.172 247.104 115.907 245.424 118.787L245.424 118.787C243.085 122.8 240.921 127.04 238.948 131.464L238.936 131.438L238.508 132.418Z" fill="white" stroke="white"/>
<path d="M228.794 163C228.112 164.239 227.376 165.484 226.59 166.735L226.443 166.969H226.422C224.445 170.094 222.415 173.179 220.454 176.154L220.453 176.155L220.395 176.243C217.495 180.632 214.752 184.786 212.196 189.066L212.195 189.067C211.066 190.945 210.126 193.235 209.019 195.931C208.983 196.02 208.946 196.109 208.909 196.199C208.871 196.293 208.832 196.387 208.793 196.482C208.23 197.864 207.641 199.307 206.973 200.803C206.973 200.803 206.973 200.803 206.973 200.803L205.193 204.802L205.193 204.803L204.712 205.889C210.003 215.808 215.842 224.022 222.548 231.074L228.794 163ZM228.794 163C225.898 176.349 224.386 190.567 224.386 205.149C224.386 212.627 224.787 220.024 225.569 227.242C225.827 229.734 226.136 232.205 226.497 234.653C225.066 233.527 223.741 232.324 222.549 231.075L228.794 163Z" fill="white" stroke="white"/>
<path opacity="0.58" d="M320.126 224.252C324.266 215.232 328.556 205.902 335.056 197.302C336.006 196.042 337.036 194.752 338.156 193.492C339.676 191.782 341.366 190.112 343.306 188.612C345.716 186.742 348.516 185.142 351.806 184.052C353.856 183.372 355.936 183.032 357.986 183.032C361.776 183.032 365.226 184.182 368.036 186.212C366.566 171.122 363.356 157.032 358.786 144.572C355.326 135.132 351.076 126.622 346.196 119.312C334.476 101.742 319.126 91.1016 302.336 91.1016C285.546 91.1016 270.186 101.752 258.466 119.312C254.396 125.412 250.766 132.342 247.666 139.962C242.136 153.522 238.286 169.232 236.636 186.212C239.446 184.182 242.906 183.032 246.686 183.032C248.736 183.032 250.816 183.372 252.866 184.052C257.436 185.552 261.026 188.042 263.996 190.862C264.896 191.712 265.736 192.592 266.516 193.482C267.636 194.752 268.666 196.042 269.616 197.292C276.126 205.892 280.406 215.222 284.546 224.242C285.246 225.772 285.956 227.302 286.666 228.832C292.306 240.892 295.046 253.502 295.046 267.372C295.046 278.522 293.226 290.672 289.456 304.502C288.436 308.232 287.306 311.992 286.066 315.772C291.276 318.002 296.726 319.192 302.336 319.192C307.946 319.192 313.396 318.002 318.606 315.772C317.356 311.982 316.226 308.232 315.216 304.502C311.446 290.662 309.616 278.522 309.626 267.372C309.626 253.502 312.376 240.882 318.016 228.832C318.726 227.302 319.426 225.772 320.136 224.242L320.126 224.252Z" fill="white"/>
<path opacity="0.58" d="M302.336 76.66C323.506 76.66 340.666 59.5 340.666 38.33C340.666 17.16 323.506 0 302.336 0C281.166 0 264.006 17.16 264.006 38.33C264.006 59.5 281.166 76.66 302.336 76.66Z" fill="white"/>
<mask id="path-10-inside-1_1320_2" fill="white">
<path d="M391.476 125.33C391.406 125.25 391.346 125.18 391.276 125.11C391.206 125.03 391.126 124.95 391.056 124.87C390.976 124.79 390.906 124.72 390.836 124.65C390.786 124.6 390.736 124.55 390.686 124.51C390.616 124.44 390.556 124.38 390.486 124.33C390.026 123.92 389.556 123.61 389.106 123.4C389.046 123.37 388.976 123.34 388.916 123.31C388.846 123.28 388.786 123.26 388.726 123.23C388.616 123.19 388.506 123.15 388.396 123.13C388.286 123.1 388.186 123.08 388.076 123.06C388.036 123.05 388.006 123.04 387.976 123.04C387.976 123.04 387.966 123.04 387.956 123.04C387.896 123.04 387.836 123.03 387.786 123.02C387.706 123.01 387.616 123 387.536 123C387.426 123 387.326 123 387.216 123.02C387.006 123.04 386.796 123.08 386.596 123.15C386.586 123.15 386.566 123.16 386.556 123.16C386.466 123.19 386.386 123.23 386.296 123.26C386.196 123.3 386.096 123.35 386.006 123.4C385.916 123.45 385.836 123.5 385.746 123.55C385.646 123.62 385.536 123.7 385.426 123.78C385.336 123.86 385.236 123.93 385.146 124.02C385.056 124.1 384.956 124.19 384.876 124.29C384.786 124.39 384.696 124.49 384.606 124.59C384.436 124.8 384.256 125.03 384.096 125.28C384.016 125.41 383.936 125.54 383.856 125.67C383.806 125.76 383.756 125.85 383.706 125.94C383.656 126.02 383.616 126.11 383.566 126.2C383.426 126.46 383.296 126.74 383.176 127.03C382.256 129.16 381.596 131.26 381.166 133.32C381.006 134.06 380.886 134.81 380.786 135.54C380.786 135.57 380.776 135.61 380.776 135.64C380.706 136.12 380.666 136.58 380.626 137.05C380.606 137.25 380.596 137.45 380.586 137.66C380.576 137.82 380.566 137.99 380.566 138.16C380.556 138.33 380.546 138.51 380.546 138.68C380.536 139.07 380.546 139.47 380.546 139.86C380.546 140.05 380.556 140.24 380.566 140.43C380.576 140.71 380.596 140.99 380.606 141.28C380.636 141.84 380.696 142.41 380.766 142.97L380.876 143.81C380.916 144.09 380.966 144.37 381.016 144.64C381.066 144.92 381.116 145.2 381.176 145.48C381.256 145.85 381.336 146.21 381.426 146.58C381.466 146.76 381.516 146.95 381.566 147.13C381.616 147.32 381.666 147.5 381.716 147.68C381.946 148.54 382.216 149.39 382.516 150.24C382.676 150.69 382.846 151.13 383.016 151.57C383.106 151.79 383.186 152.01 383.286 152.23C383.516 152.78 383.746 153.33 384.006 153.88C384.256 154.43 384.516 154.97 384.796 155.52C384.906 155.74 385.016 155.96 385.126 156.17C385.346 156.61 385.586 157.04 385.816 157.48C386.416 158.56 387.056 159.64 387.726 160.71C392.486 168.27 397.646 175.59 402.236 183.26C402.326 183.42 402.426 183.58 402.516 183.74C402.606 183.89 402.696 184.05 402.776 184.2C402.946 184.52 403.116 184.84 403.286 185.16C403.446 185.47 403.606 185.78 403.756 186.1C403.836 186.25 403.906 186.4 403.976 186.55C404.226 187.07 404.466 187.6 404.706 188.14C404.836 188.44 404.966 188.74 405.096 189.04C405.136 189.12 405.166 189.2 405.196 189.27C405.376 189.7 405.556 190.12 405.726 190.54C405.916 191.02 406.116 191.49 406.306 191.97C406.446 192.3 406.576 192.64 406.716 192.98C407.156 194.05 407.606 195.13 408.096 196.22C408.866 194.69 409.586 193.18 410.236 191.7C410.456 191.21 410.666 190.72 410.876 190.23C411.016 189.91 411.146 189.59 411.276 189.26C411.406 188.93 411.536 188.62 411.666 188.29C411.746 188.09 411.826 187.9 411.896 187.7C412.046 187.32 412.186 186.94 412.326 186.56C412.466 186.18 412.596 185.81 412.726 185.43C412.806 185.22 412.876 185 412.946 184.79C413.016 184.59 413.076 184.4 413.136 184.21C413.246 183.88 413.346 183.55 413.446 183.23C413.576 182.83 413.696 182.42 413.816 182.02C413.936 181.61 414.046 181.21 414.146 180.81C414.196 180.62 414.246 180.44 414.296 180.25C414.526 179.32 414.736 178.4 414.916 177.49C414.916 177.49 414.916 177.487 414.916 177.48C414.966 177.23 415.016 176.98 415.056 176.74C415.146 176.28 415.216 175.81 415.286 175.35C415.396 174.64 415.486 173.94 415.556 173.24C415.666 172.15 415.746 171.07 415.766 170.01C415.766 169.71 415.776 169.41 415.776 169.11C415.776 168.59 415.766 168.07 415.746 167.55C415.736 167.29 415.726 167.04 415.706 166.79C415.686 166.53 415.676 166.28 415.656 166.03C415.646 165.86 415.626 165.69 415.606 165.52C415.586 165.3 415.566 165.07 415.536 164.84C415.516 164.62 415.486 164.39 415.456 164.17C415.396 163.72 415.326 163.27 415.246 162.83C415.226 162.71 415.206 162.59 415.176 162.47C415.156 162.32 415.126 162.18 415.096 162.03C415.056 161.84 415.016 161.64 414.976 161.45C414.946 161.32 414.926 161.18 414.886 161.05C414.836 160.81 414.776 160.57 414.716 160.32C414.646 160.06 414.586 159.8 414.516 159.54C414.376 159.02 414.226 158.5 414.056 157.98C413.956 157.66 413.846 157.33 413.726 157.01C413.596 156.62 413.446 156.23 413.296 155.85C413.216 155.66 413.146 155.47 413.066 155.27C412.936 154.95 412.796 154.62 412.656 154.3C412.566 154.09 412.466 153.87 412.376 153.66C412.276 153.44 412.176 153.21 412.066 152.99C411.946 152.73 411.816 152.48 411.686 152.22C411.616 152.08 411.546 151.94 411.476 151.8C411.316 151.48 411.146 151.17 410.966 150.85C410.636 150.23 410.276 149.62 409.896 149C409.786 148.81 409.676 148.62 409.556 148.44C409.396 148.18 409.236 147.93 409.066 147.68C408.716 147.14 408.356 146.6 407.976 146.06C407.816 145.83 407.656 145.6 407.486 145.37C407.196 144.95 406.886 144.55 406.576 144.14C406.156 143.59 405.736 143.05 405.316 142.51C405.276 142.46 405.236 142.4 405.196 142.35C404.856 141.91 404.516 141.47 404.166 141.03C403.416 140.06 402.656 139.1 401.886 138.14C401.346 137.47 400.816 136.79 400.276 136.12C399.706 135.42 399.136 134.71 398.576 134.01C396.306 131.2 394.006 128.4 391.706 125.6C391.636 125.52 391.576 125.44 391.506 125.37L391.476 125.33Z"/>
</mask>
<path d="M391.476 125.33C391.406 125.25 391.346 125.18 391.276 125.11C391.206 125.03 391.126 124.95 391.056 124.87C390.976 124.79 390.906 124.72 390.836 124.65C390.786 124.6 390.736 124.55 390.686 124.51C390.616 124.44 390.556 124.38 390.486 124.33C390.026 123.92 389.556 123.61 389.106 123.4C389.046 123.37 388.976 123.34 388.916 123.31C388.846 123.28 388.786 123.26 388.726 123.23C388.616 123.19 388.506 123.15 388.396 123.13C388.286 123.1 388.186 123.08 388.076 123.06C388.036 123.05 388.006 123.04 387.976 123.04C387.976 123.04 387.966 123.04 387.956 123.04C387.896 123.04 387.836 123.03 387.786 123.02C387.706 123.01 387.616 123 387.536 123C387.426 123 387.326 123 387.216 123.02C387.006 123.04 386.796 123.08 386.596 123.15C386.586 123.15 386.566 123.16 386.556 123.16C386.466 123.19 386.386 123.23 386.296 123.26C386.196 123.3 386.096 123.35 386.006 123.4C385.916 123.45 385.836 123.5 385.746 123.55C385.646 123.62 385.536 123.7 385.426 123.78C385.336 123.86 385.236 123.93 385.146 124.02C385.056 124.1 384.956 124.19 384.876 124.29C384.786 124.39 384.696 124.49 384.606 124.59C384.436 124.8 384.256 125.03 384.096 125.28C384.016 125.41 383.936 125.54 383.856 125.67C383.806 125.76 383.756 125.85 383.706 125.94C383.656 126.02 383.616 126.11 383.566 126.2C383.426 126.46 383.296 126.74 383.176 127.03C382.256 129.16 381.596 131.26 381.166 133.32C381.006 134.06 380.886 134.81 380.786 135.54C380.786 135.57 380.776 135.61 380.776 135.64C380.706 136.12 380.666 136.58 380.626 137.05C380.606 137.25 380.596 137.45 380.586 137.66C380.576 137.82 380.566 137.99 380.566 138.16C380.556 138.33 380.546 138.51 380.546 138.68C380.536 139.07 380.546 139.47 380.546 139.86C380.546 140.05 380.556 140.24 380.566 140.43C380.576 140.71 380.596 140.99 380.606 141.28C380.636 141.84 380.696 142.41 380.766 142.97L380.876 143.81C380.916 144.09 380.966 144.37 381.016 144.64C381.066 144.92 381.116 145.2 381.176 145.48C381.256 145.85 381.336 146.21 381.426 146.58C381.466 146.76 381.516 146.95 381.566 147.13C381.616 147.32 381.666 147.5 381.716 147.68C381.946 148.54 382.216 149.39 382.516 150.24C382.676 150.69 382.846 151.13 383.016 151.57C383.106 151.79 383.186 152.01 383.286 152.23C383.516 152.78 383.746 153.33 384.006 153.88C384.256 154.43 384.516 154.97 384.796 155.52C384.906 155.74 385.016 155.96 385.126 156.17C385.346 156.61 385.586 157.04 385.816 157.48C386.416 158.56 387.056 159.64 387.726 160.71C392.486 168.27 397.646 175.59 402.236 183.26C402.326 183.42 402.426 183.58 402.516 183.74C402.606 183.89 402.696 184.05 402.776 184.2C402.946 184.52 403.116 184.84 403.286 185.16C403.446 185.47 403.606 185.78 403.756 186.1C403.836 186.25 403.906 186.4 403.976 186.55C404.226 187.07 404.466 187.6 404.706 188.14C404.836 188.44 404.966 188.74 405.096 189.04C405.136 189.12 405.166 189.2 405.196 189.27C405.376 189.7 405.556 190.12 405.726 190.54C405.916 191.02 406.116 191.49 406.306 191.97C406.446 192.3 406.576 192.64 406.716 192.98C407.156 194.05 407.606 195.13 408.096 196.22C408.866 194.69 409.586 193.18 410.236 191.7C410.456 191.21 410.666 190.72 410.876 190.23C411.016 189.91 411.146 189.59 411.276 189.26C411.406 188.93 411.536 188.62 411.666 188.29C411.746 188.09 411.826 187.9 411.896 187.7C412.046 187.32 412.186 186.94 412.326 186.56C412.466 186.18 412.596 185.81 412.726 185.43C412.806 185.22 412.876 185 412.946 184.79C413.016 184.59 413.076 184.4 413.136 184.21C413.246 183.88 413.346 183.55 413.446 183.23C413.576 182.83 413.696 182.42 413.816 182.02C413.936 181.61 414.046 181.21 414.146 180.81C414.196 180.62 414.246 180.44 414.296 180.25C414.526 179.32 414.736 178.4 414.916 177.49C414.916 177.49 414.916 177.487 414.916 177.48C414.966 177.23 415.016 176.98 415.056 176.74C415.146 176.28 415.216 175.81 415.286 175.35C415.396 174.64 415.486 173.94 415.556 173.24C415.666 172.15 415.746 171.07 415.766 170.01C415.766 169.71 415.776 169.41 415.776 169.11C415.776 168.59 415.766 168.07 415.746 167.55C415.736 167.29 415.726 167.04 415.706 166.79C415.686 166.53 415.676 166.28 415.656 166.03C415.646 165.86 415.626 165.69 415.606 165.52C415.586 165.3 415.566 165.07 415.536 164.84C415.516 164.62 415.486 164.39 415.456 164.17C415.396 163.72 415.326 163.27 415.246 162.83C415.226 162.71 415.206 162.59 415.176 162.47C415.156 162.32 415.126 162.18 415.096 162.03C415.056 161.84 415.016 161.64 414.976 161.45C414.946 161.32 414.926 161.18 414.886 161.05C414.836 160.81 414.776 160.57 414.716 160.32C414.646 160.06 414.586 159.8 414.516 159.54C414.376 159.02 414.226 158.5 414.056 157.98C413.956 157.66 413.846 157.33 413.726 157.01C413.596 156.62 413.446 156.23 413.296 155.85C413.216 155.66 413.146 155.47 413.066 155.27C412.936 154.95 412.796 154.62 412.656 154.3C412.566 154.09 412.466 153.87 412.376 153.66C412.276 153.44 412.176 153.21 412.066 152.99C411.946 152.73 411.816 152.48 411.686 152.22C411.616 152.08 411.546 151.94 411.476 151.8C411.316 151.48 411.146 151.17 410.966 150.85C410.636 150.23 410.276 149.62 409.896 149C409.786 148.81 409.676 148.62 409.556 148.44C409.396 148.18 409.236 147.93 409.066 147.68C408.716 147.14 408.356 146.6 407.976 146.06C407.816 145.83 407.656 145.6 407.486 145.37C407.196 144.95 406.886 144.55 406.576 144.14C406.156 143.59 405.736 143.05 405.316 142.51C405.276 142.46 405.236 142.4 405.196 142.35C404.856 141.91 404.516 141.47 404.166 141.03C403.416 140.06 402.656 139.1 401.886 138.14C401.346 137.47 400.816 136.79 400.276 136.12C399.706 135.42 399.136 134.71 398.576 134.01C396.306 131.2 394.006 128.4 391.706 125.6C391.636 125.52 391.576 125.44 391.506 125.37L391.476 125.33Z" fill="white" stroke="white" stroke-width="2" mask="url(#path-10-inside-1_1320_2)"/>
<path d="M192.92 153.521L192.92 153.521L192.924 153.512C193.058 153.206 193.212 152.897 193.373 152.575C193.51 152.302 193.644 152.034 193.783 151.767L193.809 151.754L193.883 151.605C193.997 151.379 194.12 151.159 194.251 150.928L194.251 150.928L194.254 150.923C195.065 149.45 195.995 147.965 197.026 146.488L197.028 146.486C197.224 146.201 197.43 145.916 197.641 145.625L197.641 145.625L197.644 145.62C197.866 145.307 198.099 145 198.34 144.683C198.407 144.595 198.475 144.506 198.543 144.416C198.753 144.146 198.96 143.876 199.167 143.608L199.167 143.606C199.375 143.336 199.582 143.067 199.791 142.799L199.792 142.797C200.291 142.149 200.799 141.501 201.309 140.85L201.315 140.843L201.32 140.836C201.331 140.822 201.34 140.808 201.35 140.795C201.42 140.699 201.467 140.633 201.528 140.566L201.54 140.553L201.551 140.538C202.069 139.871 202.598 139.203 203.128 138.533C206.226 134.637 209.383 130.783 212.54 126.93C212.824 126.583 213.109 126.236 213.393 125.889L213.394 125.887C213.641 125.584 213.897 125.309 214.153 125.062L214.173 125.043L214.19 125.022C214.197 125.014 214.208 125.002 214.231 124.98C214.239 124.972 214.246 124.965 214.255 124.957C214.259 124.953 214.264 124.949 214.27 124.943C214.284 124.93 214.302 124.913 214.32 124.895C214.42 124.795 214.532 124.699 214.65 124.601L214.778 124.501L214.9 124.407C214.952 124.371 214.999 124.335 215.036 124.307L215.04 124.304C215.084 124.27 215.114 124.247 215.143 124.228L215.143 124.228L215.15 124.224C215.708 123.839 216.248 123.623 216.751 123.546L216.768 123.543L216.784 123.54C216.847 123.526 216.89 123.522 216.926 123.522H216.967L217.008 123.515C217.022 123.513 217.033 123.512 217.096 123.512H217.096H217.096H217.096H217.096H217.097H217.097H217.097H217.097H217.097H217.097H217.097H217.097H217.098H217.098H217.098H217.098H217.098H217.098H217.098H217.098H217.099H217.099H217.099H217.099H217.099H217.099H217.099H217.099H217.1H217.1H217.1H217.1H217.1H217.1H217.1H217.1H217.101H217.101H217.101H217.101H217.101H217.101H217.101H217.101H217.102H217.102H217.102H217.102H217.102H217.102H217.102H217.102H217.103H217.103H217.103H217.103H217.103H217.103H217.103H217.103H217.104H217.104H217.104H217.104H217.104H217.104H217.104H217.104H217.105H217.105H217.105H217.105H217.105H217.105H217.105H217.106H217.106H217.106H217.106H217.106H217.106H217.106H217.106H217.107H217.107H217.107H217.107H217.107H217.107H217.107H217.108H217.108H217.108H217.108H217.108H217.108H217.108H217.108H217.109H217.109H217.109H217.109H217.109H217.109H217.109H217.11H217.11H217.11H217.11H217.11H217.11H217.11H217.111H217.111H217.111H217.111H217.111H217.111H217.111H217.111H217.112H217.112H217.112H217.112H217.112H217.112H217.112H217.113H217.113H217.113H217.113H217.113H217.113H217.113H217.114H217.114H217.114H217.114H217.114H217.114H217.114H217.115H217.115H217.115H217.115H217.115H217.115H217.115H217.116H217.116H217.116H217.116H217.116H217.116H217.116H217.117H217.117H217.117H217.117H217.117H217.117H217.117H217.118H217.118H217.118H217.118H217.118H217.118H217.118H217.119H217.119H217.119H217.119H217.119H217.119H217.119H217.12H217.12H217.12H217.12H217.12H217.12H217.12H217.121H217.121H217.121H217.121H217.121H217.121H217.121H217.122H217.122H217.122H217.122H217.122H217.122H217.122H217.123H217.123H217.123H217.123H217.123H217.123H217.123H217.124H217.124H217.124H217.124H217.124H217.124H217.124H217.125H217.125H217.125H217.125H217.125H217.125H217.125H217.126H217.126H217.126H217.126H217.126H217.126H217.126H217.127H217.127H217.127H217.127H217.127H217.127H217.128H217.128H217.128H217.128H217.128H217.128H217.128H217.129H217.129H217.129H217.129H217.129H217.129H217.129H217.13H217.13H217.13H217.13H217.13H217.13H217.13H217.131H217.131H217.131H217.131H217.131H217.131H217.131H217.132H217.132H217.132H217.132H217.132H217.132H217.132H217.133H217.133H217.133H217.133H217.133H217.133H217.134H217.134H217.134H217.134H217.134H217.134H217.134H217.135H217.135H217.135H217.135H217.135H217.135H217.135H217.136H217.136H217.136H217.136H217.136H217.136H217.136H217.137H217.137H217.137H217.137H217.137H217.137H217.137H217.138H217.138H217.138H217.138H217.138H217.138H217.138H217.139H217.139H217.139H217.139H217.139H217.139H217.139H217.14H217.14H217.14H217.14H217.14H217.14H217.141H217.141H217.141H217.141H217.141H217.141H217.141H217.142H217.142H217.142H217.142H217.142H217.142H217.142H217.143H217.143H217.143H217.143H217.143H217.143H217.143H217.144H217.144H217.144H217.144H217.144H217.144H217.144H217.145H217.145H217.145H217.145H217.145H217.145H217.145H217.146H217.146H217.146H217.146H217.146H217.146H217.146H217.147H217.147H217.147H217.147H217.147H217.147H217.147H217.148H217.148H217.148H217.148H217.148H217.148H217.148H217.148H217.149H217.149H217.149H217.149H217.149H217.149H217.149H217.15H217.15H217.15H217.15H217.15H217.15H217.15H217.151H217.151H217.151H217.151H217.151H217.151H217.151H217.152H217.152H217.152H217.152H217.152H217.152H217.152H217.153H217.153H217.153H217.153H217.153H217.153H217.153H217.153H217.154H217.154H217.154H217.154H217.154H217.154H217.154H217.155H217.155H217.155H217.155H217.155H217.155H217.155H217.155H217.156H217.156H217.156H217.156H217.156H217.156H217.156H217.157H217.157H217.157H217.157H217.157H217.157H217.157H217.157H217.158H217.158H217.158H217.158H217.158H217.158H217.158H217.158H217.159H217.159H217.159H217.159H217.159H217.159H217.159H217.16H217.16H217.16H217.16H217.16H217.16H217.16H217.16H217.161H217.161H217.161H217.161H217.161H217.161H217.161H217.161H217.162H217.162H217.162H217.162H217.162H217.162H217.162H217.162H217.163H217.163H217.163H217.163H217.163H217.163H217.163H217.163H217.164H217.164H217.164H217.164H217.164H217.164H217.164H217.164H217.164H217.165H217.165H217.165H217.165H217.165H217.165H217.165H217.165H217.166H217.166H217.166H217.166H217.166C217.287 123.512 217.346 123.514 217.388 123.522L217.412 123.527L217.436 123.529C217.511 123.537 217.601 123.553 217.698 123.572L217.712 123.575L217.725 123.577C217.762 123.582 217.817 123.595 217.879 123.612L217.946 123.632H217.973L218.002 123.641C218.075 123.662 218.154 123.694 218.233 123.729L218.233 123.729L218.239 123.731C218.258 123.739 218.28 123.75 218.317 123.769L218.322 123.771C218.344 123.782 218.373 123.797 218.405 123.811C218.438 123.832 218.466 123.846 218.479 123.852L218.482 123.854L218.491 123.86L218.518 123.876C218.54 123.888 218.564 123.903 218.601 123.927L218.604 123.93C218.634 123.949 218.673 123.974 218.715 123.998C218.721 124.003 218.729 124.009 218.738 124.015C218.746 124.021 218.758 124.028 218.772 124.037C218.841 124.083 218.899 124.127 218.955 124.177C219 124.216 219.048 124.255 219.085 124.285C219.094 124.293 219.102 124.299 219.11 124.305C219.155 124.342 219.186 124.369 219.212 124.395L219.221 124.404L219.231 124.413C219.699 124.835 220.156 125.436 220.577 126.21L220.577 126.21L220.579 126.215C220.601 126.255 220.619 126.286 220.634 126.311C220.663 126.362 220.681 126.393 220.699 126.435L220.705 126.449L220.712 126.462C220.835 126.699 220.96 126.967 221.089 127.254C221.296 127.727 221.482 128.178 221.658 128.647L221.658 128.647L221.66 128.654C221.749 128.88 221.836 129.114 221.914 129.336C221.953 129.449 221.993 129.565 222.033 129.683L222.033 129.684C222.072 129.798 222.111 129.913 222.15 130.026C222.181 130.128 222.214 130.228 222.245 130.323L222.246 130.326C222.278 130.427 222.309 130.522 222.337 130.615L222.339 130.623L222.342 130.63C222.385 130.761 222.418 130.875 222.454 130.999C222.473 131.066 222.493 131.136 222.517 131.213C222.632 131.608 222.729 131.995 222.828 132.392C222.845 132.474 222.864 132.551 222.88 132.62L222.886 132.643C222.902 132.707 222.915 132.762 222.927 132.816L222.927 132.817L222.929 132.824C223.077 133.465 223.204 134.103 223.302 134.729L223.304 134.739L223.306 134.75C223.329 134.866 223.342 134.964 223.357 135.075C223.367 135.149 223.378 135.227 223.392 135.32C223.422 135.508 223.45 135.698 223.469 135.874L223.469 135.874L223.47 135.888C223.495 136.075 223.511 136.249 223.528 136.433C223.537 136.535 223.547 136.641 223.559 136.753C223.588 137.032 223.607 137.312 223.627 137.602L223.642 137.887L223.657 138.178L223.657 138.191L223.659 138.204C223.676 138.364 223.676 138.527 223.676 138.732H223.676L223.676 138.742C223.696 139.665 223.666 140.578 223.597 141.484L223.597 141.486C223.528 142.459 223.411 143.412 223.244 144.365L223.243 144.371C223.126 145.082 222.969 145.788 222.8 146.503C222.8 146.505 222.8 146.506 222.799 146.507L222.711 146.86L222.624 147.209C222.565 147.406 222.504 147.618 222.453 147.834C222.437 147.888 222.421 147.942 222.406 147.996C222.332 148.252 222.259 148.503 222.18 148.748L222.179 148.752C221.972 149.412 221.745 150.064 221.498 150.727L221.497 150.728C220.687 152.92 219.669 155.077 218.479 157.229C218.242 157.654 217.994 158.08 217.744 158.51L217.743 158.511C217.378 159.144 216.982 159.787 216.583 160.426C214.671 163.455 212.688 166.459 210.701 169.468C207.755 173.932 204.802 178.405 202.067 182.985L202.064 182.989C201.753 183.521 201.439 184.069 201.144 184.629L201.143 184.63C200.911 185.074 200.689 185.518 200.47 185.956L200.469 185.958L200.467 185.961C200.193 186.519 199.93 187.096 199.679 187.658L199.679 187.658L199.676 187.666C199.592 187.863 199.506 188.061 199.418 188.261L199.417 188.263C199.33 188.461 199.242 188.663 199.156 188.865C199.152 188.875 199.146 188.888 199.139 188.904C199.118 188.95 199.087 189.019 199.062 189.085C198.646 190.065 198.235 191.073 197.823 192.086C197.73 192.314 197.637 192.542 197.544 192.77C197.437 193.025 197.331 193.279 197.225 193.533C197.018 194.028 196.812 194.523 196.599 195.019C195.864 193.52 195.18 192.05 194.557 190.607C194.521 190.52 194.483 190.432 194.446 190.347L194.446 190.345C194.408 190.257 194.372 190.172 194.338 190.091L194.336 190.085C194.017 189.339 193.709 188.594 193.422 187.859L193.419 187.853C193.311 187.587 193.203 187.312 193.105 187.048L193.104 187.044C192.776 186.181 192.468 185.317 192.18 184.463C192.131 184.314 192.081 184.163 192.031 184.011C191.982 183.862 191.933 183.711 191.883 183.563C191.838 183.406 191.79 183.253 191.744 183.105L191.743 183.103C191.696 182.95 191.65 182.802 191.606 182.652L191.606 182.651C191.587 182.588 191.57 182.53 191.553 182.474C191.521 182.366 191.49 182.263 191.458 182.148L191.458 182.148L191.455 182.139C191.347 181.775 191.248 181.419 191.149 181.051L191.148 181.049C191.09 180.838 191.038 180.634 190.985 180.431C190.967 180.36 190.949 180.289 190.931 180.218C190.861 179.942 190.792 179.663 190.722 179.393C190.404 178.012 190.128 176.669 189.931 175.349C189.911 175.21 189.891 175.072 189.871 174.936L189.871 174.935C189.851 174.798 189.831 174.662 189.811 174.523C189.742 174.011 189.683 173.488 189.634 172.974L189.634 172.974L189.633 172.97C189.535 172.024 189.476 171.077 189.456 170.131L189.456 170.122L189.455 170.113C189.436 169.78 189.436 169.454 189.436 169.092C189.436 168.962 189.438 168.832 189.441 168.696L189.441 168.694C189.443 168.56 189.446 168.421 189.446 168.282C189.446 168.061 189.455 167.84 189.465 167.597L189.466 167.572L189.466 167.571C189.476 167.31 189.485 167.069 189.505 166.82L189.505 166.811L189.506 166.802C189.515 166.579 189.532 166.356 189.55 166.114L189.554 166.065C189.554 166.064 189.554 166.063 189.554 166.063C189.574 165.834 189.593 165.624 189.622 165.406L189.624 165.392L189.625 165.377C189.644 165.109 189.673 164.841 189.711 164.572L189.711 164.572L189.713 164.559C189.743 164.299 189.772 164.059 189.81 163.821L189.812 163.809L189.813 163.797C189.831 163.633 189.859 163.466 189.889 163.284L189.89 163.281C190.126 161.803 190.461 160.335 190.895 158.887C190.925 158.788 190.952 158.697 190.978 158.608C191.027 158.442 191.072 158.288 191.129 158.125L191.131 158.118L191.133 158.11C191.272 157.664 191.419 157.215 191.584 156.778L191.589 156.765L191.593 156.751C191.638 156.606 191.693 156.46 191.754 156.297L191.754 156.297L191.756 156.292C192.001 155.617 192.276 154.958 192.573 154.284L192.574 154.284L192.577 154.277C192.656 154.088 192.74 153.908 192.83 153.715C192.859 153.652 192.889 153.588 192.92 153.521Z" fill="white" stroke="white"/>
<mask id="path-12-inside-2_1320_2" fill="white">
<path d="M418.606 276.598C416.536 278.848 413.796 281.698 410.956 284.608C390.686 305.368 364.886 320.018 336.546 326.198C335.736 326.378 334.916 326.548 334.106 326.708C333.706 325.708 333.316 324.708 332.926 323.708C332.566 322.778 332.226 321.848 331.876 320.918C331.286 319.348 330.726 317.758 330.176 316.168C330.046 315.808 329.926 315.448 329.806 315.088C329.576 314.418 329.356 313.758 329.136 313.088C328.826 312.158 328.516 311.218 328.226 310.278C328.006 309.558 327.776 308.848 327.556 308.138C327.466 307.858 327.386 307.578 327.296 307.298C326.736 305.428 326.196 303.548 325.676 301.658C319.426 278.718 317.306 255.928 327.826 233.418C328.716 231.508 329.596 229.598 330.466 227.678C330.856 226.838 331.236 226.008 331.626 225.178C332.056 224.268 332.476 223.358 332.906 222.438C333.166 221.888 333.426 221.338 333.696 220.788C334.426 219.268 335.186 217.768 335.966 216.278C336.216 215.798 336.476 215.318 336.726 214.838C337.056 214.228 337.396 213.618 337.736 213.018C338.076 212.408 338.426 211.808 338.776 211.208C338.946 210.908 339.126 210.608 339.316 210.308C339.466 210.048 339.626 209.798 339.786 209.548C340.016 209.168 340.246 208.798 340.486 208.428C340.556 208.318 340.626 208.218 340.696 208.108C341.016 207.618 341.326 207.138 341.666 206.658C341.926 206.278 342.186 205.908 342.446 205.528C342.496 205.458 342.546 205.388 342.596 205.318C342.746 205.098 342.906 204.888 343.056 204.678C343.146 204.548 343.226 204.438 343.326 204.318C343.446 204.148 343.566 203.988 343.686 203.828C346.746 199.778 350.136 195.998 355.176 194.338C355.656 194.178 356.136 194.058 356.606 193.988C356.756 193.968 356.896 193.948 357.036 193.928C357.136 193.918 357.236 193.908 357.346 193.898C357.786 193.858 358.216 193.858 358.626 193.898C358.996 193.928 359.356 193.988 359.706 194.078C359.786 194.098 359.866 194.118 359.936 194.148C360.056 194.178 360.176 194.218 360.286 194.258C360.416 194.308 360.546 194.358 360.676 194.418C360.736 194.448 360.806 194.468 360.866 194.508C361.186 194.658 361.486 194.848 361.766 195.058C361.876 195.148 361.986 195.228 362.086 195.318C362.196 195.408 362.296 195.508 362.396 195.608C362.496 195.708 362.596 195.808 362.686 195.918C362.736 195.968 362.776 196.028 362.826 196.078C362.896 196.168 362.966 196.248 363.036 196.348C363.106 196.438 363.166 196.538 363.226 196.628C363.306 196.738 363.376 196.858 363.446 196.988C363.536 197.168 363.636 197.348 363.716 197.538C363.746 197.608 363.776 197.688 363.806 197.758C363.836 197.838 363.866 197.908 363.896 197.978C363.946 198.128 363.996 198.278 364.046 198.428C364.116 198.638 364.166 198.858 364.216 199.078C364.266 199.298 364.306 199.528 364.336 199.758C364.756 202.768 364.596 205.938 364.206 208.968C364.156 209.358 364.106 209.758 364.046 210.158C363.996 210.558 363.936 210.948 363.876 211.348C363.556 213.458 363.186 215.558 362.826 217.658C362.696 218.378 362.576 219.098 362.456 219.828C362.346 220.498 362.236 221.158 362.126 221.818C362.076 222.128 362.026 222.428 361.986 222.728C361.856 223.568 361.736 224.408 361.636 225.248C361.596 225.528 361.556 225.798 361.536 226.078C361.516 226.168 361.506 226.248 361.506 226.338C361.436 226.858 361.386 227.378 361.336 227.898C360.906 232.358 360.816 237.028 361.706 241.378C361.736 241.508 361.756 241.638 361.796 241.758C361.816 241.848 361.836 241.928 361.866 242.018C361.866 242.048 361.876 242.068 361.886 242.098C361.936 242.308 361.996 242.518 362.066 242.718C362.096 242.808 362.116 242.898 362.156 242.988C362.186 243.088 362.226 243.188 362.256 243.278C362.286 243.378 362.326 243.468 362.366 243.558C362.456 243.788 362.546 244.008 362.646 244.228C362.736 244.418 362.836 244.608 362.926 244.788C362.996 244.928 363.066 245.058 363.146 245.188C363.216 245.318 363.296 245.438 363.366 245.558C363.446 245.678 363.526 245.798 363.606 245.908C363.766 246.138 363.936 246.368 364.116 246.588C364.196 246.678 364.276 246.778 364.366 246.868C364.376 246.888 364.396 246.908 364.416 246.928C364.516 247.038 364.616 247.148 364.716 247.258C364.926 247.468 365.136 247.668 365.356 247.858C366.076 248.478 366.866 248.988 367.716 249.358C367.826 249.408 367.936 249.458 368.056 249.508C368.386 249.648 368.726 249.768 369.076 249.858C369.146 249.878 369.206 249.898 369.276 249.908C369.346 249.928 369.406 249.938 369.476 249.958C369.606 249.988 369.726 250.018 369.846 250.038C369.976 250.068 370.096 250.088 370.226 250.108C370.316 250.128 370.396 250.138 370.496 250.148C370.626 250.168 370.756 250.178 370.886 250.188C371.036 250.198 371.176 250.208 371.326 250.218C371.476 250.218 371.626 250.228 371.776 250.228C371.946 250.228 372.116 250.228 372.286 250.208C372.426 250.208 372.556 250.198 372.686 250.178C372.886 250.168 373.096 250.138 373.306 250.108C373.456 250.088 373.616 250.058 373.776 250.028C374.126 249.958 374.476 249.878 374.826 249.768C375.036 249.708 375.256 249.638 375.466 249.558C375.686 249.478 375.916 249.388 376.146 249.288C376.316 249.218 376.486 249.138 376.656 249.058C376.826 248.978 376.996 248.888 377.166 248.798C381.976 246.228 386.596 242.818 390.356 238.878C392.276 236.858 394.116 234.778 395.856 232.638C396.036 232.418 396.206 232.208 396.386 231.988C396.486 231.868 396.586 231.738 396.676 231.618C397.066 231.138 397.446 230.648 397.826 230.168C398.146 229.748 398.466 229.338 398.786 228.918C399.106 228.488 399.426 228.058 399.746 227.618C399.886 227.438 400.016 227.258 400.146 227.068C400.276 226.888 400.406 226.708 400.536 226.518C400.826 226.108 401.126 225.698 401.416 225.278C401.706 224.858 401.986 224.458 402.266 224.028C403.566 222.118 404.806 220.178 406.006 218.208C406.796 216.898 407.566 215.578 408.306 214.248C408.556 213.808 408.806 213.358 409.046 212.908C409.246 212.548 409.446 212.178 409.646 211.818C410.326 210.558 410.986 209.298 411.626 208.018C411.816 207.648 412.006 207.278 412.186 206.908C412.456 206.358 412.736 205.808 412.996 205.248C413.206 204.818 413.416 204.388 413.616 203.958C413.886 203.388 414.156 202.818 414.416 202.248C414.776 201.468 415.136 200.688 415.486 199.908C415.846 199.098 416.206 198.288 416.556 197.468V197.418C416.706 197.088 416.846 196.778 416.986 196.448C417.036 196.338 417.086 196.228 417.126 196.118C417.436 195.388 417.746 194.658 418.046 193.918C418.316 193.248 418.596 192.568 418.866 191.888C424.566 177.618 425.316 163.368 420.156 148.788C419.166 145.988 418.196 143.168 417.256 140.348C416.366 137.678 415.496 135.008 414.656 132.328C414.316 131.258 413.986 130.198 413.666 129.128C412.976 126.878 412.316 124.618 411.666 122.358C408.486 111.218 410.076 100.748 417.246 91.3683C417.446 91.0983 417.646 90.8583 417.856 90.6183C418.056 90.3883 418.256 90.1683 418.466 89.9683C418.676 89.7683 418.866 89.5883 419.076 89.4183C419.176 89.3283 419.276 89.2583 419.386 89.1783C419.536 89.0683 419.686 88.9683 419.836 88.8683C419.966 88.7883 420.086 88.7183 420.206 88.6583C420.276 88.6283 420.336 88.5883 420.396 88.5683C420.526 88.5083 420.656 88.4583 420.776 88.4083C420.826 88.3883 420.886 88.3583 420.946 88.3583C420.956 88.3583 420.966 88.3483 420.976 88.3483C421.106 88.3083 421.226 88.2683 421.346 88.2483C421.466 88.2183 421.586 88.2083 421.706 88.1983C421.926 88.1683 422.156 88.1683 422.376 88.1983C422.466 88.1983 422.556 88.2183 422.646 88.2383C422.726 88.2583 422.806 88.2783 422.896 88.2983C422.926 88.2983 422.966 88.3183 422.996 88.3283C423.046 88.3383 423.096 88.3583 423.146 88.3783C423.166 88.3783 423.176 88.3783 423.196 88.3983C423.286 88.4283 423.366 88.4683 423.456 88.5083C423.546 88.5483 423.626 88.5983 423.716 88.6483C423.806 88.6983 423.886 88.7483 423.976 88.7983C424.076 88.8683 424.166 88.9283 424.256 88.9983C424.416 89.1283 424.586 89.2683 424.746 89.4283C424.816 89.4883 424.876 89.5583 424.936 89.6183C425.036 89.7183 425.136 89.8283 425.226 89.9383C425.306 90.0383 425.386 90.1383 425.466 90.2483C425.546 90.3483 425.626 90.4583 425.696 90.5683C425.736 90.6283 425.786 90.6983 425.826 90.7583C425.906 90.8783 425.986 91.0083 426.056 91.1283C426.146 91.2783 426.246 91.4383 426.326 91.6083C426.426 91.7783 426.516 91.9683 426.606 92.1583C426.656 92.2483 426.696 92.3483 426.746 92.4383C433.146 107.848 439.846 123.138 445.836 138.698C450.486 150.788 454.716 163.178 455.476 176.258C457.716 214.978 444.716 248.298 418.666 276.598H418.606Z"/>
</mask>
<path d="M418.606 276.598C416.536 278.848 413.796 281.698 410.956 284.608C390.686 305.368 364.886 320.018 336.546 326.198C335.736 326.378 334.916 326.548 334.106 326.708C333.706 325.708 333.316 324.708 332.926 323.708C332.566 322.778 332.226 321.848 331.876 320.918C331.286 319.348 330.726 317.758 330.176 316.168C330.046 315.808 329.926 315.448 329.806 315.088C329.576 314.418 329.356 313.758 329.136 313.088C328.826 312.158 328.516 311.218 328.226 310.278C328.006 309.558 327.776 308.848 327.556 308.138C327.466 307.858 327.386 307.578 327.296 307.298C326.736 305.428 326.196 303.548 325.676 301.658C319.426 278.718 317.306 255.928 327.826 233.418C328.716 231.508 329.596 229.598 330.466 227.678C330.856 226.838 331.236 226.008 331.626 225.178C332.056 224.268 332.476 223.358 332.906 222.438C333.166 221.888 333.426 221.338 333.696 220.788C334.426 219.268 335.186 217.768 335.966 216.278C336.216 215.798 336.476 215.318 336.726 214.838C337.056 214.228 337.396 213.618 337.736 213.018C338.076 212.408 338.426 211.808 338.776 211.208C338.946 210.908 339.126 210.608 339.316 210.308C339.466 210.048 339.626 209.798 339.786 209.548C340.016 209.168 340.246 208.798 340.486 208.428C340.556 208.318 340.626 208.218 340.696 208.108C341.016 207.618 341.326 207.138 341.666 206.658C341.926 206.278 342.186 205.908 342.446 205.528C342.496 205.458 342.546 205.388 342.596 205.318C342.746 205.098 342.906 204.888 343.056 204.678C343.146 204.548 343.226 204.438 343.326 204.318C343.446 204.148 343.566 203.988 343.686 203.828C346.746 199.778 350.136 195.998 355.176 194.338C355.656 194.178 356.136 194.058 356.606 193.988C356.756 193.968 356.896 193.948 357.036 193.928C357.136 193.918 357.236 193.908 357.346 193.898C357.786 193.858 358.216 193.858 358.626 193.898C358.996 193.928 359.356 193.988 359.706 194.078C359.786 194.098 359.866 194.118 359.936 194.148C360.056 194.178 360.176 194.218 360.286 194.258C360.416 194.308 360.546 194.358 360.676 194.418C360.736 194.448 360.806 194.468 360.866 194.508C361.186 194.658 361.486 194.848 361.766 195.058C361.876 195.148 361.986 195.228 362.086 195.318C362.196 195.408 362.296 195.508 362.396 195.608C362.496 195.708 362.596 195.808 362.686 195.918C362.736 195.968 362.776 196.028 362.826 196.078C362.896 196.168 362.966 196.248 363.036 196.348C363.106 196.438 363.166 196.538 363.226 196.628C363.306 196.738 363.376 196.858 363.446 196.988C363.536 197.168 363.636 197.348 363.716 197.538C363.746 197.608 363.776 197.688 363.806 197.758C363.836 197.838 363.866 197.908 363.896 197.978C363.946 198.128 363.996 198.278 364.046 198.428C364.116 198.638 364.166 198.858 364.216 199.078C364.266 199.298 364.306 199.528 364.336 199.758C364.756 202.768 364.596 205.938 364.206 208.968C364.156 209.358 364.106 209.758 364.046 210.158C363.996 210.558 363.936 210.948 363.876 211.348C363.556 213.458 363.186 215.558 362.826 217.658C362.696 218.378 362.576 219.098 362.456 219.828C362.346 220.498 362.236 221.158 362.126 221.818C362.076 222.128 362.026 222.428 361.986 222.728C361.856 223.568 361.736 224.408 361.636 225.248C361.596 225.528 361.556 225.798 361.536 226.078C361.516 226.168 361.506 226.248 361.506 226.338C361.436 226.858 361.386 227.378 361.336 227.898C360.906 232.358 360.816 237.028 361.706 241.378C361.736 241.508 361.756 241.638 361.796 241.758C361.816 241.848 361.836 241.928 361.866 242.018C361.866 242.048 361.876 242.068 361.886 242.098C361.936 242.308 361.996 242.518 362.066 242.718C362.096 242.808 362.116 242.898 362.156 242.988C362.186 243.088 362.226 243.188 362.256 243.278C362.286 243.378 362.326 243.468 362.366 243.558C362.456 243.788 362.546 244.008 362.646 244.228C362.736 244.418 362.836 244.608 362.926 244.788C362.996 244.928 363.066 245.058 363.146 245.188C363.216 245.318 363.296 245.438 363.366 245.558C363.446 245.678 363.526 245.798 363.606 245.908C363.766 246.138 363.936 246.368 364.116 246.588C364.196 246.678 364.276 246.778 364.366 246.868C364.376 246.888 364.396 246.908 364.416 246.928C364.516 247.038 364.616 247.148 364.716 247.258C364.926 247.468 365.136 247.668 365.356 247.858C366.076 248.478 366.866 248.988 367.716 249.358C367.826 249.408 367.936 249.458 368.056 249.508C368.386 249.648 368.726 249.768 369.076 249.858C369.146 249.878 369.206 249.898 369.276 249.908C369.346 249.928 369.406 249.938 369.476 249.958C369.606 249.988 369.726 250.018 369.846 250.038C369.976 250.068 370.096 250.088 370.226 250.108C370.316 250.128 370.396 250.138 370.496 250.148C370.626 250.168 370.756 250.178 370.886 250.188C371.036 250.198 371.176 250.208 371.326 250.218C371.476 250.218 371.626 250.228 371.776 250.228C371.946 250.228 372.116 250.228 372.286 250.208C372.426 250.208 372.556 250.198 372.686 250.178C372.886 250.168 373.096 250.138 373.306 250.108C373.456 250.088 373.616 250.058 373.776 250.028C374.126 249.958 374.476 249.878 374.826 249.768C375.036 249.708 375.256 249.638 375.466 249.558C375.686 249.478 375.916 249.388 376.146 249.288C376.316 249.218 376.486 249.138 376.656 249.058C376.826 248.978 376.996 248.888 377.166 248.798C381.976 246.228 386.596 242.818 390.356 238.878C392.276 236.858 394.116 234.778 395.856 232.638C396.036 232.418 396.206 232.208 396.386 231.988C396.486 231.868 396.586 231.738 396.676 231.618C397.066 231.138 397.446 230.648 397.826 230.168C398.146 229.748 398.466 229.338 398.786 228.918C399.106 228.488 399.426 228.058 399.746 227.618C399.886 227.438 400.016 227.258 400.146 227.068C400.276 226.888 400.406 226.708 400.536 226.518C400.826 226.108 401.126 225.698 401.416 225.278C401.706 224.858 401.986 224.458 402.266 224.028C403.566 222.118 404.806 220.178 406.006 218.208C406.796 216.898 407.566 215.578 408.306 214.248C408.556 213.808 408.806 213.358 409.046 212.908C409.246 212.548 409.446 212.178 409.646 211.818C410.326 210.558 410.986 209.298 411.626 208.018C411.816 207.648 412.006 207.278 412.186 206.908C412.456 206.358 412.736 205.808 412.996 205.248C413.206 204.818 413.416 204.388 413.616 203.958C413.886 203.388 414.156 202.818 414.416 202.248C414.776 201.468 415.136 200.688 415.486 199.908C415.846 199.098 416.206 198.288 416.556 197.468V197.418C416.706 197.088 416.846 196.778 416.986 196.448C417.036 196.338 417.086 196.228 417.126 196.118C417.436 195.388 417.746 194.658 418.046 193.918C418.316 193.248 418.596 192.568 418.866 191.888C424.566 177.618 425.316 163.368 420.156 148.788C419.166 145.988 418.196 143.168 417.256 140.348C416.366 137.678 415.496 135.008 414.656 132.328C414.316 131.258 413.986 130.198 413.666 129.128C412.976 126.878 412.316 124.618 411.666 122.358C408.486 111.218 410.076 100.748 417.246 91.3683C417.446 91.0983 417.646 90.8583 417.856 90.6183C418.056 90.3883 418.256 90.1683 418.466 89.9683C418.676 89.7683 418.866 89.5883 419.076 89.4183C419.176 89.3283 419.276 89.2583 419.386 89.1783C419.536 89.0683 419.686 88.9683 419.836 88.8683C419.966 88.7883 420.086 88.7183 420.206 88.6583C420.276 88.6283 420.336 88.5883 420.396 88.5683C420.526 88.5083 420.656 88.4583 420.776 88.4083C420.826 88.3883 420.886 88.3583 420.946 88.3583C420.956 88.3583 420.966 88.3483 420.976 88.3483C421.106 88.3083 421.226 88.2683 421.346 88.2483C421.466 88.2183 421.586 88.2083 421.706 88.1983C421.926 88.1683 422.156 88.1683 422.376 88.1983C422.466 88.1983 422.556 88.2183 422.646 88.2383C422.726 88.2583 422.806 88.2783 422.896 88.2983C422.926 88.2983 422.966 88.3183 422.996 88.3283C423.046 88.3383 423.096 88.3583 423.146 88.3783C423.166 88.3783 423.176 88.3783 423.196 88.3983C423.286 88.4283 423.366 88.4683 423.456 88.5083C423.546 88.5483 423.626 88.5983 423.716 88.6483C423.806 88.6983 423.886 88.7483 423.976 88.7983C424.076 88.8683 424.166 88.9283 424.256 88.9983C424.416 89.1283 424.586 89.2683 424.746 89.4283C424.816 89.4883 424.876 89.5583 424.936 89.6183C425.036 89.7183 425.136 89.8283 425.226 89.9383C425.306 90.0383 425.386 90.1383 425.466 90.2483C425.546 90.3483 425.626 90.4583 425.696 90.5683C425.736 90.6283 425.786 90.6983 425.826 90.7583C425.906 90.8783 425.986 91.0083 426.056 91.1283C426.146 91.2783 426.246 91.4383 426.326 91.6083C426.426 91.7783 426.516 91.9683 426.606 92.1583C426.656 92.2483 426.696 92.3483 426.746 92.4383C433.146 107.848 439.846 123.138 445.836 138.698C450.486 150.788 454.716 163.178 455.476 176.258C457.716 214.978 444.716 248.298 418.666 276.598H418.606Z" fill="white" stroke="white" stroke-width="2" mask="url(#path-12-inside-2_1320_2)"/>
<mask id="path-13-inside-3_1320_2" fill="white">
<path d="M278.996 301.668C278.806 302.358 278.616 303.038 278.426 303.728C278.286 304.208 278.156 304.688 278.016 305.158C277.826 305.798 277.646 306.428 277.446 307.068C277.346 307.428 277.236 307.788 277.116 308.148C276.896 308.868 276.676 309.578 276.446 310.288C276.216 311.008 275.986 311.718 275.756 312.438C275.546 313.088 275.336 313.728 275.096 314.408C274.916 314.918 274.756 315.428 274.586 315.938C274.546 316.048 274.506 316.158 274.466 316.268C274.186 317.078 273.896 317.888 273.606 318.698C273.336 319.448 273.066 320.188 272.796 320.928C272.626 321.398 272.446 321.858 272.276 322.328C272.086 322.848 271.886 323.368 271.686 323.888C271.376 324.688 271.066 325.488 270.746 326.288C270.696 326.438 270.636 326.578 270.576 326.728C269.756 326.558 268.946 326.388 268.126 326.218C239.486 319.968 213.506 305.008 193.066 283.998C190.696 281.568 188.366 279.108 186.066 276.618C160.006 248.328 147.016 214.998 149.246 176.278C150.006 163.188 154.226 150.808 158.886 138.718C164.876 123.158 171.576 107.868 177.976 92.4583L178.086 92.2283C178.176 92.0583 178.246 91.8883 178.346 91.7383C178.406 91.6283 178.466 91.5183 178.526 91.4083C178.786 90.9583 179.046 90.5483 179.326 90.1983C179.386 90.1183 179.456 90.0383 179.516 89.9683C179.646 89.8083 179.786 89.6483 179.936 89.5083C180.036 89.4083 180.146 89.3083 180.246 89.2183C180.626 88.8883 181.026 88.6383 181.436 88.4783C181.456 88.4683 181.476 88.4583 181.506 88.4483C181.586 88.4183 181.666 88.3883 181.756 88.3683C181.836 88.3483 181.906 88.3283 181.986 88.3083C182.006 88.3083 182.016 88.3083 182.036 88.3083C182.036 88.3083 182.066 88.3083 182.076 88.2983H182.116C182.116 88.2983 182.146 88.2883 182.156 88.2883H182.176C182.236 88.2783 182.296 88.2683 182.356 88.2583C182.446 88.2483 182.546 88.2383 182.636 88.2383H182.796C182.906 88.2383 183.026 88.2483 183.136 88.2683C183.146 88.2683 183.156 88.2683 183.166 88.2683C183.436 88.3083 183.706 88.3783 183.976 88.4883C184.086 88.5283 184.196 88.5783 184.306 88.6283C184.436 88.6883 184.566 88.7583 184.696 88.8283C184.696 88.8283 184.696 88.8283 184.706 88.8283C184.706 88.8283 184.716 88.8383 184.726 88.8383C184.816 88.8883 184.896 88.9383 184.986 88.9983C185.046 89.0383 185.106 89.0783 185.166 89.1283C185.246 89.1783 185.316 89.2383 185.396 89.2883C185.476 89.3383 185.546 89.3983 185.626 89.4683C185.826 89.6283 186.026 89.8083 186.236 90.0183C186.336 90.1183 186.436 90.2183 186.546 90.3283C186.746 90.5483 186.946 90.7783 187.156 91.0283C187.256 91.1583 187.356 91.2883 187.466 91.4183C194.636 100.798 196.226 111.278 193.046 122.408C192.406 124.668 191.736 126.928 191.046 129.178C190.716 130.248 190.386 131.318 190.056 132.388C189.386 134.538 188.686 136.678 187.986 138.818C187.816 139.338 187.636 139.868 187.466 140.388C186.836 142.298 186.186 144.198 185.526 146.088C185.206 147.008 184.886 147.928 184.566 148.838C179.406 163.418 180.156 177.668 185.846 191.938C186.126 192.648 186.416 193.358 186.706 194.068C187.416 195.798 188.146 197.518 188.906 199.228C189.186 199.878 189.476 200.528 189.776 201.168C190.006 201.678 190.236 202.178 190.466 202.678C190.696 203.178 190.926 203.688 191.166 204.178C191.196 204.248 191.216 204.298 191.256 204.358C191.546 204.978 191.846 205.588 192.146 206.208C192.406 206.728 192.656 207.238 192.916 207.758C193.296 208.518 193.686 209.278 194.086 210.038C194.306 210.468 194.536 210.898 194.766 211.318C195.796 213.248 196.856 215.138 197.976 217.018C198.176 217.358 198.376 217.708 198.586 218.048C198.626 218.118 198.666 218.188 198.716 218.258C199.026 218.768 199.326 219.268 199.646 219.768C199.846 220.098 200.056 220.418 200.266 220.748C200.976 221.878 201.706 222.988 202.466 224.088C202.706 224.458 202.956 224.808 203.206 225.168C203.836 226.068 204.476 226.968 205.116 227.848C205.396 228.228 205.676 228.598 205.956 228.968C206.766 230.048 207.596 231.108 208.446 232.168C208.876 232.688 209.296 233.208 209.736 233.728C210.666 234.838 211.626 235.938 212.606 237.018C212.876 237.328 213.156 237.628 213.446 237.938C213.756 238.268 214.066 238.608 214.376 238.928C218.126 242.868 222.756 246.278 227.566 248.848C227.736 248.938 227.906 249.018 228.076 249.108C228.246 249.188 228.416 249.268 228.586 249.338C228.806 249.428 229.036 249.528 229.266 249.608C229.476 249.688 229.696 249.748 229.906 249.818C230.366 249.958 230.836 250.058 231.296 250.138C231.516 250.168 231.746 250.198 231.966 250.218C234.736 250.488 237.346 249.638 239.376 247.898C239.596 247.708 239.816 247.508 240.016 247.298C240.116 247.188 240.216 247.088 240.316 246.968L240.366 246.918C241.066 246.118 241.676 245.188 242.146 244.148C242.216 244.008 242.276 243.868 242.326 243.728C242.396 243.568 242.456 243.408 242.516 243.248C242.546 243.178 242.566 243.098 242.596 243.028C242.646 242.878 242.696 242.738 242.736 242.578C242.746 242.568 242.746 242.548 242.746 242.538C242.816 242.338 242.866 242.138 242.916 241.928C242.956 241.758 242.996 241.588 243.026 241.418C243.906 237.078 243.816 232.398 243.386 227.938C243.336 227.418 243.286 226.898 243.216 226.378C243.216 226.298 243.196 226.208 243.186 226.118C243.156 225.838 243.116 225.568 243.086 225.288C243.086 225.248 243.086 225.198 243.066 225.158C243.036 224.898 242.996 224.638 242.966 224.378C242.896 223.838 242.816 223.308 242.736 222.768C242.696 222.458 242.646 222.158 242.596 221.858C242.496 221.188 242.386 220.528 242.266 219.868C242.146 219.138 242.016 218.418 241.896 217.698C241.626 216.168 241.356 214.638 241.106 213.108C241.066 212.838 241.016 212.558 240.976 212.278C240.916 211.918 240.866 211.558 240.806 211.188C240.756 210.828 240.696 210.468 240.646 210.098C240.596 209.738 240.546 209.368 240.496 209.008C240.106 205.978 239.946 202.808 240.366 199.798C240.386 199.648 240.406 199.508 240.436 199.368C240.466 199.228 240.486 199.088 240.526 198.948C240.566 198.808 240.596 198.678 240.636 198.548C240.666 198.418 240.716 198.288 240.756 198.158C240.796 198.028 240.846 197.908 240.896 197.788C240.956 197.638 241.026 197.488 241.096 197.348C241.306 196.918 241.546 196.528 241.836 196.178C241.916 196.088 241.986 195.988 242.066 195.908C242.146 195.818 242.226 195.738 242.316 195.648C242.396 195.568 242.476 195.488 242.566 195.408C242.656 195.328 242.746 195.258 242.836 195.188C242.926 195.118 243.026 195.048 243.116 194.978C243.216 194.908 243.316 194.848 243.416 194.788C243.546 194.708 243.676 194.648 243.806 194.578C243.816 194.578 243.826 194.568 243.836 194.558C243.896 194.528 243.956 194.508 244.016 194.478C244.026 194.478 244.036 194.468 244.046 194.458C244.086 194.438 244.126 194.428 244.156 194.408C244.176 194.408 244.186 194.398 244.206 194.388C244.576 194.238 244.966 194.118 245.376 194.038C245.496 194.018 245.616 193.998 245.736 193.978C245.916 193.948 246.106 193.928 246.296 193.928C246.436 193.918 246.576 193.908 246.716 193.908C247.166 193.908 247.626 193.938 248.096 194.018C248.566 194.098 249.036 194.218 249.526 194.368C254.566 196.028 257.946 199.808 261.016 203.858C261.386 204.358 261.756 204.848 262.116 205.358C262.306 205.618 262.496 205.888 262.676 206.148C262.806 206.348 262.946 206.538 263.076 206.738C263.256 206.998 263.426 207.258 263.596 207.528C264.326 208.628 265.026 209.738 265.696 210.868C265.866 211.148 266.036 211.438 266.206 211.718C268.226 215.168 270.016 218.738 271.736 222.348C271.986 222.868 272.226 223.378 272.466 223.898C272.836 224.688 273.206 225.488 273.576 226.288C274.686 228.678 275.776 231.068 276.886 233.458C287.416 255.968 285.286 278.758 279.046 301.698L278.996 301.668Z"/>
</mask>
<path d="M278.996 301.668C278.806 302.358 278.616 303.038 278.426 303.728C278.286 304.208 278.156 304.688 278.016 305.158C277.826 305.798 277.646 306.428 277.446 307.068C277.346 307.428 277.236 307.788 277.116 308.148C276.896 308.868 276.676 309.578 276.446 310.288C276.216 311.008 275.986 311.718 275.756 312.438C275.546 313.088 275.336 313.728 275.096 314.408C274.916 314.918 274.756 315.428 274.586 315.938C274.546 316.048 274.506 316.158 274.466 316.268C274.186 317.078 273.896 317.888 273.606 318.698C273.336 319.448 273.066 320.188 272.796 320.928C272.626 321.398 272.446 321.858 272.276 322.328C272.086 322.848 271.886 323.368 271.686 323.888C271.376 324.688 271.066 325.488 270.746 326.288C270.696 326.438 270.636 326.578 270.576 326.728C269.756 326.558 268.946 326.388 268.126 326.218C239.486 319.968 213.506 305.008 193.066 283.998C190.696 281.568 188.366 279.108 186.066 276.618C160.006 248.328 147.016 214.998 149.246 176.278C150.006 163.188 154.226 150.808 158.886 138.718C164.876 123.158 171.576 107.868 177.976 92.4583L178.086 92.2283C178.176 92.0583 178.246 91.8883 178.346 91.7383C178.406 91.6283 178.466 91.5183 178.526 91.4083C178.786 90.9583 179.046 90.5483 179.326 90.1983C179.386 90.1183 179.456 90.0383 179.516 89.9683C179.646 89.8083 179.786 89.6483 179.936 89.5083C180.036 89.4083 180.146 89.3083 180.246 89.2183C180.626 88.8883 181.026 88.6383 181.436 88.4783C181.456 88.4683 181.476 88.4583 181.506 88.4483C181.586 88.4183 181.666 88.3883 181.756 88.3683C181.836 88.3483 181.906 88.3283 181.986 88.3083C182.006 88.3083 182.016 88.3083 182.036 88.3083C182.036 88.3083 182.066 88.3083 182.076 88.2983H182.116C182.116 88.2983 182.146 88.2883 182.156 88.2883H182.176C182.236 88.2783 182.296 88.2683 182.356 88.2583C182.446 88.2483 182.546 88.2383 182.636 88.2383H182.796C182.906 88.2383 183.026 88.2483 183.136 88.2683C183.146 88.2683 183.156 88.2683 183.166 88.2683C183.436 88.3083 183.706 88.3783 183.976 88.4883C184.086 88.5283 184.196 88.5783 184.306 88.6283C184.436 88.6883 184.566 88.7583 184.696 88.8283C184.696 88.8283 184.696 88.8283 184.706 88.8283C184.706 88.8283 184.716 88.8383 184.726 88.8383C184.816 88.8883 184.896 88.9383 184.986 88.9983C185.046 89.0383 185.106 89.0783 185.166 89.1283C185.246 89.1783 185.316 89.2383 185.396 89.2883C185.476 89.3383 185.546 89.3983 185.626 89.4683C185.826 89.6283 186.026 89.8083 186.236 90.0183C186.336 90.1183 186.436 90.2183 186.546 90.3283C186.746 90.5483 186.946 90.7783 187.156 91.0283C187.256 91.1583 187.356 91.2883 187.466 91.4183C194.636 100.798 196.226 111.278 193.046 122.408C192.406 124.668 191.736 126.928 191.046 129.178C190.716 130.248 190.386 131.318 190.056 132.388C189.386 134.538 188.686 136.678 187.986 138.818C187.816 139.338 187.636 139.868 187.466 140.388C186.836 142.298 186.186 144.198 185.526 146.088C185.206 147.008 184.886 147.928 184.566 148.838C179.406 163.418 180.156 177.668 185.846 191.938C186.126 192.648 186.416 193.358 186.706 194.068C187.416 195.798 188.146 197.518 188.906 199.228C189.186 199.878 189.476 200.528 189.776 201.168C190.006 201.678 190.236 202.178 190.466 202.678C190.696 203.178 190.926 203.688 191.166 204.178C191.196 204.248 191.216 204.298 191.256 204.358C191.546 204.978 191.846 205.588 192.146 206.208C192.406 206.728 192.656 207.238 192.916 207.758C193.296 208.518 193.686 209.278 194.086 210.038C194.306 210.468 194.536 210.898 194.766 211.318C195.796 213.248 196.856 215.138 197.976 217.018C198.176 217.358 198.376 217.708 198.586 218.048C198.626 218.118 198.666 218.188 198.716 218.258C199.026 218.768 199.326 219.268 199.646 219.768C199.846 220.098 200.056 220.418 200.266 220.748C200.976 221.878 201.706 222.988 202.466 224.088C202.706 224.458 202.956 224.808 203.206 225.168C203.836 226.068 204.476 226.968 205.116 227.848C205.396 228.228 205.676 228.598 205.956 228.968C206.766 230.048 207.596 231.108 208.446 232.168C208.876 232.688 209.296 233.208 209.736 233.728C210.666 234.838 211.626 235.938 212.606 237.018C212.876 237.328 213.156 237.628 213.446 237.938C213.756 238.268 214.066 238.608 214.376 238.928C218.126 242.868 222.756 246.278 227.566 248.848C227.736 248.938 227.906 249.018 228.076 249.108C228.246 249.188 228.416 249.268 228.586 249.338C228.806 249.428 229.036 249.528 229.266 249.608C229.476 249.688 229.696 249.748 229.906 249.818C230.366 249.958 230.836 250.058 231.296 250.138C231.516 250.168 231.746 250.198 231.966 250.218C234.736 250.488 237.346 249.638 239.376 247.898C239.596 247.708 239.816 247.508 240.016 247.298C240.116 247.188 240.216 247.088 240.316 246.968L240.366 246.918C241.066 246.118 241.676 245.188 242.146 244.148C242.216 244.008 242.276 243.868 242.326 243.728C242.396 243.568 242.456 243.408 242.516 243.248C242.546 243.178 242.566 243.098 242.596 243.028C242.646 242.878 242.696 242.738 242.736 242.578C242.746 242.568 242.746 242.548 242.746 242.538C242.816 242.338 242.866 242.138 242.916 241.928C242.956 241.758 242.996 241.588 243.026 241.418C243.906 237.078 243.816 232.398 243.386 227.938C243.336 227.418 243.286 226.898 243.216 226.378C243.216 226.298 243.196 226.208 243.186 226.118C243.156 225.838 243.116 225.568 243.086 225.288C243.086 225.248 243.086 225.198 243.066 225.158C243.036 224.898 242.996 224.638 242.966 224.378C242.896 223.838 242.816 223.308 242.736 222.768C242.696 222.458 242.646 222.158 242.596 221.858C242.496 221.188 242.386 220.528 242.266 219.868C242.146 219.138 242.016 218.418 241.896 217.698C241.626 216.168 241.356 214.638 241.106 213.108C241.066 212.838 241.016 212.558 240.976 212.278C240.916 211.918 240.866 211.558 240.806 211.188C240.756 210.828 240.696 210.468 240.646 210.098C240.596 209.738 240.546 209.368 240.496 209.008C240.106 205.978 239.946 202.808 240.366 199.798C240.386 199.648 240.406 199.508 240.436 199.368C240.466 199.228 240.486 199.088 240.526 198.948C240.566 198.808 240.596 198.678 240.636 198.548C240.666 198.418 240.716 198.288 240.756 198.158C240.796 198.028 240.846 197.908 240.896 197.788C240.956 197.638 241.026 197.488 241.096 197.348C241.306 196.918 241.546 196.528 241.836 196.178C241.916 196.088 241.986 195.988 242.066 195.908C242.146 195.818 242.226 195.738 242.316 195.648C242.396 195.568 242.476 195.488 242.566 195.408C242.656 195.328 242.746 195.258 242.836 195.188C242.926 195.118 243.026 195.048 243.116 194.978C243.216 194.908 243.316 194.848 243.416 194.788C243.546 194.708 243.676 194.648 243.806 194.578C243.816 194.578 243.826 194.568 243.836 194.558C243.896 194.528 243.956 194.508 244.016 194.478C244.026 194.478 244.036 194.468 244.046 194.458C244.086 194.438 244.126 194.428 244.156 194.408C244.176 194.408 244.186 194.398 244.206 194.388C244.576 194.238 244.966 194.118 245.376 194.038C245.496 194.018 245.616 193.998 245.736 193.978C245.916 193.948 246.106 193.928 246.296 193.928C246.436 193.918 246.576 193.908 246.716 193.908C247.166 193.908 247.626 193.938 248.096 194.018C248.566 194.098 249.036 194.218 249.526 194.368C254.566 196.028 257.946 199.808 261.016 203.858C261.386 204.358 261.756 204.848 262.116 205.358C262.306 205.618 262.496 205.888 262.676 206.148C262.806 206.348 262.946 206.538 263.076 206.738C263.256 206.998 263.426 207.258 263.596 207.528C264.326 208.628 265.026 209.738 265.696 210.868C265.866 211.148 266.036 211.438 266.206 211.718C268.226 215.168 270.016 218.738 271.736 222.348C271.986 222.868 272.226 223.378 272.466 223.898C272.836 224.688 273.206 225.488 273.576 226.288C274.686 228.678 275.776 231.068 276.886 233.458C287.416 255.968 285.286 278.758 279.046 301.698L278.996 301.668Z" fill="white" stroke="white" stroke-width="2" mask="url(#path-13-inside-3_1320_2)"/>
<path d="M254.216 73.2398C254.216 84.6447 244.971 93.8898 233.566 93.8898C222.161 93.8898 212.916 84.6447 212.916 73.2398C212.916 61.835 222.161 52.5898 233.566 52.5898C244.971 52.5898 254.216 61.835 254.216 73.2398Z" fill="white" stroke="white"/>
<path d="M754.7 113.059H742.61V67.6387V67.1387H742.11H724.5V57.4688H772.81V67.1387H755.2H754.7V67.6387V113.059Z" fill="white" stroke="white"/>
<path d="M783.157 113.059H770.85L795.625 57.4688H807.906L832.759 113.059H820.124L815.515 101.929H818.83H819.54L819.301 101.26L815.741 91.3201L815.622 90.9887H815.27H810.984L802.221 69.8275L804.732 63.7907L805.02 63.0987H804.27H799.1H798.352L798.638 63.79L801.138 69.8267L792.336 90.9887H786.17H785.815L785.698 91.3235L782.218 101.264L781.985 101.929H782.69H782.7H787.786L783.157 113.059ZM814.918 91.9887L818.12 100.929H815.101L811.398 91.9887H814.918ZM801.68 68.5227L799.848 64.0987H803.521L801.68 68.5227ZM791.92 91.9887L788.202 100.929H783.395L786.525 91.9887H791.92ZM810.316 91.9887L814.018 100.929H789.285L793.003 91.9887H810.316Z" fill="white" stroke="white"/>
<path d="M845.16 112.23L845.16 112.23C849.19 113.408 853.414 114.011 857.823 114.03L857.833 114.02H858.04C863.385 114.02 867.768 113.226 871.211 111.646C874.676 110.056 877.247 107.979 878.965 105.43C880.69 102.873 881.55 100.06 881.55 96.98C881.55 94.077 880.954 91.7254 879.806 89.8846C878.637 88.011 877.113 86.5061 875.239 85.3562C873.339 84.1911 871.23 83.2679 868.927 82.579C866.597 81.8821 864.258 81.2649 861.928 80.7272C861.928 80.7272 861.928 80.7272 861.928 80.7272L862.04 80.24L845.16 112.23ZM845.16 112.23C841.223 111.082 838.049 109.606 835.62 107.821L839.659 98.8724C842.024 100.47 844.764 101.795 847.902 102.834C851.262 103.961 854.675 104.52 858.12 104.52C860.735 104.52 862.873 104.269 864.534 103.726C866.181 103.197 867.445 102.435 868.284 101.43L868.284 101.431M845.16 112.23L868.284 101.431M868.284 101.431L868.288 101.426M868.284 101.431L868.288 101.426M868.288 101.426C869.109 100.418 869.53 99.2573 869.53 97.96C869.53 96.2966 868.869 94.9465 867.549 93.9596C866.298 93.0239 864.679 92.2715 862.7 91.7C860.746 91.1259 858.594 90.5932 856.238 90.0718L856.236 90.0715M868.288 101.426L856.236 90.0715M856.236 90.0715C853.912 89.5649 851.578 88.9391 849.255 88.1844L849.253 88.1838M856.236 90.0715L849.253 88.1838M849.253 88.1838C846.947 87.4449 844.834 86.491 842.931 85.3238L842.93 85.3228M849.253 88.1838L842.93 85.3228M842.93 85.3228C841.058 84.184 839.534 82.67 838.364 80.7954M842.93 85.3228L838.364 80.7954M838.364 80.7954C837.217 78.9559 836.62 76.575 836.62 73.62M838.364 80.7954L836.62 73.62M836.62 73.62C836.62 70.4867 837.472 67.6321 839.168 65.0441M836.62 73.62L839.168 65.0441M839.168 65.0441C840.856 62.4692 843.414 60.3951 846.875 58.8359M839.168 65.0441L846.875 58.8359M846.875 58.8359C850.321 57.2839 854.675 56.5 859.97 56.5M846.875 58.8359L859.97 56.5M859.97 56.5C863.49 56.5 866.951 56.9152 870.363 57.736M859.97 56.5L870.363 57.736M870.363 57.736C873.613 58.5274 876.483 59.6847 878.988 61.2123L875.321 70.2358C872.814 68.8479 870.301 67.8043 867.783 67.1081C865.103 66.3669 862.468 66 859.89 66C857.326 66 855.183 66.3032 853.499 66.9203C851.827 67.5293 850.568 68.3451 849.789 69.3914C849.021 70.4228 848.64 71.619 848.64 72.96C848.64 74.5799 849.306 75.897 850.62 76.8798L870.363 57.736Z" fill="white" stroke="white"/>
<path d="M903.61 57.4688V78.7887H903.14H902.64V79.2887V90.3587V90.8587H903.14H903.61V113.059H891.51V57.4688H903.61ZM929.32 89.8587H904.61V79.7887H929.32V89.8587ZM930.32 113.059V90.8587H930.79H931.29V90.3587V79.2887V78.7887H930.79H930.32V57.4688H942.42V113.059H930.32Z" fill="white" stroke="white"/>
<path d="M968.85 57.4688V83.1698L966.957 85.1646L966.81 85.3195L966.821 85.5328L967.539 100.419L967.34 100.627L967.687 100.973L967.697 100.983L968.612 101.895L968.559 100.8L968.85 100.496V113.059H956.83V57.4688H968.85ZM995.279 113.049L977.589 91.3779L977.621 91.3447L977.625 91.3408L984.905 83.5808L984.906 83.5791L985.497 82.9434L1009.3 113.049H995.279ZM994.615 57.4688H1007.8L985.558 81.4084L983.882 79.2886L983.519 78.8293L983.122 79.2599L974.552 88.5599L974.258 88.8789L974.533 89.2149L976.255 91.3248L969.85 98.0075V83.5687L994.615 57.4688ZM975.582 88.9186L983.461 80.3681L984.869 82.1497L984.175 82.8966L984.174 82.8984L976.952 90.5967L975.582 88.9186ZM967.83 85.6979L968.85 84.6226V99.0509L968.492 99.4241L967.83 85.6979Z" fill="white" stroke="white"/>
<path d="M1028.66 103.049V103.549H1029.16H1059.46V113.059H1016.65V57.4688H1058.41V66.9787H1029.16H1028.66V67.4787V79.2687H1028.19H1027.69V79.7687V89.9587V90.4587H1028.19H1028.66V103.049ZM1054.93 89.4587H1029.66V80.2687H1054.93V89.4587Z" fill="white" stroke="white"/>
<path d="M1111.77 113.059L1083.81 79.03V72.8187V72.3187H1083.31H1078.06H1077L1077.67 73.1361L1082.81 79.3881V113.059H1070.89V57.4688H1080.98L1108.85 91.4798V97.7087V98.2087H1109.35H1114.6H1115.66L1114.99 97.3919L1109.85 91.1225V57.4688H1121.78V113.059H1111.77ZM1082.81 77.8128L1079.12 73.3187H1082.81V77.8128ZM1109.85 97.2087V92.7003L1113.54 97.2087H1109.85Z" fill="white" stroke="white"/>
<path d="M1160.01 113.059H1147.92V67.6387V67.1387H1147.42H1129.81V57.4688H1178.12V67.1387H1160.51H1160.01V67.6387V113.059Z" fill="white" stroke="white"/>
<path d="M730.89 210.059V154.469H742.99V210.059H730.89Z" fill="white" stroke="white"/>
<path d="M798.276 210.059L770.32 176.03V169.819V169.319H769.82H764.57H763.512L764.184 170.136L769.32 176.388V210.059H757.4V154.469H767.493L795.36 188.48V194.709V195.209H795.86H801.11H802.166L801.497 194.392L796.36 188.123V154.469H808.29V210.059H798.276ZM769.32 174.813L765.628 170.319H769.32V174.813ZM796.36 194.209V189.7L800.054 194.209H796.36Z" fill="white" stroke="white"/>
<path d="M846.53 210.059H834.44V164.639V164.139H833.94H816.33V154.469H864.64V164.139H847.03H846.53V164.639V210.059Z" fill="white" stroke="white"/>
<path d="M884.69 200.049V200.549H885.19H915.49V210.059H872.68V154.469H914.44V163.979H885.19H884.69V164.479V176.269H884.22H883.72V176.769V186.959V187.459H884.22H884.69V200.049ZM910.96 186.459H885.69V177.269H910.96V186.459Z" fill="white" stroke="white"/>
<path d="M972.082 185.095C970.197 187.974 967.534 190.214 964.072 191.783L962.65 189.743L962.501 189.529H962.24H948.25H947.298L947.838 190.312L950.579 194.289H940.01V191.753L940.02 191.763V190.509V184.869H950.19C954.291 184.869 957.452 183.977 959.57 182.114C961.685 180.254 962.73 177.698 962.73 174.509C962.73 171.324 961.688 168.695 959.568 166.851L959.567 166.85C957.449 165.02 954.289 164.139 950.19 164.139H940.02V158.419V157.153L939.155 158.077L933.335 164.297L932.547 165.139H933.7H939.02V183.869H933.7H932.537L933.337 184.713L938.1 189.737L933.339 194.433L932.471 195.289H933.69H939.01V210.049H926.92V154.469H950.91C955.917 154.469 960.214 155.28 963.805 156.895L963.805 156.895C967.386 158.5 970.138 160.799 972.081 163.782C974.01 166.758 974.99 170.33 974.99 174.499C974.99 178.666 974.011 182.148 972.082 185.095ZM962.663 210.059L952.465 195.263C956.718 195.119 960.469 194.378 963.72 193.027L975.592 210.059H962.663ZM961.979 190.529L963.134 192.186C959.9 193.495 956.125 194.198 951.788 194.28L949.202 190.529H961.979ZM939.02 159.685V164.139H934.853L939.02 159.685ZM939.01 190.698V194.289H934.909L938.788 190.463L939.01 190.698ZM939.02 188.83L938.812 189.035L934.863 184.869H939.02V188.83Z" fill="white" stroke="white"/>
<path d="M1027.21 210.059L999.25 176.03V169.819V169.319H998.75H993.5H992.442L993.114 170.136L998.25 176.388V210.059H986.33V154.469H996.423L1024.29 188.48V194.709V195.209H1024.79H1030.04H1031.1L1030.43 194.392L1025.29 188.122V154.469H1037.22V210.059H1027.21ZM998.25 174.813L994.558 170.319H998.25V174.813ZM1025.29 194.209V189.7L1028.98 194.209H1025.29Z" fill="white" stroke="white"/>
<path d="M1056.79 210.059H1044.48L1069.25 154.469H1081.54L1106.39 210.059H1093.75L1089.14 198.929H1092.46H1093.17L1092.93 198.26L1089.37 188.32L1089.25 187.989H1088.9H1084.61L1075.85 166.828L1078.36 160.791L1078.65 160.099H1077.9H1072.73H1071.98L1072.27 160.79L1074.77 166.827L1065.97 187.989H1059.8H1059.45L1059.33 188.324L1055.85 198.264L1055.62 198.929H1056.32H1056.33H1061.42L1056.79 210.059ZM1088.55 188.989L1091.75 197.929H1088.73L1085.03 188.989H1088.55ZM1075.31 165.523L1073.48 161.099H1077.15L1075.31 165.523ZM1065.55 188.989L1061.83 197.929H1057.02L1060.15 188.989H1065.55ZM1083.95 188.989L1087.65 197.929H1062.91L1066.63 188.989H1083.95Z" fill="white" stroke="white"/>
<path d="M1134.55 210.059H1122.46V164.639V164.139H1121.96H1104.35V154.469H1152.66V164.139H1135.05H1134.55V164.639V210.059Z" fill="white" stroke="white"/>
<path d="M1160.69 210.059V154.469H1172.79V210.059H1160.69Z" fill="white" stroke="white"/>
<path d="M1192.26 202.849L1192.26 202.85C1194.98 205.44 1198.22 207.446 1201.96 208.885L1192.26 202.849ZM1192.26 202.849C1189.53 200.257 1187.42 197.213 1185.91 193.713C1184.4 190.222 1183.65 186.41 1183.65 182.272C1183.65 178.135 1184.41 174.323 1185.91 170.83C1187.42 167.332 1189.55 164.288 1192.3 161.696C1195.05 159.102 1198.29 157.086 1202 155.658L1202 155.658M1192.26 202.849L1202 155.658M1202 155.658C1205.71 154.223 1209.75 153.512 1214.11 153.512C1218.47 153.512 1222.57 154.233 1226.26 155.658M1202 155.658L1226.26 155.658M1226.26 155.658C1229.95 157.095 1233.15 159.101 1235.88 161.694C1238.61 164.288 1240.73 167.323 1242.27 170.794C1243.8 174.254 1244.57 178.074 1244.57 182.272C1244.57 186.468 1243.8 190.239 1242.27 193.752C1240.74 197.271 1238.61 200.315 1235.88 202.887C1233.15 205.451 1229.94 207.458 1226.26 208.885L1226.26 208.886C1222.57 210.321 1218.55 211.032 1214.19 211.032C1209.78 211.032 1205.7 210.311 1201.96 208.885L1226.26 155.658ZM1214.11 200.872C1216.7 200.872 1219.09 200.432 1221.29 199.545C1223.48 198.66 1225.41 197.383 1227.07 195.715C1228.74 194.046 1230.03 192.078 1230.94 189.808C1231.86 187.531 1232.31 185.017 1232.31 182.262C1232.31 179.507 1231.86 176.992 1230.94 174.715C1230.03 172.447 1228.75 170.48 1227.12 168.811C1225.48 167.141 1223.55 165.862 1221.32 164.977C1219.1 164.092 1216.7 163.652 1214.11 163.652C1211.52 163.652 1209.13 164.092 1206.93 164.978C1204.74 165.863 1202.81 167.141 1201.15 168.808C1199.48 170.478 1198.19 172.445 1197.28 174.715C1196.36 176.992 1195.91 179.507 1195.91 182.262C1195.91 185.019 1196.36 187.462 1197.28 189.766C1198.19 192.065 1199.46 194.042 1201.1 195.712C1202.74 197.382 1204.67 198.661 1206.9 199.546C1209.12 200.432 1211.52 200.872 1214.11 200.872Z" fill="white" stroke="white"/>
<path d="M1296.31 210.059L1268.35 176.03V169.819V169.319H1267.85H1262.6H1261.54L1262.21 170.136L1267.35 176.388V210.059H1255.43V154.469H1265.52L1293.39 188.48V194.709V195.209H1293.89H1299.14H1300.2L1299.53 194.392L1294.39 188.122V154.469H1306.32V210.059H1296.31ZM1267.35 174.813L1263.66 170.319H1267.35V174.813ZM1294.39 194.209V189.7L1298.08 194.209H1294.39Z" fill="white" stroke="white"/>
<path d="M1325.89 210.059H1313.58L1338.35 154.469H1350.64L1375.49 210.059H1362.85L1358.24 198.929H1361.56H1362.27L1362.03 198.26L1358.47 188.32L1358.35 187.989H1358H1353.71L1344.95 166.828L1347.46 160.791L1347.75 160.099H1347H1341.83H1341.08L1341.37 160.79L1343.87 166.827L1335.07 187.989H1328.9H1328.55L1328.43 188.324L1324.95 198.264L1324.72 198.929H1325.42H1325.43H1330.52L1325.89 210.059ZM1357.65 188.989L1360.85 197.929H1357.83L1354.13 188.989H1357.65ZM1344.41 165.523L1342.58 161.099H1346.25L1344.41 165.523ZM1334.65 188.989L1330.93 197.929H1326.12L1329.25 188.989H1334.65ZM1353.05 188.989L1356.75 197.929H1332.01L1335.73 188.989H1353.05Z" fill="white" stroke="white"/>
<path d="M1395.27 200.389H1423.14V210.059H1382.67V154.469H1394.77V199.889V200.389H1395.27Z" fill="white" stroke="white"/>
<path d="M757.97 308.049V308.032H757.47C753.155 308.032 749.166 307.331 745.478 305.925C741.788 304.517 738.606 302.522 735.906 299.931C733.205 297.338 731.103 294.294 729.589 290.793C728.079 287.302 727.33 283.471 727.33 279.272C727.33 275.074 728.088 271.242 729.589 267.75C731.103 264.251 733.214 261.217 735.945 258.614C738.665 256.021 741.858 254.026 745.519 252.618C749.176 251.213 753.184 250.512 757.55 250.512C762.392 250.512 766.763 251.351 770.653 253.021C774.394 254.627 777.558 256.949 780.142 259.996L772.454 267.09C770.562 265.023 768.462 263.446 766.161 262.378C763.721 261.246 761.059 260.672 758.19 260.672C755.495 260.672 753.003 261.111 750.729 261.996C748.456 262.88 746.487 264.158 744.816 265.828C743.147 267.498 741.86 269.465 740.946 271.735C740.029 274.012 739.58 276.527 739.58 279.282C739.58 282.037 740.029 284.551 740.946 286.829C741.86 289.098 743.147 291.066 744.816 292.735C746.487 294.406 748.456 295.683 750.729 296.568C753.003 297.453 755.485 297.892 758.19 297.892C761.057 297.892 763.72 297.328 766.161 296.185C768.465 295.115 770.566 293.51 772.458 291.397L780.141 298.486C777.548 301.536 774.393 303.868 770.651 305.503C766.894 307.135 762.67 307.992 757.97 308.049Z" fill="white" stroke="white"/>
<path d="M802.74 297.4H830.61V307.07H790.14V251.48H802.24V296.9V297.4H802.74Z" fill="white" stroke="white"/>
<path d="M838.97 307.07V251.48H851.07V307.07H838.97Z" fill="white" stroke="white"/>
<path d="M906.356 307.07L878.4 273.042V266.831V266.331H877.9H872.65H871.592L872.264 267.148L877.4 273.4V307.07H865.48V251.48H875.573L903.44 285.492V291.72V292.22H903.94H909.19H910.246L909.577 291.404L904.44 285.134V251.48H916.37V307.07H906.356ZM877.4 271.825L873.708 267.331H877.4V271.825ZM904.44 291.22V286.712L908.134 291.22H904.44Z" fill="white" stroke="white"/>
<path d="M930.8 307.07V251.48H942.9V307.07H930.8Z" fill="white" stroke="white"/>
<path d="M984.39 308.049V308.032H983.89C979.575 308.032 975.586 307.331 971.898 305.925C968.208 304.517 965.026 302.522 962.326 299.931C959.625 297.338 957.523 294.294 956.009 290.793C954.499 287.302 953.75 283.471 953.75 279.272C953.75 275.074 954.508 271.242 956.009 267.75C957.523 264.251 959.634 261.217 962.365 258.614C965.085 256.021 968.278 254.026 971.939 252.618C975.596 251.213 979.604 250.512 983.97 250.512C988.812 250.512 993.183 251.351 997.073 253.021C1000.81 254.627 1003.98 256.949 1006.56 259.996L998.874 267.09C996.982 265.023 994.882 263.446 992.58 262.378C990.141 261.246 987.479 260.672 984.61 260.672C981.915 260.672 979.423 261.111 977.149 261.996C974.876 262.88 972.907 264.158 971.237 265.828C969.567 267.498 968.28 269.465 967.366 271.735C966.449 274.012 966 276.527 966 279.282C966 282.037 966.449 284.551 967.366 286.829C968.28 289.098 969.567 291.066 971.237 292.735C972.907 294.406 974.876 295.683 977.149 296.568C979.423 297.453 981.905 297.892 984.61 297.892C987.477 297.892 990.14 297.328 992.581 296.185C994.885 295.115 996.986 293.51 998.878 291.397L1006.56 298.486C1003.97 301.536 1000.81 303.868 997.071 305.503C993.314 307.135 989.09 307.992 984.39 308.049Z" fill="white" stroke="white"/>
</svg>
