<svg width="283" height="283" viewBox="0 0 283 283" fill="none" xmlns="http://www.w3.org/2000/svg">
<path d="M279.876 234.686C187.63 178.766 95.3779 290.59 3.13086 234.686C3.13086 172.564 3.13086 110.441 3.13086 48.3201C95.3779 104.232 187.629 -7.59199 279.876 48.3201V234.686Z" fill="#CCCBCA"/>
<path d="M277.609 106.079C186.877 53.7603 96.1272 161.07 5.38867 108.757C5.38867 89.8166 5.38867 70.8764 5.38867 51.9362C96.1272 104.254 186.877 -3.0604 277.609 49.2586V106.079Z" fill="white"/>
<path d="M277.625 231.083C186.876 178.765 96.135 286.079 5.39648 233.762C5.39648 214.83 5.39648 195.881 5.39648 176.949C96.135 229.267 186.876 121.949 277.625 174.271V231.083Z" fill="#0039A6"/>
<path d="M277.64 168.601C186.892 116.248 96.143 223.58 5.39648 171.263C5.39648 152.315 5.39648 133.379 5.39648 114.439C96.143 166.752 186.892 59.4268 277.64 111.777V168.601Z" fill="#D52B1E"/>
<path d="M277.639 111.778C277.624 109.875 277.624 107.981 277.624 106.079C186.876 53.7604 96.1428 161.07 5.4043 108.764V114.449C96.1508 166.755 186.892 59.4292 277.639 111.778Z" fill="#CF232E"/>
<path d="M277.64 174.287C277.64 172.392 277.64 170.497 277.64 168.603C186.892 116.25 96.1518 223.567 5.4043 171.265V176.949C96.1518 229.251 186.893 121.933 277.64 174.287Z" fill="#CF232E"/>
</svg>
